G75*
G70*
%OFA0B0*%
%FSLAX24Y24*%
%IPPOS*%
%LPD*%
%AMOC8*
5,1,8,0,0,1.08239X$1,22.5*
%
%ADD10C,0.0150*%
%ADD11C,0.0110*%
%ADD12C,0.0380*%
%ADD13C,0.0080*%
%ADD14R,0.0100X0.0006*%
%ADD15R,0.0106X0.0006*%
%ADD16R,0.0130X0.0006*%
%ADD17R,0.0148X0.0006*%
%ADD18R,0.0254X0.0006*%
%ADD19R,0.0142X0.0006*%
%ADD20R,0.0154X0.0006*%
%ADD21R,0.0124X0.0006*%
%ADD22R,0.0183X0.0006*%
%ADD23R,0.0171X0.0006*%
%ADD24R,0.0278X0.0006*%
%ADD25R,0.0177X0.0006*%
%ADD26R,0.0112X0.0006*%
%ADD27R,0.0118X0.0006*%
%ADD28R,0.0224X0.0006*%
%ADD29R,0.0201X0.0006*%
%ADD30R,0.0207X0.0006*%
%ADD31R,0.0295X0.0006*%
%ADD32R,0.0213X0.0006*%
%ADD33R,0.0248X0.0006*%
%ADD34R,0.0219X0.0006*%
%ADD35R,0.0230X0.0006*%
%ADD36R,0.0313X0.0006*%
%ADD37R,0.0242X0.0006*%
%ADD38R,0.0319X0.0006*%
%ADD39R,0.0260X0.0006*%
%ADD40R,0.0266X0.0006*%
%ADD41R,0.0272X0.0006*%
%ADD42R,0.0331X0.0006*%
%ADD43R,0.0283X0.0006*%
%ADD44R,0.0337X0.0006*%
%ADD45R,0.0289X0.0006*%
%ADD46R,0.0301X0.0006*%
%ADD47R,0.0348X0.0006*%
%ADD48R,0.0136X0.0006*%
%ADD49R,0.0354X0.0006*%
%ADD50R,0.0307X0.0006*%
%ADD51R,0.0360X0.0006*%
%ADD52R,0.0325X0.0006*%
%ADD53R,0.0372X0.0006*%
%ADD54R,0.0366X0.0006*%
%ADD55R,0.0384X0.0006*%
%ADD56R,0.0343X0.0006*%
%ADD57R,0.0396X0.0006*%
%ADD58R,0.0378X0.0006*%
%ADD59R,0.0159X0.0006*%
%ADD60R,0.0390X0.0006*%
%ADD61R,0.0165X0.0006*%
%ADD62R,0.0189X0.0006*%
%ADD63R,0.0437X0.0006*%
%ADD64R,0.0425X0.0006*%
%ADD65R,0.0083X0.0006*%
%ADD66R,0.0065X0.0006*%
%ADD67R,0.0094X0.0006*%
%ADD68R,0.0413X0.0006*%
%ADD69R,0.0047X0.0006*%
%ADD70R,0.0030X0.0006*%
%ADD71R,0.0195X0.0006*%
%ADD72R,0.0402X0.0006*%
%ADD73R,0.0018X0.0006*%
%ADD74R,0.0006X0.0006*%
%ADD75R,0.0236X0.0006*%
%ADD76R,0.0035X0.0006*%
%ADD77R,0.0443X0.0006*%
%ADD78R,0.0472X0.0006*%
%ADD79R,0.0508X0.0006*%
%ADD80R,0.0531X0.0006*%
%ADD81R,0.0561X0.0006*%
%ADD82R,0.0585X0.0006*%
%ADD83R,0.0614X0.0006*%
%ADD84R,0.0632X0.0006*%
%ADD85R,0.0661X0.0006*%
%ADD86R,0.0679X0.0006*%
%ADD87R,0.0703X0.0006*%
%ADD88R,0.0720X0.0006*%
%ADD89R,0.0744X0.0006*%
%ADD90R,0.0762X0.0006*%
%ADD91R,0.0774X0.0006*%
%ADD92R,0.0797X0.0006*%
%ADD93R,0.0809X0.0006*%
%ADD94R,0.0833X0.0006*%
%ADD95R,0.0839X0.0006*%
%ADD96R,0.0862X0.0006*%
%ADD97R,0.0868X0.0006*%
%ADD98R,0.0892X0.0006*%
%ADD99R,0.0898X0.0006*%
%ADD100R,0.0921X0.0006*%
%ADD101R,0.0951X0.0006*%
%ADD102R,0.0945X0.0006*%
%ADD103R,0.0974X0.0006*%
%ADD104R,0.0963X0.0006*%
%ADD105R,0.1004X0.0006*%
%ADD106R,0.0986X0.0006*%
%ADD107R,0.1033X0.0006*%
%ADD108R,0.1010X0.0006*%
%ADD109R,0.1057X0.0006*%
%ADD110R,0.1022X0.0006*%
%ADD111R,0.1081X0.0006*%
%ADD112R,0.1104X0.0006*%
%ADD113R,0.1039X0.0006*%
%ADD114R,0.1128X0.0006*%
%ADD115R,0.1051X0.0006*%
%ADD116R,0.1152X0.0006*%
%ADD117R,0.1163X0.0006*%
%ADD118R,0.1187X0.0006*%
%ADD119R,0.1211X0.0006*%
%ADD120R,0.1234X0.0006*%
%ADD121R,0.1246X0.0006*%
%ADD122R,0.1270X0.0006*%
%ADD123R,0.1293X0.0006*%
%ADD124R,0.1305X0.0006*%
%ADD125R,0.1329X0.0006*%
%ADD126R,0.1341X0.0006*%
%ADD127R,0.1364X0.0006*%
%ADD128R,0.1376X0.0006*%
%ADD129R,0.1394X0.0006*%
%ADD130R,0.1411X0.0006*%
%ADD131R,0.1423X0.0006*%
%ADD132R,0.1441X0.0006*%
%ADD133R,0.1459X0.0006*%
%ADD134R,0.1470X0.0006*%
%ADD135R,0.1482X0.0006*%
%ADD136R,0.1500X0.0006*%
%ADD137R,0.1518X0.0006*%
%ADD138R,0.1530X0.0006*%
%ADD139R,0.1541X0.0006*%
%ADD140R,0.1553X0.0006*%
%ADD141R,0.1571X0.0006*%
%ADD142R,0.1583X0.0006*%
%ADD143R,0.1594X0.0006*%
%ADD144R,0.1606X0.0006*%
%ADD145R,0.1618X0.0006*%
%ADD146R,0.1630X0.0006*%
%ADD147R,0.1642X0.0006*%
%ADD148R,0.1654X0.0006*%
%ADD149R,0.1665X0.0006*%
%ADD150R,0.1677X0.0006*%
%ADD151R,0.1689X0.0006*%
%ADD152R,0.1701X0.0006*%
%ADD153R,0.1713X0.0006*%
%ADD154R,0.1724X0.0006*%
%ADD155R,0.1730X0.0006*%
%ADD156R,0.1742X0.0006*%
%ADD157R,0.1754X0.0006*%
%ADD158R,0.1766X0.0006*%
%ADD159R,0.1772X0.0006*%
%ADD160R,0.1783X0.0006*%
%ADD161R,0.1795X0.0006*%
%ADD162R,0.1801X0.0006*%
%ADD163R,0.1813X0.0006*%
%ADD164R,0.1819X0.0006*%
%ADD165R,0.1831X0.0006*%
%ADD166R,0.1837X0.0006*%
%ADD167R,0.1848X0.0006*%
%ADD168R,0.1854X0.0006*%
%ADD169R,0.1866X0.0006*%
%ADD170R,0.1872X0.0006*%
%ADD171R,0.1884X0.0006*%
%ADD172R,0.1890X0.0006*%
%ADD173R,0.1896X0.0006*%
%ADD174R,0.1907X0.0006*%
%ADD175R,0.1913X0.0006*%
%ADD176R,0.1919X0.0006*%
%ADD177R,0.1931X0.0006*%
%ADD178R,0.1937X0.0006*%
%ADD179R,0.1943X0.0006*%
%ADD180R,0.1955X0.0006*%
%ADD181R,0.1961X0.0006*%
%ADD182R,0.1967X0.0006*%
%ADD183R,0.1972X0.0006*%
%ADD184R,0.1978X0.0006*%
%ADD185R,0.1990X0.0006*%
%ADD186R,0.1996X0.0006*%
%ADD187R,0.2002X0.0006*%
%ADD188R,0.1281X0.0006*%
%ADD189R,0.2008X0.0006*%
%ADD190R,0.2014X0.0006*%
%ADD191R,0.2020X0.0006*%
%ADD192R,0.2026X0.0006*%
%ADD193R,0.2031X0.0006*%
%ADD194R,0.2037X0.0006*%
%ADD195R,0.2043X0.0006*%
%ADD196R,0.2049X0.0006*%
%ADD197R,0.2055X0.0006*%
%ADD198R,0.2061X0.0006*%
%ADD199R,0.2067X0.0006*%
%ADD200R,0.2073X0.0006*%
%ADD201R,0.2079X0.0006*%
%ADD202R,0.2085X0.0006*%
%ADD203R,0.2091X0.0006*%
%ADD204R,0.2096X0.0006*%
%ADD205R,0.2102X0.0006*%
%ADD206R,0.2108X0.0006*%
%ADD207R,0.2114X0.0006*%
%ADD208R,0.2120X0.0006*%
%ADD209R,0.1069X0.0006*%
%ADD210R,0.0998X0.0006*%
%ADD211R,0.0992X0.0006*%
%ADD212R,0.0980X0.0006*%
%ADD213R,0.0969X0.0006*%
%ADD214R,0.0939X0.0006*%
%ADD215R,0.0927X0.0006*%
%ADD216R,0.0933X0.0006*%
%ADD217R,0.0915X0.0006*%
%ADD218R,0.0053X0.0006*%
%ADD219R,0.0904X0.0006*%
%ADD220R,0.0024X0.0006*%
%ADD221R,0.0909X0.0006*%
%ADD222R,0.0012X0.0006*%
%ADD223R,0.0886X0.0006*%
%ADD224R,0.0880X0.0006*%
%ADD225R,0.0874X0.0006*%
%ADD226R,0.0856X0.0006*%
%ADD227R,0.0850X0.0006*%
%ADD228R,0.0844X0.0006*%
%ADD229R,0.0827X0.0006*%
%ADD230R,0.0821X0.0006*%
%ADD231R,0.0815X0.0006*%
%ADD232R,0.0803X0.0006*%
%ADD233R,0.0957X0.0006*%
%ADD234R,0.1028X0.0006*%
%ADD235R,0.1925X0.0006*%
%ADD236R,0.1902X0.0006*%
%ADD237R,0.1878X0.0006*%
%ADD238R,0.1860X0.0006*%
%ADD239R,0.1843X0.0006*%
%ADD240R,0.1825X0.0006*%
%ADD241R,0.1807X0.0006*%
%ADD242R,0.1789X0.0006*%
%ADD243R,0.1760X0.0006*%
%ADD244R,0.1748X0.0006*%
%ADD245R,0.1736X0.0006*%
%ADD246R,0.1719X0.0006*%
%ADD247R,0.1577X0.0006*%
%ADD248R,0.1565X0.0006*%
%ADD249R,0.1547X0.0006*%
%ADD250R,0.1535X0.0006*%
%ADD251R,0.1524X0.0006*%
%ADD252R,0.1512X0.0006*%
%ADD253R,0.1494X0.0006*%
%ADD254R,0.1465X0.0006*%
%ADD255R,0.1453X0.0006*%
%ADD256R,0.1435X0.0006*%
%ADD257R,0.1417X0.0006*%
%ADD258R,0.1406X0.0006*%
%ADD259R,0.1388X0.0006*%
%ADD260R,0.1370X0.0006*%
%ADD261R,0.1352X0.0006*%
%ADD262R,0.1335X0.0006*%
%ADD263R,0.1317X0.0006*%
%ADD264R,0.1299X0.0006*%
%ADD265R,0.1258X0.0006*%
%ADD266R,0.1240X0.0006*%
%ADD267R,0.1222X0.0006*%
%ADD268R,0.1199X0.0006*%
%ADD269R,0.1175X0.0006*%
%ADD270R,0.1140X0.0006*%
%ADD271R,0.1116X0.0006*%
%ADD272R,0.1093X0.0006*%
%ADD273R,0.1045X0.0006*%
%ADD274R,0.0780X0.0006*%
%ADD275R,0.0502X0.0006*%
%ADD276R,0.0041X0.0006*%
%ADD277C,0.0797*%
%ADD278C,0.0541*%
%ADD279R,0.0862X0.0537*%
%ADD280R,0.0839X0.2669*%
%ADD281R,0.0833X0.1996*%
%ADD282R,0.1530X0.0644*%
%ADD283R,0.0833X0.0502*%
%ADD284R,0.0833X0.0780*%
%ADD285R,0.1281X0.0059*%
%ADD286R,0.1276X0.0035*%
%ADD287R,0.1069X0.0380*%
%ADD288R,0.0455X0.0077*%
%ADD289R,0.0201X0.0030*%
%ADD290R,0.0195X0.0030*%
%ADD291R,0.0189X0.0024*%
%ADD292R,0.0183X0.0018*%
%ADD293R,0.0177X0.0018*%
%ADD294R,0.0171X0.0018*%
%ADD295C,0.0050*%
%ADD296R,0.0094X0.0142*%
%ADD297R,0.0071X0.0012*%
%ADD298R,0.0065X0.0018*%
%ADD299R,0.0059X0.0012*%
%ADD300R,0.0053X0.0012*%
%ADD301R,0.0047X0.0012*%
%ADD302R,0.0041X0.0012*%
%ADD303R,0.0035X0.0012*%
%ADD304R,0.0030X0.0012*%
%ADD305R,0.0018X0.0012*%
%ADD306R,0.0006X0.0012*%
%ADD307R,0.0089X0.0006*%
%ADD308R,0.0083X0.0012*%
%ADD309R,0.0077X0.0006*%
%ADD310R,0.0071X0.0006*%
%ADD311R,0.0059X0.0006*%
%ADD312R,0.0006X0.0041*%
%ADD313R,0.0012X0.0024*%
%ADD314R,0.0024X0.0018*%
%ADD315R,0.0254X0.0041*%
%ADD316R,0.0053X0.0295*%
%ADD317R,0.0118X0.0573*%
%ADD318R,0.0254X0.0106*%
%ADD319R,0.0112X0.0159*%
%ADD320R,0.0118X0.0224*%
%ADD321R,0.0118X0.0402*%
%ADD322R,0.0118X0.0366*%
%ADD323R,0.0118X0.0189*%
%ADD324R,0.0112X0.0313*%
%ADD325R,0.0124X0.0307*%
%ADD326R,0.0118X0.0313*%
%ADD327R,0.0118X0.0319*%
%ADD328R,0.0118X0.0407*%
%ADD329R,0.0118X0.0331*%
%ADD330R,0.0419X0.0100*%
%ADD331R,0.0124X0.0472*%
%ADD332R,0.0112X0.0576*%
%ADD333R,0.0118X0.0236*%
%ADD334R,0.0118X0.0334*%
%ADD335R,0.0112X0.0337*%
%ADD336R,0.0677X0.0016*%
%ADD337R,0.1055X0.0016*%
%ADD338R,0.0236X0.0016*%
%ADD339R,0.0756X0.0016*%
%ADD340R,0.1118X0.0016*%
%ADD341R,0.0394X0.0016*%
%ADD342R,0.0803X0.0016*%
%ADD343R,0.1165X0.0016*%
%ADD344R,0.0488X0.0016*%
%ADD345R,0.0850X0.0016*%
%ADD346R,0.1197X0.0016*%
%ADD347R,0.0583X0.0016*%
%ADD348R,0.0882X0.0016*%
%ADD349R,0.1228X0.0016*%
%ADD350R,0.0646X0.0016*%
%ADD351R,0.0913X0.0016*%
%ADD352R,0.1244X0.0016*%
%ADD353R,0.0709X0.0016*%
%ADD354R,0.0945X0.0016*%
%ADD355R,0.1260X0.0016*%
%ADD356R,0.0772X0.0016*%
%ADD357R,0.0976X0.0016*%
%ADD358R,0.1291X0.0016*%
%ADD359R,0.0835X0.0016*%
%ADD360R,0.0992X0.0016*%
%ADD361R,0.1307X0.0016*%
%ADD362R,0.0866X0.0016*%
%ADD363R,0.1024X0.0016*%
%ADD364R,0.1323X0.0016*%
%ADD365R,0.0929X0.0016*%
%ADD366R,0.1039X0.0016*%
%ADD367R,0.1339X0.0016*%
%ADD368R,0.0961X0.0016*%
%ADD369R,0.1071X0.0016*%
%ADD370R,0.1354X0.0016*%
%ADD371R,0.1087X0.0016*%
%ADD372R,0.1370X0.0016*%
%ADD373R,0.1102X0.0016*%
%ADD374R,0.1386X0.0016*%
%ADD375R,0.1134X0.0016*%
%ADD376R,0.1402X0.0016*%
%ADD377R,0.1150X0.0016*%
%ADD378R,0.1181X0.0016*%
%ADD379R,0.1417X0.0016*%
%ADD380R,0.1213X0.0016*%
%ADD381R,0.1276X0.0016*%
%ADD382R,0.1433X0.0016*%
%ADD383R,0.0425X0.0016*%
%ADD384R,0.0535X0.0016*%
%ADD385R,0.0520X0.0016*%
%ADD386R,0.0504X0.0016*%
%ADD387R,0.0472X0.0016*%
%ADD388R,0.0378X0.0016*%
%ADD389R,0.0441X0.0016*%
%ADD390R,0.0362X0.0016*%
%ADD391R,0.0409X0.0016*%
%ADD392R,0.0362X0.1559*%
%ADD393R,0.0976X0.0362*%
%ADD394R,0.0756X0.0362*%
%ADD395R,0.0202X0.0006*%
%ADD396R,0.0277X0.0006*%
%ADD397R,0.0328X0.0006*%
%ADD398R,0.0378X0.0006*%
%ADD399R,0.0416X0.0006*%
%ADD400R,0.0454X0.0006*%
%ADD401R,0.0479X0.0006*%
%ADD402R,0.0517X0.0006*%
%ADD403R,0.0542X0.0006*%
%ADD404R,0.0567X0.0006*%
%ADD405R,0.0592X0.0006*%
%ADD406R,0.0617X0.0006*%
%ADD407R,0.0643X0.0006*%
%ADD408R,0.0661X0.0006*%
%ADD409R,0.0680X0.0006*%
%ADD410R,0.0706X0.0006*%
%ADD411R,0.0718X0.0006*%
%ADD412R,0.0353X0.0006*%
%ADD413R,0.0296X0.0006*%
%ADD414R,0.0271X0.0006*%
%ADD415R,0.0258X0.0006*%
%ADD416R,0.0265X0.0006*%
%ADD417R,0.0246X0.0006*%
%ADD418R,0.0239X0.0006*%
%ADD419R,0.0233X0.0006*%
%ADD420R,0.0227X0.0006*%
%ADD421R,0.0220X0.0006*%
%ADD422R,0.0214X0.0006*%
%ADD423R,0.0208X0.0006*%
%ADD424R,0.0195X0.0006*%
%ADD425R,0.0189X0.0006*%
%ADD426R,0.0183X0.0006*%
%ADD427R,0.0176X0.0006*%
%ADD428R,0.0170X0.0006*%
%ADD429R,0.0164X0.0006*%
%ADD430R,0.0157X0.0006*%
%ADD431R,0.0151X0.0006*%
%ADD432R,0.0145X0.0006*%
%ADD433R,0.0139X0.0006*%
%ADD434R,0.0132X0.0006*%
%ADD435R,0.0126X0.0006*%
%ADD436R,0.0019X0.0006*%
%ADD437R,0.0088X0.0006*%
%ADD438R,0.0038X0.0006*%
%ADD439R,0.0050X0.0006*%
%ADD440R,0.0069X0.0006*%
%ADD441R,0.0076X0.0006*%
%ADD442R,0.0120X0.0006*%
%ADD443R,0.0094X0.0006*%
%ADD444R,0.0107X0.0006*%
%ADD445R,0.0252X0.0006*%
%ADD446R,0.0309X0.0006*%
%ADD447R,0.0340X0.0006*%
%ADD448R,0.0359X0.0006*%
%ADD449R,0.0649X0.0006*%
%ADD450R,0.0655X0.0006*%
%ADD451R,0.0397X0.0006*%
%ADD452R,0.0372X0.0006*%
%ADD453R,0.0290X0.0006*%
%ADD454R,0.0113X0.0006*%
%ADD455R,0.0101X0.0006*%
%ADD456R,0.0082X0.0006*%
%ADD457R,0.0057X0.0006*%
%ADD458R,0.0044X0.0006*%
%ADD459R,0.0025X0.0006*%
%ADD460R,0.0334X0.0006*%
%ADD461R,0.0731X0.0006*%
%ADD462R,0.0693X0.0006*%
%ADD463R,0.0668X0.0006*%
%ADD464R,0.0624X0.0006*%
%ADD465R,0.0605X0.0006*%
%ADD466R,0.0580X0.0006*%
%ADD467R,0.0548X0.0006*%
%ADD468R,0.0491X0.0006*%
%ADD469R,0.0422X0.0006*%
%ADD470R,0.0120X0.1216*%
%ADD471R,0.0120X0.1203*%
D10*
X003182Y008633D02*
X003324Y008633D01*
X003182Y008633D02*
X003041Y008775D01*
X003041Y009484D01*
X002687Y009484D02*
X002687Y009342D01*
X002545Y009342D01*
X002545Y009484D01*
X002687Y009484D01*
X002687Y009058D02*
X002545Y009058D01*
X002545Y008916D01*
X002687Y008916D01*
X002687Y009058D01*
X003041Y008916D02*
X003466Y008916D01*
X003608Y009058D01*
X003608Y009484D01*
X003961Y009342D02*
X004103Y009484D01*
X004529Y009484D01*
X004529Y009767D02*
X004529Y008916D01*
X004103Y008916D01*
X003961Y009058D01*
X003961Y009342D01*
X005780Y009484D02*
X006063Y009484D01*
X005921Y009625D02*
X005921Y009058D01*
X005780Y008916D01*
X006393Y008916D02*
X006677Y008916D01*
X006535Y008916D02*
X006535Y009767D01*
X006677Y009767D01*
X007149Y009767D02*
X007149Y009909D01*
X007149Y009484D02*
X007149Y008916D01*
X007291Y008916D02*
X007007Y008916D01*
X007645Y008916D02*
X007645Y009484D01*
X007291Y009484D02*
X007149Y009484D01*
X007645Y008916D02*
X008070Y008916D01*
X008212Y009058D01*
X008212Y009484D01*
X008565Y009484D02*
X008707Y009342D01*
X009132Y009342D01*
X008707Y009342D02*
X008565Y009200D01*
X008565Y009058D01*
X008707Y008916D01*
X009132Y008916D01*
X009132Y009767D01*
X008707Y009767D01*
X008565Y009625D01*
X008565Y009484D01*
X013055Y005940D02*
X013055Y005798D01*
X013197Y005798D01*
X013197Y005940D01*
X013055Y005940D01*
X013551Y005940D02*
X013551Y005231D01*
X013693Y005090D01*
X013834Y005090D01*
X013976Y005373D02*
X013551Y005373D01*
X013197Y005373D02*
X013197Y005515D01*
X013055Y005515D01*
X013055Y005373D01*
X013197Y005373D01*
X013976Y005373D02*
X014118Y005515D01*
X014118Y005940D01*
X014472Y005798D02*
X014613Y005940D01*
X015039Y005940D01*
X015039Y006224D02*
X015039Y005373D01*
X014613Y005373D01*
X014472Y005515D01*
X014472Y005798D01*
X016313Y005940D02*
X016738Y005940D01*
X016880Y005798D01*
X016880Y005515D01*
X016738Y005373D01*
X016313Y005373D01*
X016313Y006224D01*
X017234Y005798D02*
X017234Y005657D01*
X017801Y005657D01*
X017801Y005798D02*
X017659Y005940D01*
X017376Y005940D01*
X017234Y005798D01*
X017376Y005373D02*
X017659Y005373D01*
X017801Y005515D01*
X017801Y005798D01*
X018143Y005940D02*
X018285Y005940D01*
X018568Y005657D01*
X018568Y005940D02*
X018568Y005373D01*
X018922Y005515D02*
X018922Y005798D01*
X019064Y005940D01*
X019347Y005940D01*
X019489Y005798D01*
X019489Y005515D01*
X019347Y005373D01*
X019064Y005373D01*
X018922Y005515D01*
X019843Y005515D02*
X019985Y005657D01*
X020268Y005657D01*
X020410Y005798D01*
X020268Y005940D01*
X019843Y005940D01*
X019843Y005515D02*
X019985Y005373D01*
X020410Y005373D01*
X020764Y005373D02*
X020764Y005798D01*
X020905Y005940D01*
X021331Y005940D01*
X021331Y005373D01*
X021684Y005515D02*
X021684Y005798D01*
X021826Y005940D01*
X022110Y005940D01*
X022252Y005798D01*
X022252Y005515D01*
X022110Y005373D01*
X021826Y005373D01*
X021684Y005515D01*
X022605Y005515D02*
X022747Y005373D01*
X023172Y005373D01*
X023172Y005090D02*
X023172Y005940D01*
X022747Y005940D01*
X022605Y005798D01*
X022605Y005515D01*
X023526Y005515D02*
X023668Y005373D01*
X023951Y005373D01*
X024093Y005515D01*
X023951Y005798D02*
X023668Y005798D01*
X023526Y005657D01*
X023526Y005515D01*
X023951Y005798D02*
X024093Y005940D01*
X024093Y006082D01*
X023951Y006224D01*
X023668Y006224D01*
X023526Y006082D01*
X023695Y009814D02*
X023837Y009814D01*
X023695Y009814D02*
X023553Y009956D01*
X023553Y010665D01*
X023200Y010665D02*
X023200Y010523D01*
X023058Y010523D01*
X023058Y010665D01*
X023200Y010665D01*
X023200Y010239D02*
X023200Y010098D01*
X023058Y010098D01*
X023058Y010239D01*
X023200Y010239D01*
X023553Y010098D02*
X023979Y010098D01*
X024120Y010239D01*
X024120Y010665D01*
X024474Y010523D02*
X024616Y010665D01*
X025041Y010665D01*
X025041Y010948D02*
X025041Y010098D01*
X024616Y010098D01*
X024474Y010239D01*
X024474Y010523D01*
X026316Y010523D02*
X026316Y010098D01*
X026883Y010098D02*
X026883Y010665D01*
X026457Y010665D01*
X026316Y010523D01*
X027236Y010665D02*
X027236Y009956D01*
X027378Y009814D01*
X027520Y009814D01*
X027662Y010098D02*
X027236Y010098D01*
X027662Y010098D02*
X027804Y010239D01*
X027804Y010523D01*
X027662Y010665D01*
X027236Y010665D01*
X028276Y010665D02*
X028276Y010098D01*
X028417Y010098D02*
X028134Y010098D01*
X028771Y010239D02*
X028913Y010381D01*
X029196Y010381D01*
X029338Y010523D01*
X029196Y010665D01*
X028771Y010665D01*
X028417Y010665D02*
X028276Y010665D01*
X028276Y010948D02*
X028276Y011090D01*
X028771Y010239D02*
X028913Y010098D01*
X029338Y010098D01*
X029692Y010381D02*
X030259Y010381D01*
X030259Y010239D02*
X030259Y010523D01*
X030117Y010665D01*
X029834Y010665D01*
X029692Y010523D01*
X029692Y010381D01*
X029834Y010098D02*
X030117Y010098D01*
X030259Y010239D01*
X030613Y010239D02*
X030754Y010098D01*
X031180Y010098D01*
X031180Y010948D01*
X030754Y010948D01*
X030613Y010806D01*
X030613Y010239D01*
X024881Y015751D02*
X024739Y015609D01*
X024455Y015609D01*
X024313Y015893D02*
X024881Y015893D01*
X024881Y015751D02*
X024881Y016035D01*
X024739Y016176D01*
X024455Y016176D01*
X024313Y016035D01*
X024313Y015893D01*
X023960Y016176D02*
X023960Y015609D01*
X023676Y015609D02*
X023676Y016035D01*
X023534Y016176D01*
X023393Y016035D01*
X023393Y015609D01*
X022897Y015609D02*
X022897Y016318D01*
X022755Y016460D01*
X022921Y016790D02*
X023204Y016790D01*
X023346Y016932D01*
X023346Y017216D01*
X023204Y017358D01*
X022921Y017358D01*
X022779Y017216D01*
X022779Y017074D01*
X023346Y017074D01*
X023676Y016790D02*
X023960Y016790D01*
X023818Y016790D02*
X023818Y017641D01*
X023960Y017641D01*
X024313Y017641D02*
X024881Y017641D01*
X024881Y016790D01*
X024313Y016790D01*
X024597Y017216D02*
X024881Y017216D01*
X023960Y016176D02*
X023818Y016176D01*
X023676Y016035D01*
X023039Y016035D02*
X022755Y016035D01*
X022425Y016035D02*
X022425Y015751D01*
X022283Y015609D01*
X021858Y015609D01*
X021504Y015751D02*
X021363Y015893D01*
X020937Y015893D01*
X020937Y016035D02*
X020937Y015609D01*
X021363Y015609D01*
X021504Y015751D01*
X021363Y016176D02*
X021079Y016176D01*
X020937Y016035D01*
X020584Y016176D02*
X020442Y016176D01*
X020300Y016035D01*
X020158Y016176D01*
X020016Y016035D01*
X020016Y015609D01*
X020300Y015609D02*
X020300Y016035D01*
X020584Y016176D02*
X020584Y015609D01*
X019663Y015609D02*
X019237Y015609D01*
X019096Y015751D01*
X019096Y016035D01*
X019237Y016176D01*
X019663Y016176D01*
X019663Y015326D01*
X018742Y015609D02*
X018600Y015609D01*
X018600Y015751D01*
X018742Y015751D01*
X018742Y015609D01*
X018282Y015751D02*
X018140Y015609D01*
X017856Y015609D01*
X017714Y015751D01*
X017714Y016035D01*
X017856Y016176D01*
X018140Y016176D01*
X018282Y016035D01*
X018282Y015751D01*
X017361Y015609D02*
X017361Y016176D01*
X017361Y015893D02*
X017077Y016176D01*
X016935Y016176D01*
X016593Y016035D02*
X016593Y015751D01*
X016452Y015609D01*
X016026Y015609D01*
X016026Y015468D02*
X016026Y016176D01*
X016452Y016176D01*
X016593Y016035D01*
X016935Y016507D02*
X016794Y016649D01*
X016794Y017358D01*
X017219Y017358D01*
X017361Y017216D01*
X017361Y016932D01*
X017219Y016790D01*
X016794Y016790D01*
X016935Y016507D02*
X017077Y016507D01*
X016440Y016790D02*
X016440Y017358D01*
X016015Y017358D01*
X015873Y017216D01*
X015873Y016790D01*
X015519Y016932D02*
X015519Y017216D01*
X015377Y017358D01*
X015094Y017358D01*
X014952Y017216D01*
X014952Y017074D01*
X015519Y017074D01*
X015519Y016932D02*
X015377Y016790D01*
X015094Y016790D01*
X015106Y016460D02*
X015673Y015609D01*
X016026Y015468D02*
X016168Y015326D01*
X016310Y015326D01*
X014752Y015751D02*
X014610Y015609D01*
X014468Y015751D01*
X014327Y015609D01*
X014185Y015751D01*
X014185Y016176D01*
X013689Y016176D02*
X013406Y016176D01*
X013264Y016035D01*
X013264Y015609D01*
X013689Y015609D01*
X013831Y015751D01*
X013689Y015893D01*
X013264Y015893D01*
X012910Y016176D02*
X012627Y015609D01*
X012343Y016176D01*
X011990Y016035D02*
X011990Y015751D01*
X011848Y015609D01*
X011564Y015609D01*
X011422Y015893D02*
X011990Y015893D01*
X011990Y016035D02*
X011848Y016176D01*
X011564Y016176D01*
X011422Y016035D01*
X011422Y015893D01*
X011529Y016790D02*
X011246Y017074D01*
X010962Y016790D01*
X010962Y017641D01*
X010467Y017358D02*
X010183Y017358D01*
X010041Y017216D01*
X010041Y016790D01*
X010467Y016790D01*
X010608Y016932D01*
X010467Y017074D01*
X010041Y017074D01*
X009688Y017358D02*
X009404Y016790D01*
X009120Y017358D01*
X008767Y017216D02*
X008625Y017358D01*
X008341Y017358D01*
X008200Y017216D01*
X008200Y017074D01*
X008767Y017074D01*
X008767Y016932D02*
X008625Y016790D01*
X008341Y016790D01*
X008767Y016932D02*
X008767Y017216D01*
X011529Y017641D02*
X011529Y016790D01*
X012804Y016790D02*
X013229Y016790D01*
X013371Y016932D01*
X013371Y017216D01*
X013229Y017358D01*
X012804Y017358D01*
X013843Y017358D02*
X013843Y016790D01*
X013985Y016790D02*
X013701Y016790D01*
X013843Y017358D02*
X013985Y017358D01*
X013843Y017641D02*
X013843Y017783D01*
X014315Y017358D02*
X014598Y017358D01*
X014457Y017499D02*
X014457Y016932D01*
X014315Y016790D01*
X014752Y016176D02*
X014752Y015751D01*
X017714Y016790D02*
X018140Y016790D01*
X018282Y016932D01*
X018140Y017074D01*
X017714Y017074D01*
X017714Y017216D02*
X017714Y016790D01*
X017714Y017216D02*
X017856Y017358D01*
X018140Y017358D01*
X018635Y017216D02*
X018635Y016790D01*
X018919Y016790D02*
X018919Y017216D01*
X018777Y017358D01*
X018635Y017216D01*
X018919Y017216D02*
X019061Y017358D01*
X019202Y017358D01*
X019202Y016790D01*
X019556Y016932D02*
X019556Y017216D01*
X019698Y017358D01*
X019981Y017358D01*
X020123Y017216D01*
X020123Y016932D01*
X019981Y016790D01*
X019698Y016790D01*
X019556Y016932D01*
X020465Y017358D02*
X020607Y017358D01*
X020890Y017074D01*
X020890Y016790D02*
X020890Y017358D01*
X021221Y017358D02*
X021504Y017358D01*
X021363Y017499D02*
X021363Y016932D01*
X021221Y016790D01*
X021858Y016790D02*
X022283Y016790D01*
X022425Y016932D01*
X022425Y017216D01*
X022283Y017358D01*
X021858Y017358D01*
X021858Y016176D02*
X022283Y016176D01*
X022425Y016035D01*
D11*
X025610Y009439D02*
X025610Y009005D01*
X025501Y008896D01*
X025501Y009330D02*
X025718Y009330D01*
X025984Y009330D02*
X025984Y009439D01*
X026093Y009547D01*
X026309Y009547D01*
X026418Y009439D01*
X026684Y009439D02*
X026684Y009330D01*
X026792Y009222D01*
X026684Y009113D01*
X026684Y009005D01*
X026792Y008896D01*
X027009Y008896D01*
X027118Y009005D01*
X027367Y008896D02*
X027584Y008896D01*
X027476Y008896D02*
X027476Y009547D01*
X027584Y009547D01*
X027842Y009330D02*
X028167Y009113D01*
X027842Y008896D01*
X028167Y008896D02*
X028167Y009547D01*
X028433Y009222D02*
X028433Y008896D01*
X028433Y009222D02*
X028542Y009330D01*
X028867Y009330D01*
X028867Y008896D01*
X029117Y008896D02*
X029334Y008896D01*
X029225Y008896D02*
X029225Y009330D01*
X029334Y009330D01*
X029225Y009547D02*
X029225Y009655D01*
X029600Y009222D02*
X029600Y008896D01*
X030033Y008896D02*
X030033Y009547D01*
X029925Y009330D02*
X029708Y009330D01*
X029600Y009222D01*
X029925Y009330D02*
X030033Y009222D01*
X030283Y009330D02*
X030500Y009330D01*
X030392Y009439D02*
X030392Y009005D01*
X030283Y008896D01*
X030766Y009005D02*
X030874Y008896D01*
X031091Y008896D01*
X031200Y009005D01*
X031200Y009439D01*
X031091Y009547D01*
X030874Y009547D01*
X030766Y009439D01*
X030766Y009222D01*
X030874Y009113D01*
X030874Y009330D01*
X031091Y009330D01*
X031091Y009113D01*
X030874Y009113D01*
X030874Y008366D02*
X030766Y008257D01*
X030766Y008041D01*
X030874Y007932D01*
X030874Y008149D01*
X031091Y008149D01*
X031091Y007932D01*
X030874Y007932D01*
X030766Y007824D02*
X030874Y007715D01*
X031091Y007715D01*
X031200Y007824D01*
X031200Y008257D01*
X031091Y008366D01*
X030874Y008366D01*
X030500Y008257D02*
X030500Y007824D01*
X030392Y007715D01*
X030175Y007715D01*
X030066Y007824D01*
X029800Y007715D02*
X029800Y008366D01*
X029692Y008149D02*
X029475Y008149D01*
X029366Y008041D01*
X029366Y007715D01*
X029100Y007824D02*
X028992Y007932D01*
X028667Y007932D01*
X028667Y008041D02*
X028667Y007715D01*
X028992Y007715D01*
X029100Y007824D01*
X028992Y008149D02*
X028775Y008149D01*
X028667Y008041D01*
X028401Y008149D02*
X028401Y007715D01*
X028401Y007932D02*
X028184Y008149D01*
X028075Y008149D01*
X027817Y008366D02*
X027709Y008366D01*
X027709Y007715D01*
X027817Y007715D02*
X027601Y007715D01*
X027351Y007824D02*
X027351Y008041D01*
X027242Y008149D01*
X027026Y008149D01*
X026917Y008041D01*
X026917Y007932D01*
X027351Y007932D01*
X027351Y007824D02*
X027242Y007715D01*
X027026Y007715D01*
X026651Y007715D02*
X026326Y007715D01*
X026217Y007824D01*
X026326Y007932D01*
X026543Y007932D01*
X026651Y008041D01*
X026543Y008149D01*
X026217Y008149D01*
X025951Y008257D02*
X025734Y008041D01*
X025734Y007715D01*
X025734Y008041D02*
X025518Y008257D01*
X025518Y008366D01*
X025143Y008149D02*
X024926Y008149D01*
X024818Y008041D01*
X024818Y007715D01*
X025143Y007715D01*
X025251Y007824D01*
X025143Y007932D01*
X024818Y007932D01*
X024552Y007932D02*
X024335Y008149D01*
X024226Y008149D01*
X023968Y008149D02*
X023643Y008149D01*
X023535Y008041D01*
X023535Y007715D01*
X023269Y007824D02*
X023160Y007715D01*
X022943Y007715D01*
X022835Y007824D01*
X022835Y008041D01*
X022943Y008149D01*
X023160Y008149D01*
X023269Y008041D01*
X023269Y007824D01*
X023968Y007715D02*
X023968Y008149D01*
X024552Y008149D02*
X024552Y007715D01*
X025951Y008257D02*
X025951Y008366D01*
X026093Y008896D02*
X026309Y008896D01*
X026418Y009005D01*
X026201Y009222D02*
X026093Y009222D01*
X025984Y009113D01*
X025984Y009005D01*
X026093Y008896D01*
X026093Y009222D02*
X025984Y009330D01*
X026684Y009439D02*
X026792Y009547D01*
X027009Y009547D01*
X027118Y009439D01*
X026901Y009222D02*
X026792Y009222D01*
X027234Y007185D02*
X027234Y006534D01*
X027234Y006751D02*
X026909Y006968D01*
X027234Y006751D02*
X026909Y006534D01*
X027500Y006643D02*
X027500Y006968D01*
X027500Y006643D02*
X027609Y006534D01*
X027717Y006643D01*
X027826Y006534D01*
X027934Y006643D01*
X027934Y006968D01*
X028292Y007185D02*
X028292Y006534D01*
X028184Y006534D02*
X028401Y006534D01*
X028667Y006643D02*
X028775Y006751D01*
X028992Y006751D01*
X029100Y006859D01*
X028992Y006968D01*
X028667Y006968D01*
X028667Y006643D02*
X028775Y006534D01*
X029100Y006534D01*
X029366Y006643D02*
X029366Y006859D01*
X029475Y006968D01*
X029800Y006968D01*
X029800Y006317D01*
X029800Y006534D02*
X029475Y006534D01*
X029366Y006643D01*
X030066Y006534D02*
X030066Y007185D01*
X030066Y006968D02*
X030392Y006968D01*
X030500Y006859D01*
X030500Y006643D01*
X030392Y006534D01*
X030066Y006534D01*
X030766Y006643D02*
X030874Y006534D01*
X031091Y006534D01*
X031200Y006643D01*
X031200Y007076D01*
X031091Y007185D01*
X030874Y007185D01*
X030766Y007076D01*
X030766Y006859D01*
X030874Y006751D01*
X030874Y006968D01*
X031091Y006968D01*
X031091Y006751D01*
X030874Y006751D01*
X029800Y008041D02*
X029692Y008149D01*
X030066Y008257D02*
X030175Y008366D01*
X030392Y008366D01*
X030500Y008257D01*
X028401Y007185D02*
X028292Y007185D01*
X022569Y007715D02*
X022352Y007715D01*
X022460Y007715D02*
X022460Y008366D01*
X022569Y008366D01*
X022102Y008041D02*
X021994Y008149D01*
X021669Y008149D01*
X021669Y008366D02*
X021669Y007715D01*
X021994Y007715D01*
X022102Y007824D01*
X022102Y008041D01*
D12*
X019287Y020842D02*
X018566Y020842D01*
X018206Y021203D01*
X018206Y021563D01*
X018566Y021923D01*
X019287Y021923D01*
X019647Y022284D01*
X019647Y022644D01*
X019287Y023004D01*
X018566Y023004D01*
X018206Y022644D01*
X017309Y022284D02*
X016948Y022284D01*
X016948Y020842D01*
X016588Y020842D02*
X017309Y020842D01*
X015749Y020842D02*
X015749Y023004D01*
X014308Y020842D01*
X014308Y023004D01*
X013411Y023004D02*
X013411Y020842D01*
X011969Y020842D01*
X012690Y021923D02*
X013411Y021923D01*
X013411Y023004D02*
X011969Y023004D01*
X016948Y023004D02*
X016948Y023365D01*
X019287Y020842D02*
X019647Y021203D01*
D13*
X017751Y014578D02*
X014837Y014578D01*
X012160Y012188D01*
X012160Y011755D01*
X012160Y009078D02*
X012160Y007936D01*
X012161Y007935D02*
X012162Y007868D01*
X012167Y007800D01*
X012176Y007733D01*
X012188Y007666D01*
X012205Y007601D01*
X012225Y007536D01*
X012249Y007473D01*
X012277Y007411D01*
X012308Y007351D01*
X012343Y007292D01*
X012381Y007236D01*
X012422Y007182D01*
X012466Y007131D01*
X012513Y007082D01*
X012563Y007036D01*
X012615Y006993D01*
X012670Y006954D01*
X012727Y006917D01*
X012786Y006884D01*
X012847Y006854D01*
X012910Y006828D01*
X012974Y006805D01*
X013039Y006787D01*
X013105Y006772D01*
X013172Y006761D01*
X013239Y006753D01*
X013307Y006750D01*
X013375Y006751D01*
X013442Y006755D01*
X013509Y006764D01*
X013576Y006776D01*
X013642Y006793D01*
X013707Y006813D01*
X013770Y006836D01*
X013832Y006864D01*
X013892Y006895D01*
X013951Y006929D01*
X014007Y006967D01*
X014061Y007008D01*
X014113Y007052D01*
X014161Y007099D01*
X014208Y007148D01*
X014207Y007149D02*
X014355Y007247D01*
X014508Y007338D01*
X014665Y007422D01*
X014826Y007498D01*
X014990Y007565D01*
X015158Y007625D01*
X015328Y007676D01*
X015500Y007719D01*
X015675Y007754D01*
X015851Y007780D01*
X016028Y007797D01*
X016205Y007806D01*
X016383Y007806D01*
X016560Y007797D01*
X016737Y007780D01*
X016913Y007754D01*
X017088Y007719D01*
X017260Y007676D01*
X017430Y007625D01*
X017598Y007565D01*
X017762Y007498D01*
X017923Y007422D01*
X018080Y007338D01*
X018233Y007247D01*
X018381Y007149D01*
X018380Y007148D02*
X018427Y007100D01*
X018476Y007054D01*
X018528Y007012D01*
X018583Y006972D01*
X018639Y006936D01*
X018697Y006903D01*
X018758Y006873D01*
X018819Y006847D01*
X018883Y006824D01*
X018947Y006805D01*
X019012Y006790D01*
X019078Y006778D01*
X019145Y006771D01*
X019212Y006767D01*
X019279Y006766D01*
X019346Y006770D01*
X019413Y006777D01*
X019479Y006789D01*
X019544Y006804D01*
X019609Y006822D01*
X019672Y006845D01*
X019734Y006870D01*
X019795Y006900D01*
X019853Y006933D01*
X019910Y006969D01*
X019964Y007008D01*
X020016Y007050D01*
X020066Y007095D01*
X020113Y007143D01*
X020157Y007193D01*
X020199Y007246D01*
X020237Y007301D01*
X020272Y007359D01*
X020304Y007418D01*
X020332Y007479D01*
X020357Y007541D01*
X020378Y007605D01*
X020395Y007670D01*
X020409Y007735D01*
X020419Y007802D01*
X020426Y007868D01*
X020428Y007935D01*
X020428Y007936D02*
X020428Y009078D01*
X020428Y011755D02*
X020428Y012188D01*
X017751Y014578D01*
D14*
X018009Y002546D03*
X018316Y001147D03*
X018316Y000574D03*
X017796Y000574D03*
X016562Y000574D03*
X016562Y001147D03*
X015493Y000715D03*
X012930Y000574D03*
X012930Y001147D03*
X012440Y001141D03*
X012440Y001135D03*
X011229Y001147D03*
X011229Y000574D03*
X010308Y000686D03*
X019267Y000574D03*
X019267Y001147D03*
D15*
X018360Y002534D03*
X016069Y001147D03*
X016069Y000574D03*
X014846Y000715D03*
X014846Y000721D03*
X014262Y000574D03*
X013878Y001147D03*
X013547Y000580D03*
X012378Y000958D03*
X012437Y001129D03*
X010854Y001147D03*
X010523Y000580D03*
D16*
X010535Y000615D03*
X010535Y000621D03*
X010299Y000680D03*
X010187Y000574D03*
X010039Y000698D03*
X010039Y000786D03*
X010305Y000940D03*
X010299Y001034D03*
X010842Y001111D03*
X011090Y001011D03*
X011090Y001005D03*
X011096Y001017D03*
X011368Y001011D03*
X011368Y001005D03*
X011084Y000727D03*
X011090Y000715D03*
X011090Y000710D03*
X011096Y000704D03*
X011368Y000710D03*
X011368Y000715D03*
X012437Y001099D03*
X012785Y000999D03*
X012791Y001011D03*
X012797Y001023D03*
X013063Y001011D03*
X013069Y001005D03*
X013069Y000999D03*
X013069Y000721D03*
X013069Y000715D03*
X013063Y000710D03*
X012791Y000710D03*
X012785Y000721D03*
X013559Y000615D03*
X014120Y000710D03*
X014126Y000704D03*
X014397Y000704D03*
X014397Y000710D03*
X014403Y000715D03*
X014846Y000739D03*
X014846Y000745D03*
X015041Y001111D03*
X015041Y001117D03*
X015295Y001129D03*
X015295Y001135D03*
X015685Y001123D03*
X015685Y001117D03*
X015927Y000999D03*
X015933Y001011D03*
X016205Y001017D03*
X016210Y001005D03*
X016423Y001011D03*
X016429Y001017D03*
X016695Y001017D03*
X016701Y001011D03*
X016701Y001005D03*
X017120Y001005D03*
X017120Y000999D03*
X017120Y000727D03*
X017120Y000721D03*
X016701Y000715D03*
X016701Y000710D03*
X016423Y000710D03*
X016210Y000715D03*
X016210Y000721D03*
X016205Y000710D03*
X016205Y000704D03*
X015933Y000710D03*
X015927Y000721D03*
X014651Y001129D03*
X014651Y001135D03*
X013866Y001111D03*
X013866Y001105D03*
X017651Y000715D03*
X017929Y000704D03*
X017935Y000710D03*
X017935Y000715D03*
X018177Y000715D03*
X018183Y000710D03*
X018183Y000704D03*
X018455Y000710D03*
X018455Y000715D03*
X018460Y000727D03*
X018455Y001011D03*
X018183Y001017D03*
X018177Y001005D03*
X019128Y001005D03*
X019128Y001011D03*
X019134Y001017D03*
X019399Y001017D03*
X019405Y001011D03*
X019405Y001005D03*
X019405Y000715D03*
X019405Y000710D03*
X019399Y000704D03*
X019134Y000704D03*
X019128Y000710D03*
X019128Y000715D03*
D17*
X019148Y000686D03*
X019267Y000580D03*
X019148Y001034D03*
X019267Y001141D03*
X018440Y000686D03*
X018316Y000580D03*
X017920Y000692D03*
X017914Y000686D03*
X017796Y000580D03*
X017672Y000686D03*
X017135Y000698D03*
X016562Y000580D03*
X016444Y000686D03*
X016190Y000686D03*
X016190Y001034D03*
X015676Y001076D03*
X015676Y001082D03*
X015493Y000763D03*
X015493Y000757D03*
X015304Y001093D03*
X015304Y001099D03*
X015032Y001082D03*
X015032Y001076D03*
X014660Y001087D03*
X014660Y001093D03*
X014383Y000686D03*
X014141Y000686D03*
X013857Y001082D03*
X013568Y000645D03*
X013048Y001034D03*
X012930Y001141D03*
X012806Y001034D03*
X012440Y001070D03*
X012440Y001076D03*
X012806Y000686D03*
X011353Y001028D03*
X011347Y001034D03*
X011229Y001141D03*
X011111Y001034D03*
X011105Y001028D03*
X010833Y001082D03*
X010544Y000645D03*
X010048Y000798D03*
X010284Y001046D03*
X011229Y000580D03*
X016562Y001141D03*
X017135Y001028D03*
X018192Y001028D03*
X018198Y001034D03*
X018316Y001141D03*
D18*
X018493Y001832D03*
X017335Y001147D03*
X017335Y000580D03*
X013804Y000916D03*
X013621Y000810D03*
X010780Y000916D03*
X010597Y000810D03*
D19*
X010659Y000816D03*
X010665Y000828D03*
X010671Y000834D03*
X010677Y000845D03*
X010689Y000863D03*
X010695Y000875D03*
X010701Y000881D03*
X010706Y000893D03*
X010712Y000899D03*
X010836Y001087D03*
X010836Y001093D03*
X011102Y000692D03*
X011108Y000686D03*
X011350Y000686D03*
X011356Y000692D03*
X010541Y000639D03*
X010541Y000633D03*
X010299Y000934D03*
X010051Y000686D03*
X012437Y001082D03*
X012803Y001028D03*
X012803Y000692D03*
X012927Y000580D03*
X013051Y000686D03*
X013565Y000639D03*
X013565Y000633D03*
X013689Y000828D03*
X013695Y000834D03*
X013701Y000845D03*
X013706Y000851D03*
X013712Y000863D03*
X013724Y000881D03*
X013730Y000893D03*
X013736Y000899D03*
X013860Y001087D03*
X013860Y001093D03*
X014132Y000692D03*
X014386Y000692D03*
X014392Y000698D03*
X014846Y000751D03*
X014846Y000757D03*
X015035Y001087D03*
X015035Y001093D03*
X015301Y001105D03*
X015301Y001111D03*
X015679Y001093D03*
X015679Y001087D03*
X015939Y001023D03*
X015945Y001028D03*
X016193Y001028D03*
X016199Y001023D03*
X016435Y001028D03*
X016441Y001034D03*
X016683Y001034D03*
X016689Y001028D03*
X017132Y001023D03*
X017132Y000704D03*
X016689Y000692D03*
X016683Y000686D03*
X016435Y000692D03*
X016069Y000580D03*
X015945Y000686D03*
X014657Y001099D03*
X014657Y001105D03*
X018029Y002534D03*
X018443Y001028D03*
X018443Y000692D03*
X018195Y000686D03*
X018189Y000692D03*
X019140Y000692D03*
X019140Y000698D03*
X019388Y000686D03*
X019394Y000692D03*
X019394Y001028D03*
X019388Y001034D03*
X019140Y001028D03*
D20*
X019382Y001040D03*
X019382Y000680D03*
X018431Y000680D03*
X018201Y000680D03*
X018437Y001034D03*
X017138Y001034D03*
X016677Y001040D03*
X016447Y001040D03*
X016069Y001141D03*
X015951Y001034D03*
X015673Y001064D03*
X015673Y001070D03*
X015307Y001076D03*
X015307Y001082D03*
X015307Y001087D03*
X015029Y001070D03*
X015029Y001064D03*
X014846Y000769D03*
X014846Y000763D03*
X014663Y001076D03*
X014663Y001082D03*
X014262Y000580D03*
X013854Y001070D03*
X013854Y001076D03*
X013571Y000656D03*
X013571Y000650D03*
X013045Y000680D03*
X012815Y000680D03*
X012815Y001040D03*
X012437Y001064D03*
X011114Y000680D03*
X010831Y001070D03*
X010831Y001076D03*
X010547Y000656D03*
X010547Y000650D03*
X010293Y000928D03*
X010057Y000680D03*
X015951Y000680D03*
X016447Y000680D03*
X016677Y000680D03*
X017138Y000692D03*
X018336Y002523D03*
D21*
X018351Y002528D03*
X018180Y001011D03*
X018174Y000999D03*
X018174Y000993D03*
X018168Y000975D03*
X018168Y000745D03*
X018174Y000727D03*
X018174Y000721D03*
X017944Y000745D03*
X017938Y000727D03*
X017938Y000721D03*
X017654Y000710D03*
X017648Y000721D03*
X017117Y000733D03*
X017117Y000739D03*
X017111Y000751D03*
X017111Y000757D03*
X017111Y000763D03*
X017111Y000963D03*
X017111Y000969D03*
X017111Y000975D03*
X017111Y000981D03*
X017117Y000987D03*
X017117Y000993D03*
X016709Y000981D03*
X016709Y000975D03*
X016709Y000969D03*
X016709Y000963D03*
X016704Y000987D03*
X016704Y000993D03*
X016704Y000999D03*
X016709Y000751D03*
X016709Y000745D03*
X016709Y000739D03*
X016709Y000733D03*
X016704Y000727D03*
X016704Y000721D03*
X016420Y000721D03*
X016420Y000715D03*
X016414Y000727D03*
X016414Y000733D03*
X016414Y000739D03*
X016219Y000757D03*
X016219Y000763D03*
X016213Y000733D03*
X016213Y000727D03*
X016219Y000958D03*
X016219Y000963D03*
X016213Y000987D03*
X016213Y000993D03*
X016213Y000999D03*
X016207Y001011D03*
X016414Y000993D03*
X016414Y000987D03*
X016414Y000981D03*
X016420Y000999D03*
X016420Y001005D03*
X015930Y001005D03*
X015924Y000993D03*
X015924Y000987D03*
X015924Y000981D03*
X015918Y000958D03*
X015918Y000763D03*
X015924Y000739D03*
X015924Y000733D03*
X015924Y000727D03*
X015930Y000715D03*
X015570Y000887D03*
X015564Y000875D03*
X015558Y000863D03*
X015493Y000739D03*
X015493Y000733D03*
X015688Y001129D03*
X015688Y001135D03*
X015292Y001141D03*
X015292Y001147D03*
X015044Y001129D03*
X015044Y001123D03*
X014778Y000869D03*
X014648Y001141D03*
X014648Y001147D03*
X014412Y000745D03*
X014406Y000727D03*
X014406Y000721D03*
X014117Y000721D03*
X014117Y000715D03*
X014111Y000733D03*
X014111Y000739D03*
X013869Y001117D03*
X013869Y001123D03*
X013556Y000609D03*
X013556Y000603D03*
X013072Y000727D03*
X013072Y000733D03*
X013078Y000952D03*
X013078Y000958D03*
X013072Y000981D03*
X013072Y000987D03*
X013072Y000993D03*
X012788Y001005D03*
X012782Y000993D03*
X012782Y000987D03*
X012782Y000733D03*
X012782Y000727D03*
X012788Y000715D03*
X012611Y000633D03*
X012611Y000627D03*
X012617Y000615D03*
X012617Y000609D03*
X012623Y000597D03*
X012623Y000591D03*
X012629Y000580D03*
X012605Y000645D03*
X012599Y000662D03*
X012263Y000633D03*
X012257Y000615D03*
X012251Y000597D03*
X012245Y000586D03*
X012245Y000580D03*
X012440Y001105D03*
X012440Y001111D03*
X011377Y000987D03*
X011377Y000981D03*
X011371Y000993D03*
X011371Y000999D03*
X011377Y000739D03*
X011377Y000733D03*
X011371Y000727D03*
X011371Y000721D03*
X011087Y000721D03*
X011081Y000733D03*
X011081Y000739D03*
X011081Y000975D03*
X011081Y000981D03*
X011081Y000987D03*
X011087Y000993D03*
X011087Y000999D03*
X010845Y001117D03*
X010845Y001123D03*
X010308Y001023D03*
X010302Y001028D03*
X010314Y000958D03*
X010308Y000946D03*
X010036Y000780D03*
X010030Y000774D03*
X010030Y000769D03*
X010030Y000715D03*
X010036Y000704D03*
X010532Y000609D03*
X010532Y000603D03*
X018457Y000721D03*
X018463Y000733D03*
X018463Y000739D03*
X018463Y000981D03*
X018463Y000987D03*
X018463Y000993D03*
X018457Y000999D03*
X018457Y001005D03*
X019119Y000987D03*
X019125Y000999D03*
X019119Y000739D03*
X019119Y000733D03*
X019125Y000721D03*
X019408Y000721D03*
X019408Y000727D03*
X019414Y000733D03*
X019414Y000739D03*
X019414Y000745D03*
X019414Y000975D03*
X019414Y000981D03*
X019414Y000987D03*
X019408Y000993D03*
X019408Y000999D03*
D22*
X019267Y001135D03*
X019367Y000674D03*
X018416Y000674D03*
X017891Y000674D03*
X017796Y000586D03*
X018221Y001046D03*
X018316Y001135D03*
X016662Y000674D03*
X016562Y001135D03*
X016166Y001046D03*
X016072Y001135D03*
X015971Y001046D03*
X015658Y001011D03*
X015658Y001005D03*
X015493Y000798D03*
X015493Y000792D03*
X015322Y001017D03*
X015322Y001023D03*
X015015Y001011D03*
X015015Y001005D03*
X014678Y001011D03*
X014678Y001017D03*
X014359Y000674D03*
X013839Y001023D03*
X013839Y001028D03*
X013585Y000698D03*
X013024Y001046D03*
X012930Y001135D03*
X012830Y001046D03*
X012440Y001028D03*
X012440Y001023D03*
X011324Y001046D03*
X011229Y001135D03*
X010816Y001028D03*
X010562Y000704D03*
X010562Y000698D03*
X010190Y000580D03*
D23*
X010284Y000674D03*
X010278Y000922D03*
X010166Y001141D03*
X010556Y000680D03*
X010822Y001046D03*
X011129Y000674D03*
X011229Y000586D03*
X012440Y001040D03*
X013580Y000680D03*
X013845Y001046D03*
X014672Y001046D03*
X014672Y001040D03*
X015020Y001034D03*
X015020Y001028D03*
X015316Y001040D03*
X015316Y001046D03*
X015493Y000786D03*
X015493Y000780D03*
X015664Y001028D03*
X015664Y001034D03*
X016562Y000586D03*
X018316Y000586D03*
X019267Y000586D03*
X018044Y002528D03*
D24*
X018316Y001105D03*
X018316Y000615D03*
X019267Y000615D03*
X019267Y001105D03*
X017324Y000586D03*
X016562Y000615D03*
X016066Y000615D03*
X012924Y000615D03*
X011229Y000615D03*
X011229Y001105D03*
X010196Y000597D03*
D25*
X010559Y000686D03*
X010559Y000692D03*
X010819Y001034D03*
X010819Y001040D03*
X011132Y001046D03*
X011327Y000674D03*
X012437Y001034D03*
X012827Y000674D03*
X012927Y000586D03*
X013027Y000674D03*
X013582Y000686D03*
X013582Y000692D03*
X013842Y001034D03*
X013842Y001040D03*
X014161Y000674D03*
X014262Y000586D03*
X014846Y000786D03*
X014846Y000792D03*
X015018Y001017D03*
X015018Y001023D03*
X015319Y001028D03*
X015319Y001034D03*
X015661Y001023D03*
X015661Y001017D03*
X015968Y000674D03*
X016069Y000586D03*
X016169Y000674D03*
X016464Y000674D03*
X016464Y001046D03*
X017693Y000674D03*
X018218Y000674D03*
X019169Y000674D03*
X019169Y001046D03*
X019364Y001046D03*
X014675Y001034D03*
X014675Y001028D03*
X014675Y001023D03*
D26*
X015050Y001147D03*
X015493Y000727D03*
X015493Y000721D03*
X015694Y000887D03*
X013875Y001135D03*
X013875Y001141D03*
X013550Y000591D03*
X013550Y000586D03*
X012552Y000798D03*
X012546Y000816D03*
X012522Y000881D03*
X012517Y000899D03*
X012511Y000916D03*
X012505Y000934D03*
X012499Y000952D03*
X012375Y000952D03*
X012375Y000946D03*
X012369Y000940D03*
X012369Y000934D03*
X012369Y000928D03*
X012363Y000922D03*
X012363Y000916D03*
X012363Y000910D03*
X012357Y000904D03*
X012357Y000899D03*
X012357Y000893D03*
X012351Y000887D03*
X012351Y000881D03*
X012345Y000869D03*
X012345Y000863D03*
X012339Y000851D03*
X012339Y000845D03*
X012333Y000834D03*
X012328Y000816D03*
X012322Y000798D03*
X012316Y000780D03*
X012440Y001123D03*
X010851Y001135D03*
X010851Y001141D03*
X010320Y000987D03*
X010320Y000981D03*
X010314Y000999D03*
X010314Y001005D03*
X010078Y001046D03*
X010526Y000591D03*
X010526Y000586D03*
X017643Y000745D03*
D27*
X017645Y000739D03*
X017645Y000733D03*
X017645Y000727D03*
X017941Y000733D03*
X017941Y000739D03*
X018171Y000739D03*
X018171Y000733D03*
X018171Y000981D03*
X018171Y000987D03*
X018466Y000975D03*
X018466Y000969D03*
X018466Y000963D03*
X018466Y000958D03*
X018466Y000952D03*
X018466Y000946D03*
X018466Y000940D03*
X018466Y000774D03*
X018466Y000769D03*
X018466Y000763D03*
X018466Y000757D03*
X018466Y000751D03*
X018466Y000745D03*
X019116Y000745D03*
X019116Y000751D03*
X019122Y000727D03*
X019116Y000969D03*
X019116Y000975D03*
X019116Y000981D03*
X019122Y000993D03*
X018018Y002540D03*
X016411Y000975D03*
X016411Y000969D03*
X016216Y000969D03*
X016216Y000975D03*
X016216Y000981D03*
X016216Y000751D03*
X016216Y000745D03*
X016216Y000739D03*
X016411Y000745D03*
X016411Y000751D03*
X015921Y000751D03*
X015921Y000757D03*
X015921Y000745D03*
X015921Y000963D03*
X015921Y000969D03*
X015921Y000975D03*
X015691Y001141D03*
X015691Y001147D03*
X015567Y000881D03*
X015561Y000869D03*
X015555Y000857D03*
X015431Y000857D03*
X015425Y000863D03*
X015425Y000869D03*
X015419Y000875D03*
X015419Y000881D03*
X015047Y001135D03*
X015047Y001141D03*
X014923Y000887D03*
X014923Y000881D03*
X014917Y000875D03*
X014917Y000869D03*
X014911Y000863D03*
X014911Y000857D03*
X014781Y000857D03*
X014781Y000863D03*
X014775Y000875D03*
X014775Y000881D03*
X014769Y000887D03*
X014769Y000893D03*
X014846Y000733D03*
X014846Y000727D03*
X014409Y000733D03*
X014409Y000739D03*
X014114Y000727D03*
X014108Y000745D03*
X013872Y001129D03*
X013553Y000597D03*
X013075Y000739D03*
X013075Y000745D03*
X013075Y000751D03*
X013075Y000757D03*
X013075Y000963D03*
X013075Y000969D03*
X013075Y000975D03*
X012779Y000975D03*
X012779Y000969D03*
X012779Y000981D03*
X012779Y000751D03*
X012779Y000745D03*
X012779Y000739D03*
X012596Y000674D03*
X012596Y000668D03*
X012602Y000656D03*
X012602Y000650D03*
X012608Y000639D03*
X012614Y000621D03*
X012620Y000603D03*
X012626Y000586D03*
X012561Y000774D03*
X012561Y000780D03*
X012555Y000786D03*
X012555Y000792D03*
X012549Y000804D03*
X012549Y000810D03*
X012543Y000822D03*
X012543Y000828D03*
X012537Y000834D03*
X012537Y000839D03*
X012537Y000845D03*
X012531Y000851D03*
X012531Y000857D03*
X012531Y000863D03*
X012525Y000869D03*
X012525Y000875D03*
X012519Y000887D03*
X012519Y000893D03*
X012514Y000904D03*
X012514Y000910D03*
X012508Y000922D03*
X012508Y000928D03*
X012502Y000940D03*
X012502Y000946D03*
X012496Y000958D03*
X012348Y000875D03*
X012342Y000857D03*
X012336Y000839D03*
X012331Y000828D03*
X012331Y000822D03*
X012325Y000810D03*
X012325Y000804D03*
X012319Y000792D03*
X012319Y000786D03*
X012313Y000774D03*
X012277Y000674D03*
X012277Y000668D03*
X012271Y000662D03*
X012271Y000656D03*
X012271Y000650D03*
X012266Y000645D03*
X012266Y000639D03*
X012260Y000627D03*
X012260Y000621D03*
X012254Y000609D03*
X012254Y000603D03*
X012248Y000591D03*
X012437Y001117D03*
X011380Y000975D03*
X010848Y001129D03*
X010317Y000993D03*
X010317Y000975D03*
X010317Y000969D03*
X010317Y000963D03*
X010311Y000952D03*
X010311Y001011D03*
X010311Y001017D03*
X010169Y001147D03*
X010027Y000763D03*
X010027Y000757D03*
X010027Y000751D03*
X010027Y000745D03*
X010027Y000739D03*
X010027Y000733D03*
X010027Y000727D03*
X010027Y000721D03*
X010033Y000710D03*
X010529Y000597D03*
X017108Y000769D03*
X017108Y000774D03*
X017108Y000780D03*
X017108Y000786D03*
X017108Y000792D03*
X017108Y000798D03*
X017108Y000804D03*
X017108Y000810D03*
X017108Y000816D03*
X017108Y000822D03*
X017108Y000828D03*
X017108Y000834D03*
X017108Y000839D03*
X017108Y000845D03*
X017108Y000851D03*
X017108Y000857D03*
X017108Y000863D03*
X017108Y000869D03*
X017108Y000875D03*
X017108Y000881D03*
X017108Y000887D03*
X017108Y000893D03*
X017108Y000899D03*
X017108Y000904D03*
X017108Y000910D03*
X017108Y000916D03*
X017108Y000922D03*
X017108Y000928D03*
X017108Y000934D03*
X017108Y000940D03*
X017108Y000946D03*
X017108Y000952D03*
X017108Y000958D03*
X017114Y000745D03*
D28*
X016559Y000597D03*
X016069Y000597D03*
X015638Y000916D03*
X015638Y000922D03*
X015342Y000928D03*
X015342Y000934D03*
X014994Y000922D03*
X014994Y000916D03*
X014846Y000839D03*
X014846Y000834D03*
X014699Y000922D03*
X014699Y000928D03*
X013819Y000963D03*
X013606Y000763D03*
X012927Y000597D03*
X012437Y000963D03*
X012437Y000969D03*
X011226Y000597D03*
X010795Y000963D03*
X010582Y000769D03*
X010582Y000763D03*
X010193Y000586D03*
X018313Y000597D03*
D29*
X019264Y000591D03*
X016559Y000591D03*
X016069Y000591D03*
X015649Y000969D03*
X015649Y000975D03*
X015331Y000975D03*
X015331Y000981D03*
X015006Y000975D03*
X015006Y000969D03*
X014846Y000816D03*
X014846Y000810D03*
X014687Y000975D03*
X014687Y000981D03*
X013831Y000999D03*
X013594Y000727D03*
X012927Y000591D03*
X012437Y000999D03*
X012437Y001005D03*
X011226Y000591D03*
X010807Y000999D03*
X010571Y000727D03*
D30*
X010574Y000733D03*
X010574Y000739D03*
X010804Y000987D03*
X010804Y000993D03*
X011229Y001129D03*
X010166Y001135D03*
X012440Y000993D03*
X013597Y000739D03*
X013597Y000733D03*
X013828Y000987D03*
X013828Y000993D03*
X014690Y000969D03*
X014690Y000963D03*
X015003Y000963D03*
X015003Y000958D03*
X015003Y000952D03*
X015333Y000963D03*
X015333Y000969D03*
X015493Y000822D03*
X015493Y000816D03*
X015646Y000952D03*
X015646Y000958D03*
X015646Y000963D03*
X016562Y001129D03*
X017796Y000591D03*
X018316Y000591D03*
X018316Y001129D03*
X019267Y001129D03*
X018062Y002523D03*
D31*
X018319Y001099D03*
X017315Y000591D03*
X016559Y001099D03*
X016069Y001099D03*
X016069Y000621D03*
X014262Y000621D03*
X012927Y000621D03*
X012927Y001099D03*
X010210Y000899D03*
X010163Y001111D03*
X010193Y000603D03*
D32*
X010258Y000916D03*
X010577Y000745D03*
X010801Y000981D03*
X012437Y000981D03*
X012437Y000987D03*
X012927Y001129D03*
X013600Y000745D03*
X013825Y000981D03*
X014262Y000591D03*
X014693Y000946D03*
X014693Y000952D03*
X014693Y000958D03*
X014846Y000828D03*
X014846Y000822D03*
X015000Y000940D03*
X015000Y000946D03*
X015336Y000952D03*
X015336Y000958D03*
X015644Y000946D03*
X015644Y000940D03*
X016069Y001129D03*
D33*
X016069Y001117D03*
X016559Y001117D03*
X016069Y000603D03*
X017793Y000603D03*
X018319Y001117D03*
X019264Y001117D03*
X014262Y000603D03*
X013807Y000922D03*
X013807Y000928D03*
X013618Y000804D03*
X013618Y000798D03*
X012927Y000603D03*
X012927Y001117D03*
X010783Y000928D03*
X010783Y000922D03*
X010594Y000804D03*
X010594Y000798D03*
X010240Y000910D03*
X010104Y000816D03*
X010193Y000591D03*
X010949Y003910D03*
D34*
X010798Y000975D03*
X010798Y000969D03*
X010580Y000757D03*
X010580Y000751D03*
X012440Y000975D03*
X013603Y000757D03*
X013603Y000751D03*
X013822Y000969D03*
X013822Y000975D03*
X014696Y000940D03*
X014696Y000934D03*
X014997Y000934D03*
X014997Y000928D03*
X015339Y000940D03*
X015339Y000946D03*
X015493Y000834D03*
X015493Y000828D03*
X015641Y000928D03*
X015641Y000934D03*
X019267Y000597D03*
D35*
X019267Y001123D03*
X018316Y001123D03*
X017796Y000597D03*
X016562Y001123D03*
X016072Y001123D03*
X015635Y000910D03*
X015635Y000904D03*
X015493Y000845D03*
X015493Y000839D03*
X015345Y000910D03*
X015345Y000916D03*
X015345Y000922D03*
X014991Y000910D03*
X014991Y000904D03*
X014702Y000910D03*
X014702Y000916D03*
X014265Y000597D03*
X013816Y000952D03*
X013816Y000958D03*
X013609Y000774D03*
X013609Y000769D03*
X012930Y001123D03*
X011229Y001123D03*
X010792Y000958D03*
X010792Y000952D03*
X010585Y000774D03*
D36*
X010196Y000887D03*
X010154Y000845D03*
X010196Y000609D03*
X010160Y001105D03*
X011229Y000633D03*
X017306Y000597D03*
X017796Y000627D03*
X017306Y001129D03*
X019267Y001093D03*
X019267Y000633D03*
D37*
X019267Y000603D03*
X018316Y000603D03*
X016562Y000603D03*
X015493Y000851D03*
X015351Y000887D03*
X015351Y000893D03*
X013810Y000934D03*
X013615Y000792D03*
X011229Y000603D03*
X010786Y000934D03*
X010786Y000940D03*
X010591Y000792D03*
X011229Y001117D03*
D38*
X010955Y001832D03*
X010187Y000881D03*
X010181Y000875D03*
X010175Y000869D03*
X010169Y000863D03*
X010163Y000857D03*
X010157Y000851D03*
X012927Y000633D03*
X012927Y001087D03*
X014262Y000633D03*
X016069Y000633D03*
X016069Y001087D03*
X016559Y000633D03*
X017303Y000603D03*
X018319Y000633D03*
X018319Y001087D03*
X019269Y001087D03*
D39*
X019264Y000609D03*
X016559Y000609D03*
X016069Y000609D03*
X013801Y000910D03*
X013624Y000816D03*
X012927Y000609D03*
X011226Y000609D03*
X010777Y000910D03*
X010163Y001123D03*
D40*
X010119Y000822D03*
X011229Y001111D03*
X012924Y001111D03*
X016072Y001111D03*
X016562Y001111D03*
X018316Y001111D03*
X018316Y000609D03*
X019267Y001111D03*
D41*
X017793Y000609D03*
X014262Y000609D03*
X010222Y000904D03*
D42*
X010193Y000615D03*
X012927Y000639D03*
X012927Y001082D03*
X014262Y000639D03*
X016069Y000639D03*
X016069Y001082D03*
X017297Y001117D03*
X017297Y000609D03*
X017793Y000639D03*
X018319Y000639D03*
X018319Y001082D03*
X019269Y001082D03*
D43*
X017793Y000615D03*
X017321Y001141D03*
X016559Y001105D03*
X016069Y001105D03*
X014262Y000615D03*
X012927Y001105D03*
X010163Y001117D03*
D44*
X010160Y001093D03*
X011229Y001076D03*
X011229Y000645D03*
X016562Y000645D03*
X016562Y001076D03*
X017294Y000615D03*
X019267Y000645D03*
X019267Y001076D03*
D45*
X019267Y001099D03*
X019267Y000621D03*
X018316Y000621D03*
X016562Y000621D03*
X011229Y000621D03*
X011229Y001099D03*
X010131Y000828D03*
D46*
X010137Y000834D03*
X010202Y000893D03*
X011229Y001093D03*
X011229Y000627D03*
X017312Y001135D03*
X017796Y000621D03*
X018316Y000627D03*
X019267Y000627D03*
D47*
X019267Y000650D03*
X019267Y001070D03*
X018316Y001070D03*
X018316Y000650D03*
X017288Y000621D03*
X017288Y001105D03*
X016562Y001070D03*
X016562Y000650D03*
X016072Y001070D03*
X012930Y001070D03*
X012930Y000650D03*
X011229Y000650D03*
X011229Y001070D03*
X010178Y001064D03*
X010172Y001070D03*
X010160Y001087D03*
X010196Y000621D03*
D48*
X010042Y000692D03*
X010042Y000792D03*
X010296Y001040D03*
X010662Y000822D03*
X010674Y000839D03*
X010680Y000851D03*
X010686Y000857D03*
X010692Y000869D03*
X010704Y000887D03*
X010715Y000904D03*
X010839Y001099D03*
X010839Y001105D03*
X011099Y001023D03*
X011359Y001023D03*
X011365Y001017D03*
X011365Y000704D03*
X011359Y000698D03*
X011099Y000698D03*
X010538Y000627D03*
X012440Y001087D03*
X012440Y001093D03*
X012794Y001017D03*
X013054Y001028D03*
X013060Y001023D03*
X013060Y001017D03*
X013060Y000704D03*
X013060Y000698D03*
X013054Y000692D03*
X012800Y000698D03*
X012794Y000704D03*
X013562Y000627D03*
X013562Y000621D03*
X013686Y000822D03*
X013698Y000839D03*
X013709Y000857D03*
X013715Y000869D03*
X013721Y000875D03*
X013727Y000887D03*
X013739Y000904D03*
X013863Y001099D03*
X014129Y000698D03*
X014654Y001111D03*
X014654Y001117D03*
X014654Y001123D03*
X015038Y001105D03*
X015038Y001099D03*
X015298Y001117D03*
X015298Y001123D03*
X015682Y001111D03*
X015682Y001105D03*
X015682Y001099D03*
X015936Y001017D03*
X016432Y001023D03*
X016692Y001023D03*
X017123Y001011D03*
X017129Y001017D03*
X017123Y000715D03*
X017129Y000710D03*
X016698Y000704D03*
X016692Y000698D03*
X016432Y000698D03*
X016426Y000704D03*
X016202Y000698D03*
X016196Y000692D03*
X015942Y000692D03*
X015936Y000698D03*
X015936Y000704D03*
X015493Y000745D03*
X015493Y000751D03*
X017660Y000704D03*
X017660Y000698D03*
X017666Y000692D03*
X017926Y000698D03*
X018186Y000698D03*
X018446Y000698D03*
X018452Y000704D03*
X018452Y001017D03*
X018446Y001023D03*
X018186Y001023D03*
X019137Y001023D03*
X019396Y001023D03*
X019396Y000698D03*
D49*
X017793Y000650D03*
X017285Y000627D03*
X017285Y001099D03*
X016069Y001064D03*
X016069Y000656D03*
X016069Y000650D03*
X014262Y000650D03*
X014262Y000656D03*
X012927Y000656D03*
X012927Y001064D03*
X010169Y001076D03*
X010163Y001082D03*
X010949Y003904D03*
D50*
X012927Y001093D03*
X012927Y000627D03*
X014262Y000627D03*
X016069Y000627D03*
X016069Y001093D03*
X016559Y001093D03*
X016559Y000627D03*
X018319Y001093D03*
X010145Y000839D03*
D51*
X010196Y000627D03*
X011229Y000656D03*
X011229Y000662D03*
X011229Y001058D03*
X011229Y001064D03*
X016562Y001064D03*
X016562Y001058D03*
X016562Y000662D03*
X016562Y000656D03*
X017282Y000633D03*
X017796Y000656D03*
X018316Y000656D03*
X018316Y001064D03*
X019267Y001064D03*
X019267Y001058D03*
X019267Y000662D03*
X019267Y000656D03*
X017282Y001093D03*
D52*
X017300Y001123D03*
X017796Y000633D03*
X016562Y000639D03*
X016562Y001082D03*
X016562Y001087D03*
X019267Y000639D03*
X011229Y000639D03*
X011229Y001082D03*
X011229Y001087D03*
X010160Y001099D03*
D53*
X010196Y000633D03*
X011229Y000668D03*
X011229Y001052D03*
X012930Y001052D03*
X012930Y000668D03*
X016072Y000668D03*
X016072Y001052D03*
X016562Y001052D03*
X016562Y000668D03*
X017276Y000645D03*
X017276Y001082D03*
X018316Y001052D03*
X018316Y000668D03*
X019267Y000668D03*
X019267Y001052D03*
D54*
X018319Y001058D03*
X018319Y000662D03*
X017793Y000662D03*
X017279Y000639D03*
X017279Y001087D03*
X016069Y001058D03*
X016069Y000662D03*
X014262Y000662D03*
X012927Y000662D03*
X012437Y000769D03*
X012927Y001058D03*
X018490Y001837D03*
D55*
X017270Y001064D03*
X017270Y000662D03*
X010196Y000639D03*
D56*
X010187Y001052D03*
X010181Y001058D03*
X012927Y001076D03*
X012927Y000645D03*
X014262Y000645D03*
X016069Y000645D03*
X016069Y001076D03*
X017291Y001111D03*
X017793Y000645D03*
X018319Y000645D03*
X018319Y001076D03*
D57*
X017265Y000680D03*
X010196Y000650D03*
X010196Y000645D03*
X010190Y000656D03*
X010184Y000662D03*
D58*
X012437Y000751D03*
X012437Y000757D03*
X012437Y000763D03*
X014262Y000668D03*
X017273Y000656D03*
X017273Y000650D03*
X017793Y000668D03*
X017273Y001070D03*
X017273Y001076D03*
D59*
X017678Y000680D03*
X017908Y000680D03*
X018204Y001040D03*
X018428Y001040D03*
X019154Y001040D03*
X019154Y000680D03*
X016184Y000680D03*
X016184Y001040D03*
X015959Y001040D03*
X015670Y001052D03*
X015670Y001058D03*
X015493Y000774D03*
X015493Y000769D03*
X015310Y001064D03*
X015310Y001070D03*
X015026Y001058D03*
X015026Y001052D03*
X014666Y001064D03*
X014666Y001070D03*
X014146Y000680D03*
X013851Y001064D03*
X013574Y000662D03*
X013042Y001040D03*
X012440Y001058D03*
X011341Y001040D03*
X011117Y001040D03*
X010828Y001064D03*
X010550Y000662D03*
X010060Y000804D03*
X011341Y000680D03*
D60*
X012437Y000733D03*
X012437Y000739D03*
X012437Y000745D03*
X010181Y000668D03*
X017268Y000668D03*
X017268Y000674D03*
X017268Y001052D03*
X017268Y001058D03*
D61*
X017149Y001040D03*
X017149Y000686D03*
X015667Y001040D03*
X015667Y001046D03*
X015313Y001052D03*
X015313Y001058D03*
X015023Y001046D03*
X015023Y001040D03*
X014846Y000780D03*
X014846Y000774D03*
X014669Y001052D03*
X014669Y001058D03*
X014374Y000680D03*
X013848Y001052D03*
X013848Y001058D03*
X013577Y000674D03*
X013577Y000668D03*
X012437Y001046D03*
X012437Y001052D03*
X010825Y001052D03*
X010825Y001058D03*
X010553Y000674D03*
X010553Y000668D03*
D62*
X010565Y000710D03*
X010075Y000674D03*
X010813Y001017D03*
X010813Y001023D03*
X012437Y001017D03*
X013588Y000710D03*
X013588Y000704D03*
X013836Y001017D03*
X014681Y001005D03*
X014681Y000999D03*
X014846Y000804D03*
X014846Y000798D03*
X015012Y000993D03*
X015012Y000999D03*
X015325Y000999D03*
X015325Y001005D03*
X015325Y001011D03*
X015655Y000999D03*
X015655Y000993D03*
X016659Y001046D03*
X018413Y001046D03*
D63*
X012437Y000680D03*
X010949Y003899D03*
D64*
X012437Y000698D03*
X012437Y000692D03*
X012437Y000686D03*
D65*
X010311Y000692D03*
X010069Y001040D03*
X014846Y000698D03*
X015490Y000698D03*
X018000Y002552D03*
D66*
X017991Y002558D03*
X019060Y002038D03*
X010314Y000698D03*
X010066Y001034D03*
D67*
X012437Y001147D03*
X014846Y000710D03*
X014846Y000704D03*
X015490Y000704D03*
X015490Y000710D03*
D68*
X012437Y000710D03*
X012437Y000704D03*
D69*
X010317Y000704D03*
X010063Y001028D03*
X018390Y002570D03*
X019051Y002021D03*
D70*
X019042Y002003D03*
X018398Y002593D03*
X010320Y000710D03*
D71*
X010568Y000715D03*
X010568Y000721D03*
X010078Y000810D03*
X010810Y001005D03*
X010810Y001011D03*
X010957Y001826D03*
X012440Y001011D03*
X013591Y000721D03*
X013591Y000715D03*
X013833Y001005D03*
X013833Y001011D03*
X014684Y000993D03*
X014684Y000987D03*
X015009Y000987D03*
X015009Y000981D03*
X015328Y000987D03*
X015328Y000993D03*
X015493Y000810D03*
X015493Y000804D03*
X015652Y000981D03*
X015652Y000987D03*
X017164Y001046D03*
D72*
X012437Y000727D03*
X012437Y000721D03*
X012437Y000715D03*
X010955Y001837D03*
D73*
X010060Y001017D03*
X010320Y000715D03*
X019036Y001991D03*
D74*
X010320Y000721D03*
X010060Y001011D03*
D75*
X010163Y001129D03*
X010588Y000786D03*
X010588Y000780D03*
X010789Y000946D03*
X013612Y000786D03*
X013612Y000780D03*
X013813Y000940D03*
X013813Y000946D03*
X014705Y000904D03*
X014705Y000899D03*
X014846Y000851D03*
X014846Y000845D03*
X014988Y000893D03*
X014988Y000899D03*
X015348Y000899D03*
X015348Y000904D03*
X015632Y000899D03*
X015632Y000893D03*
D76*
X017976Y002570D03*
X018395Y002582D03*
X018395Y002587D03*
X019045Y002009D03*
X010063Y001023D03*
D77*
X018487Y001843D03*
D78*
X010955Y001843D03*
D79*
X018490Y001849D03*
D80*
X010955Y001849D03*
D81*
X010952Y003887D03*
X018487Y001855D03*
D82*
X010957Y001855D03*
D83*
X010949Y003881D03*
X018484Y001861D03*
D84*
X010957Y001861D03*
D85*
X010949Y003875D03*
X018484Y001867D03*
D86*
X010957Y001867D03*
D87*
X010952Y003869D03*
X018481Y001873D03*
D88*
X010955Y001873D03*
D89*
X010949Y003863D03*
X018478Y001879D03*
D90*
X010957Y001879D03*
D91*
X018475Y001885D03*
D92*
X011678Y002847D03*
X011678Y002853D03*
X011678Y002859D03*
X011678Y002865D03*
X011678Y002871D03*
X011678Y002877D03*
X011678Y002883D03*
X011678Y002889D03*
X011678Y002895D03*
X010957Y001885D03*
D93*
X010243Y002747D03*
X010243Y002753D03*
X010237Y002765D03*
X010237Y002771D03*
X010237Y002776D03*
X010237Y002782D03*
X010237Y002788D03*
X010231Y002883D03*
X010231Y002889D03*
X010231Y002895D03*
X010231Y002900D03*
X010237Y002936D03*
X010237Y002942D03*
X010237Y002948D03*
X010237Y002954D03*
X010237Y002960D03*
X011666Y002965D03*
X011666Y002971D03*
X011666Y002977D03*
X011666Y002983D03*
X011672Y002942D03*
X011672Y002800D03*
X011672Y002794D03*
X011672Y002788D03*
X011672Y002782D03*
X011666Y002776D03*
X011666Y002771D03*
X011666Y002765D03*
X011666Y002759D03*
X018475Y001891D03*
D94*
X011648Y002694D03*
X011643Y003060D03*
X011643Y003066D03*
X010261Y003048D03*
X010261Y002688D03*
X010261Y002682D03*
X010267Y002676D03*
X010267Y002670D03*
X010957Y001891D03*
D95*
X010269Y002664D03*
X010264Y003054D03*
X010264Y003060D03*
X010269Y003066D03*
X010269Y003072D03*
X011634Y003078D03*
X011634Y003084D03*
X011640Y003072D03*
X011645Y002688D03*
X011645Y002682D03*
X011640Y002676D03*
X011640Y002670D03*
X018472Y001897D03*
D96*
X011622Y002635D03*
X011616Y003119D03*
X010287Y003107D03*
X010293Y002617D03*
X010955Y001897D03*
D97*
X010296Y002611D03*
X010290Y003113D03*
X011607Y003131D03*
X011613Y003125D03*
X011619Y002629D03*
X018475Y001902D03*
D98*
X011601Y002599D03*
X011595Y002593D03*
X010957Y001902D03*
X010320Y002582D03*
X010314Y003149D03*
D99*
X010317Y003154D03*
X010323Y002576D03*
X011592Y002587D03*
X011586Y003160D03*
X018472Y001908D03*
D100*
X018472Y001914D03*
X010955Y001908D03*
X010334Y003172D03*
D101*
X011554Y002546D03*
X010957Y001914D03*
D102*
X010358Y002540D03*
X010352Y003190D03*
X011551Y003196D03*
X018472Y001920D03*
D103*
X011536Y002534D03*
X011530Y003208D03*
X010957Y001920D03*
D104*
X010367Y002534D03*
X011542Y003202D03*
X018469Y001926D03*
D105*
X010955Y001926D03*
X010388Y003213D03*
D106*
X010379Y003208D03*
X018469Y001932D03*
D107*
X018475Y001950D03*
X010957Y001932D03*
X010408Y003219D03*
D108*
X018469Y001938D03*
D109*
X018487Y001967D03*
X010957Y001938D03*
D110*
X011513Y002523D03*
X010952Y003810D03*
X018469Y001944D03*
D111*
X010957Y001944D03*
D112*
X010957Y001950D03*
D113*
X018478Y001956D03*
D114*
X010957Y001956D03*
D115*
X010417Y002517D03*
X018484Y001961D03*
D116*
X010957Y001961D03*
X010952Y003774D03*
D117*
X010957Y001967D03*
D118*
X010957Y001973D03*
D119*
X010957Y001979D03*
D120*
X010957Y001985D03*
D121*
X010957Y001991D03*
D122*
X010957Y001997D03*
D123*
X010957Y002003D03*
D124*
X010957Y002009D03*
D125*
X010957Y002015D03*
D126*
X010957Y002021D03*
D127*
X010957Y002026D03*
D128*
X010957Y002032D03*
D129*
X010955Y002038D03*
D130*
X010957Y002044D03*
D131*
X010957Y002050D03*
D132*
X010955Y002056D03*
D133*
X010957Y002062D03*
D134*
X010957Y002068D03*
D135*
X010957Y002074D03*
X010952Y003668D03*
D136*
X010955Y002080D03*
D137*
X010957Y002086D03*
D138*
X010957Y002091D03*
D139*
X010957Y002097D03*
D140*
X010957Y002103D03*
D141*
X010955Y002109D03*
D142*
X010955Y002115D03*
D143*
X010955Y002121D03*
X010949Y003621D03*
D144*
X010949Y003615D03*
X010955Y002127D03*
D145*
X010955Y002133D03*
X010949Y003609D03*
D146*
X010949Y003603D03*
X010955Y002139D03*
D147*
X010955Y002145D03*
X010949Y003597D03*
D148*
X010949Y003591D03*
X010955Y002150D03*
D149*
X010955Y002156D03*
X010949Y003586D03*
D150*
X010949Y003580D03*
X010955Y002162D03*
D151*
X010955Y002168D03*
X010949Y003574D03*
D152*
X010949Y003568D03*
X010955Y002174D03*
D153*
X010955Y002180D03*
X010949Y003562D03*
D154*
X010955Y002186D03*
D155*
X010957Y002192D03*
X010952Y003550D03*
D156*
X010957Y002198D03*
D157*
X010957Y002204D03*
D158*
X010957Y002210D03*
D159*
X010955Y002215D03*
X010949Y003526D03*
D160*
X010949Y003521D03*
X010955Y002221D03*
D161*
X010955Y002227D03*
D162*
X010957Y002233D03*
X010952Y003509D03*
D163*
X010957Y002239D03*
D164*
X010955Y002245D03*
X010949Y003497D03*
D165*
X010955Y002251D03*
D166*
X010957Y002257D03*
X010952Y003485D03*
D167*
X010957Y002263D03*
D168*
X010955Y002269D03*
X010949Y003473D03*
D169*
X010955Y002274D03*
D170*
X010957Y002280D03*
X010952Y003461D03*
D171*
X010952Y003450D03*
X010957Y002286D03*
D172*
X010955Y002292D03*
D173*
X010957Y002298D03*
X010952Y003444D03*
D174*
X010952Y003432D03*
X010957Y002304D03*
D175*
X010955Y002310D03*
D176*
X010957Y002316D03*
X010952Y003426D03*
D177*
X010952Y003414D03*
X010957Y002322D03*
D178*
X010955Y002328D03*
D179*
X010957Y002334D03*
X010952Y003402D03*
X010952Y003408D03*
D180*
X010952Y003397D03*
X010957Y002339D03*
D181*
X010955Y002345D03*
D182*
X010957Y002351D03*
X010952Y003385D03*
X010952Y003391D03*
D183*
X010955Y002357D03*
D184*
X010957Y002363D03*
X010952Y003373D03*
X010952Y003379D03*
D185*
X010952Y003367D03*
X010952Y003361D03*
X010957Y002369D03*
D186*
X010955Y002375D03*
D187*
X010957Y002381D03*
X010952Y003355D03*
D188*
X010952Y003739D03*
X018599Y002387D03*
D189*
X010955Y002387D03*
D190*
X010957Y002393D03*
X010952Y003343D03*
X010952Y003349D03*
D191*
X010955Y002399D03*
D192*
X010957Y002404D03*
X010952Y003332D03*
X010952Y003337D03*
D193*
X010955Y002410D03*
D194*
X010957Y002416D03*
X010952Y003320D03*
X010952Y003326D03*
D195*
X010955Y002422D03*
D196*
X010957Y002428D03*
X010952Y003308D03*
X010952Y003314D03*
D197*
X010955Y002434D03*
D198*
X010957Y002440D03*
X010952Y003296D03*
X010952Y003302D03*
D199*
X010955Y002446D03*
D200*
X010957Y002452D03*
X010952Y003278D03*
X010952Y003284D03*
X010952Y003290D03*
D201*
X010955Y002458D03*
D202*
X010957Y002463D03*
X010952Y003267D03*
X010952Y003273D03*
D203*
X010955Y002469D03*
D204*
X010957Y002475D03*
X010957Y002481D03*
X010952Y003255D03*
X010952Y003261D03*
D205*
X010955Y003249D03*
X010955Y002487D03*
D206*
X010957Y002493D03*
X010952Y003237D03*
X010952Y003243D03*
D207*
X010955Y002505D03*
X010955Y002499D03*
D208*
X010957Y002511D03*
X010952Y003225D03*
X010952Y003231D03*
D209*
X010952Y003798D03*
X011483Y002517D03*
D210*
X010391Y002523D03*
D211*
X011527Y002528D03*
X011521Y003213D03*
X010949Y003816D03*
D212*
X010376Y002528D03*
D213*
X010370Y003202D03*
X010949Y003822D03*
X011545Y002540D03*
D214*
X011560Y002552D03*
X010349Y002546D03*
X010952Y003828D03*
D215*
X011566Y003184D03*
X011572Y002564D03*
X010343Y002552D03*
X010337Y003178D03*
D216*
X010346Y003184D03*
X011557Y003190D03*
X011569Y002558D03*
D217*
X011578Y002570D03*
X011572Y003178D03*
X010337Y002558D03*
X010331Y002564D03*
D218*
X017985Y002564D03*
X018387Y002564D03*
X019054Y002026D03*
D219*
X011589Y002582D03*
X011583Y003166D03*
X011578Y003172D03*
X010326Y002570D03*
D220*
X017970Y002576D03*
X019039Y001997D03*
X019134Y002109D03*
D221*
X011581Y002576D03*
X010329Y003166D03*
X010323Y003160D03*
X010949Y003834D03*
D222*
X017964Y002582D03*
X019033Y001985D03*
X019128Y002091D03*
D223*
X011604Y002605D03*
X011592Y003154D03*
X010311Y003143D03*
X010305Y003137D03*
X010311Y002587D03*
D224*
X010308Y002593D03*
X010302Y003131D03*
X010952Y003839D03*
X011595Y003149D03*
X011601Y003143D03*
X011607Y002611D03*
D225*
X011610Y002617D03*
X011616Y002623D03*
X011604Y003137D03*
X010299Y003125D03*
X010293Y003119D03*
X010299Y002605D03*
X010305Y002599D03*
D226*
X010290Y002623D03*
X010284Y002629D03*
X010284Y002635D03*
X010284Y003101D03*
X011619Y003113D03*
X011625Y002641D03*
D227*
X011628Y002647D03*
X011634Y002652D03*
X011634Y002658D03*
X011628Y003095D03*
X011622Y003107D03*
X010949Y003845D03*
X010281Y003095D03*
X010275Y003089D03*
X010275Y003084D03*
X010281Y002641D03*
D228*
X010278Y002647D03*
X010272Y002652D03*
X010272Y002658D03*
X010272Y003078D03*
X011625Y003101D03*
X011631Y003089D03*
X011637Y002664D03*
D229*
X011651Y002700D03*
X011651Y002706D03*
X011657Y002723D03*
X011651Y003036D03*
X011651Y003042D03*
X011645Y003048D03*
X011645Y003054D03*
X010258Y003042D03*
X010258Y003036D03*
X010252Y003030D03*
X010252Y003024D03*
X010252Y003019D03*
X010258Y002694D03*
D230*
X010255Y002700D03*
X010255Y002706D03*
X010255Y002711D03*
X010249Y002717D03*
X010249Y002723D03*
X010243Y002983D03*
X010249Y003007D03*
X010249Y003013D03*
X011654Y003024D03*
X011654Y003030D03*
X011660Y002735D03*
X011660Y002729D03*
X011654Y002717D03*
X011654Y002711D03*
D231*
X011663Y002741D03*
X011663Y002747D03*
X011663Y002753D03*
X011663Y002989D03*
X011663Y002995D03*
X011663Y003001D03*
X011657Y003007D03*
X011657Y003013D03*
X011657Y003019D03*
X010949Y003851D03*
X010246Y003001D03*
X010246Y002995D03*
X010246Y002989D03*
X010240Y002977D03*
X010240Y002971D03*
X010240Y002965D03*
X010240Y002759D03*
X010246Y002741D03*
X010246Y002735D03*
X010246Y002729D03*
D232*
X010234Y002794D03*
X010234Y002800D03*
X010234Y002806D03*
X010234Y002812D03*
X010234Y002818D03*
X010234Y002824D03*
X010234Y002830D03*
X010234Y002836D03*
X010228Y002841D03*
X010228Y002847D03*
X010228Y002853D03*
X010228Y002859D03*
X010228Y002865D03*
X010228Y002871D03*
X010228Y002877D03*
X010234Y002906D03*
X010234Y002912D03*
X010234Y002918D03*
X010234Y002924D03*
X010234Y002930D03*
X011669Y002948D03*
X011669Y002954D03*
X011669Y002960D03*
X011675Y002936D03*
X011675Y002930D03*
X011675Y002924D03*
X011675Y002918D03*
X011675Y002912D03*
X011675Y002906D03*
X011675Y002900D03*
X011675Y002841D03*
X011675Y002836D03*
X011675Y002830D03*
X011675Y002824D03*
X011675Y002818D03*
X011675Y002812D03*
X011675Y002806D03*
D233*
X010358Y003196D03*
D234*
X011498Y003219D03*
D235*
X010949Y003420D03*
D236*
X010949Y003438D03*
D237*
X010949Y003456D03*
D238*
X010952Y003467D03*
D239*
X010949Y003479D03*
D240*
X010952Y003491D03*
D241*
X010949Y003503D03*
D242*
X010952Y003515D03*
D243*
X010949Y003532D03*
D244*
X010949Y003538D03*
D245*
X010949Y003544D03*
D246*
X010952Y003556D03*
D247*
X010952Y003627D03*
D248*
X010952Y003633D03*
D249*
X010949Y003639D03*
D250*
X010949Y003645D03*
D251*
X010949Y003650D03*
D252*
X010949Y003656D03*
D253*
X010952Y003662D03*
D254*
X010949Y003674D03*
D255*
X010949Y003680D03*
D256*
X010952Y003686D03*
D257*
X010949Y003692D03*
D258*
X010949Y003698D03*
D259*
X010952Y003704D03*
D260*
X010949Y003710D03*
D261*
X010952Y003715D03*
D262*
X010949Y003721D03*
D263*
X010952Y003727D03*
D264*
X010949Y003733D03*
D265*
X010952Y003745D03*
D266*
X010949Y003751D03*
D267*
X010952Y003757D03*
D268*
X010952Y003763D03*
D269*
X010952Y003769D03*
D270*
X010952Y003780D03*
D271*
X010952Y003786D03*
D272*
X010952Y003792D03*
D273*
X010952Y003804D03*
D274*
X010949Y003857D03*
D275*
X010952Y003893D03*
D276*
X010946Y003916D03*
X018393Y002576D03*
X019048Y002015D03*
D277*
X021670Y002528D03*
X022680Y002534D03*
X022680Y003456D03*
X021670Y003450D03*
D278*
X020448Y002995D02*
X020450Y003080D01*
X020456Y003165D01*
X020467Y003249D01*
X020481Y003333D01*
X020500Y003416D01*
X020523Y003498D01*
X020549Y003578D01*
X020580Y003658D01*
X020614Y003736D01*
X020653Y003811D01*
X020694Y003885D01*
X020740Y003957D01*
X020789Y004027D01*
X020841Y004094D01*
X020897Y004158D01*
X020955Y004220D01*
X021017Y004278D01*
X021081Y004334D01*
X021148Y004386D01*
X021218Y004435D01*
X021290Y004481D01*
X021364Y004522D01*
X021439Y004561D01*
X021517Y004595D01*
X021597Y004626D01*
X021677Y004652D01*
X021759Y004675D01*
X021842Y004694D01*
X021926Y004708D01*
X022010Y004719D01*
X022095Y004725D01*
X022180Y004727D01*
X022265Y004725D01*
X022350Y004719D01*
X022434Y004708D01*
X022518Y004694D01*
X022601Y004675D01*
X022683Y004652D01*
X022763Y004626D01*
X022843Y004595D01*
X022921Y004561D01*
X022996Y004522D01*
X023070Y004481D01*
X023142Y004435D01*
X023212Y004386D01*
X023279Y004334D01*
X023343Y004278D01*
X023405Y004220D01*
X023463Y004158D01*
X023519Y004094D01*
X023571Y004027D01*
X023620Y003957D01*
X023666Y003885D01*
X023707Y003811D01*
X023746Y003736D01*
X023780Y003658D01*
X023811Y003578D01*
X023837Y003498D01*
X023860Y003416D01*
X023879Y003333D01*
X023893Y003249D01*
X023904Y003165D01*
X023910Y003080D01*
X023912Y002995D01*
X023910Y002910D01*
X023904Y002825D01*
X023893Y002741D01*
X023879Y002657D01*
X023860Y002574D01*
X023837Y002492D01*
X023811Y002412D01*
X023780Y002332D01*
X023746Y002254D01*
X023707Y002179D01*
X023666Y002105D01*
X023620Y002033D01*
X023571Y001963D01*
X023519Y001896D01*
X023463Y001832D01*
X023405Y001770D01*
X023343Y001712D01*
X023279Y001656D01*
X023212Y001604D01*
X023142Y001555D01*
X023070Y001509D01*
X022996Y001468D01*
X022921Y001429D01*
X022843Y001395D01*
X022763Y001364D01*
X022683Y001338D01*
X022601Y001315D01*
X022518Y001296D01*
X022434Y001282D01*
X022350Y001271D01*
X022265Y001265D01*
X022180Y001263D01*
X022095Y001265D01*
X022010Y001271D01*
X021926Y001282D01*
X021842Y001296D01*
X021759Y001315D01*
X021677Y001338D01*
X021597Y001364D01*
X021517Y001395D01*
X021439Y001429D01*
X021364Y001468D01*
X021290Y001509D01*
X021218Y001555D01*
X021148Y001604D01*
X021081Y001656D01*
X021017Y001712D01*
X020955Y001770D01*
X020897Y001832D01*
X020841Y001896D01*
X020789Y001963D01*
X020740Y002033D01*
X020694Y002105D01*
X020653Y002179D01*
X020614Y002254D01*
X020580Y002332D01*
X020549Y002412D01*
X020523Y002492D01*
X020500Y002574D01*
X020481Y002657D01*
X020467Y002741D01*
X020456Y002825D01*
X020450Y002910D01*
X020448Y002995D01*
D279*
X014468Y004271D03*
X012549Y004271D03*
D280*
X013506Y003205D03*
D281*
X014465Y002868D03*
X012546Y002868D03*
D282*
X018717Y003544D03*
D283*
X018830Y004117D03*
D284*
X018830Y002833D03*
D285*
X018599Y002413D03*
D286*
X018596Y002366D03*
D287*
X018493Y002158D03*
D288*
X018186Y002481D03*
D289*
X019128Y002334D03*
D290*
X019125Y002304D03*
D291*
X019122Y002277D03*
D292*
X019119Y002257D03*
D293*
X019116Y002239D03*
D294*
X019113Y002221D03*
D295*
X017634Y002654D02*
X016494Y002654D01*
X016479Y002702D02*
X017649Y002702D01*
X017664Y002751D02*
X016463Y002751D01*
X016448Y002751D02*
X015242Y002751D01*
X015227Y002799D02*
X017678Y002799D01*
X017693Y002848D02*
X015212Y002848D01*
X015197Y002896D02*
X017708Y002896D01*
X017723Y002945D02*
X015183Y002945D01*
X015168Y002993D02*
X015869Y002993D01*
X015879Y002993D02*
X017737Y002993D01*
X017752Y003042D02*
X017042Y003042D01*
X017037Y003036D02*
X017034Y003024D01*
X017008Y003069D01*
X016771Y003857D01*
X016140Y003857D01*
X015874Y002974D01*
X015649Y003842D01*
X014905Y003842D01*
X015511Y001882D01*
X016175Y001882D01*
X016456Y002774D01*
X016745Y001882D01*
X017400Y001882D01*
X017944Y003674D01*
X017944Y003842D01*
X017932Y003816D01*
X017932Y003819D01*
X017950Y003842D01*
X017244Y003842D01*
X017046Y003054D01*
X017040Y003033D01*
X017037Y003036D01*
X017024Y003042D02*
X015894Y003042D01*
X015856Y003042D02*
X015153Y003042D01*
X015138Y003090D02*
X015844Y003090D01*
X015831Y003139D02*
X015123Y003139D01*
X015108Y003187D02*
X015819Y003187D01*
X015806Y003236D02*
X015093Y003236D01*
X015078Y003284D02*
X015794Y003284D01*
X015781Y003333D02*
X015063Y003333D01*
X015048Y003381D02*
X015769Y003381D01*
X015756Y003430D02*
X015033Y003430D01*
X015018Y003478D02*
X015744Y003478D01*
X015731Y003527D02*
X015003Y003527D01*
X014988Y003575D02*
X015719Y003575D01*
X015706Y003624D02*
X014973Y003624D01*
X014958Y003672D02*
X015693Y003672D01*
X015681Y003721D02*
X014943Y003721D01*
X014928Y003769D02*
X015668Y003769D01*
X015656Y003818D02*
X014913Y003818D01*
X016025Y003478D02*
X016885Y003478D01*
X016871Y003527D02*
X016040Y003527D01*
X016055Y003575D02*
X016856Y003575D01*
X016841Y003624D02*
X016069Y003624D01*
X016084Y003672D02*
X016827Y003672D01*
X016812Y003721D02*
X016098Y003721D01*
X016113Y003769D02*
X016798Y003769D01*
X016783Y003818D02*
X016128Y003818D01*
X016011Y003430D02*
X016900Y003430D01*
X016914Y003381D02*
X015996Y003381D01*
X015982Y003333D02*
X016929Y003333D01*
X016943Y003284D02*
X015967Y003284D01*
X015952Y003236D02*
X016958Y003236D01*
X016972Y003187D02*
X015938Y003187D01*
X015923Y003139D02*
X016987Y003139D01*
X017001Y003090D02*
X015909Y003090D01*
X016433Y002702D02*
X015257Y002702D01*
X015272Y002654D02*
X016418Y002654D01*
X016403Y002605D02*
X015287Y002605D01*
X015302Y002557D02*
X016387Y002557D01*
X016372Y002508D02*
X015317Y002508D01*
X015332Y002460D02*
X016357Y002460D01*
X016341Y002411D02*
X015347Y002411D01*
X015362Y002363D02*
X016326Y002363D01*
X016311Y002314D02*
X015377Y002314D01*
X015392Y002266D02*
X016296Y002266D01*
X016280Y002217D02*
X015407Y002217D01*
X015422Y002169D02*
X016265Y002169D01*
X016250Y002120D02*
X015437Y002120D01*
X015452Y002072D02*
X016235Y002072D01*
X016219Y002023D02*
X015467Y002023D01*
X015482Y001975D02*
X016204Y001975D01*
X016189Y001926D02*
X015497Y001926D01*
X016510Y002605D02*
X017620Y002605D01*
X017605Y002557D02*
X016526Y002557D01*
X016542Y002508D02*
X017590Y002508D01*
X017576Y002460D02*
X016557Y002460D01*
X016573Y002411D02*
X017561Y002411D01*
X017546Y002363D02*
X016589Y002363D01*
X016605Y002314D02*
X017531Y002314D01*
X017517Y002266D02*
X016620Y002266D01*
X016636Y002217D02*
X017502Y002217D01*
X017487Y002169D02*
X016652Y002169D01*
X016668Y002120D02*
X017473Y002120D01*
X017458Y002072D02*
X016683Y002072D01*
X016699Y002023D02*
X017443Y002023D01*
X017429Y001975D02*
X016715Y001975D01*
X016731Y001926D02*
X017414Y001926D01*
X017767Y003090D02*
X017055Y003090D01*
X017067Y003139D02*
X017781Y003139D01*
X017796Y003187D02*
X017079Y003187D01*
X017092Y003236D02*
X017811Y003236D01*
X017825Y003284D02*
X017104Y003284D01*
X017116Y003333D02*
X017840Y003333D01*
X017855Y003381D02*
X017128Y003381D01*
X017140Y003430D02*
X017870Y003430D01*
X017884Y003478D02*
X017152Y003478D01*
X017165Y003527D02*
X017899Y003527D01*
X017914Y003575D02*
X017177Y003575D01*
X017189Y003624D02*
X017928Y003624D01*
X017943Y003672D02*
X017201Y003672D01*
X017213Y003721D02*
X017944Y003721D01*
X017944Y003769D02*
X017225Y003769D01*
X017238Y003818D02*
X017932Y003818D01*
X017933Y003818D02*
X017944Y003818D01*
X009537Y003538D02*
X009519Y003845D01*
X009502Y003845D01*
X009395Y003553D01*
X009280Y003842D01*
X009263Y003842D01*
X009242Y003550D01*
D296*
X019075Y002142D03*
D297*
X019157Y002207D03*
D298*
X019154Y002192D03*
D299*
X019151Y002177D03*
D300*
X019148Y002165D03*
D301*
X019145Y002153D03*
D302*
X019143Y002142D03*
D303*
X019140Y002130D03*
D304*
X019137Y002118D03*
D305*
X019131Y002100D03*
X018404Y002620D03*
D306*
X019030Y001982D03*
X019125Y002083D03*
D307*
X019072Y002068D03*
X018369Y002540D03*
D308*
X019069Y002059D03*
D309*
X019066Y002050D03*
X018375Y002546D03*
D310*
X018378Y002552D03*
X019063Y002044D03*
D311*
X019057Y002032D03*
X018384Y002558D03*
D312*
X018410Y002670D03*
D313*
X018407Y002638D03*
D314*
X018401Y002605D03*
D315*
X009711Y003845D03*
D316*
X009711Y003677D03*
D317*
X013305Y000863D03*
X018909Y000863D03*
D318*
X018723Y000630D03*
D319*
X018469Y000857D03*
D320*
X018165Y000860D03*
X019417Y000860D03*
X016712Y000857D03*
D321*
X017640Y000949D03*
X017947Y000949D03*
X014415Y000949D03*
D322*
X017403Y000866D03*
D323*
X016222Y000860D03*
X015915Y000860D03*
X013081Y000854D03*
D324*
X015694Y000733D03*
D325*
X015292Y000730D03*
D326*
X015047Y000733D03*
D327*
X014645Y000736D03*
D328*
X014108Y000946D03*
D329*
X013872Y000742D03*
X013553Y000984D03*
D330*
X011956Y001099D03*
D331*
X011956Y000813D03*
D332*
X011607Y000862D03*
D333*
X011380Y000860D03*
X011079Y000860D03*
D334*
X010848Y000741D03*
D335*
X010526Y000981D03*
D336*
X008200Y006542D03*
X008200Y008086D03*
X003349Y008086D03*
X003349Y006542D03*
D337*
X003538Y006715D03*
X002152Y006747D03*
X002152Y007881D03*
X003538Y007912D03*
X006404Y008086D03*
X006798Y006542D03*
X008389Y006715D03*
X008389Y007912D03*
D338*
X002152Y006542D03*
X002152Y008086D03*
D339*
X003389Y008070D03*
X003389Y006558D03*
X008239Y006558D03*
X008239Y008070D03*
D340*
X008420Y007849D03*
X008420Y006778D03*
X006767Y006558D03*
X006436Y008070D03*
X003570Y007849D03*
X003570Y006778D03*
X002152Y006778D03*
X002152Y006763D03*
X002152Y007849D03*
X002152Y007865D03*
D341*
X002152Y008070D03*
X001617Y007566D03*
X001601Y007534D03*
X001585Y007503D03*
X001585Y007125D03*
X001601Y007093D03*
X001617Y007062D03*
X002152Y006558D03*
X002688Y007062D03*
X002704Y007093D03*
X002719Y007125D03*
X002719Y007503D03*
X002704Y007534D03*
X002688Y007566D03*
X004105Y007566D03*
X004121Y007534D03*
X004137Y007503D03*
X004137Y007125D03*
X004121Y007093D03*
X004105Y007062D03*
X006074Y007093D03*
X006089Y007109D03*
X006074Y006936D03*
X006089Y006920D03*
X007113Y007519D03*
X007129Y007534D03*
X007129Y007692D03*
X007113Y007708D03*
X008956Y007566D03*
X008971Y007534D03*
X008987Y007503D03*
X008987Y007125D03*
X008971Y007093D03*
X008956Y007062D03*
D342*
X008263Y006574D03*
X008263Y008054D03*
X003412Y008054D03*
X003412Y006574D03*
D343*
X003593Y006826D03*
X003593Y007802D03*
X006459Y008054D03*
X006711Y007440D03*
X006491Y007188D03*
X006743Y006574D03*
X008444Y006826D03*
X008444Y007802D03*
D344*
X002152Y008054D03*
X002152Y006574D03*
D345*
X003436Y006589D03*
X003436Y008038D03*
X008286Y008038D03*
X008286Y006589D03*
D346*
X008459Y006857D03*
X008459Y006873D03*
X008459Y007755D03*
X008459Y007771D03*
X006696Y007424D03*
X006680Y007408D03*
X006522Y007219D03*
X006507Y007204D03*
X006727Y006589D03*
X006475Y008038D03*
X003609Y007771D03*
X003609Y007755D03*
X003609Y006873D03*
X003609Y006857D03*
D347*
X003948Y006904D03*
X003948Y007723D03*
X002530Y007723D03*
X002152Y008038D03*
X001774Y007723D03*
X001774Y006904D03*
X002152Y006589D03*
X002530Y006904D03*
X008798Y006904D03*
X008798Y007723D03*
D348*
X008302Y008023D03*
X008302Y006605D03*
X003452Y006605D03*
X003452Y008023D03*
D349*
X006491Y008023D03*
X006648Y007377D03*
X006601Y007314D03*
X006554Y007251D03*
X006711Y006605D03*
D350*
X002152Y006605D03*
X002152Y008023D03*
D351*
X003467Y008007D03*
X003467Y006621D03*
X008318Y006621D03*
X008318Y008007D03*
D352*
X006641Y007361D03*
X006625Y007345D03*
X006609Y007330D03*
X006593Y007298D03*
X006578Y007282D03*
X006562Y007267D03*
X006704Y006621D03*
X006499Y008007D03*
X002152Y007786D03*
X002152Y006841D03*
D353*
X002152Y006621D03*
X002152Y008007D03*
D354*
X003483Y007991D03*
X003483Y006637D03*
X008333Y006637D03*
X008333Y007991D03*
D355*
X006507Y007991D03*
X006696Y006637D03*
D356*
X002152Y006637D03*
X002152Y007991D03*
D357*
X003499Y007975D03*
X003499Y006652D03*
X008349Y006652D03*
X008349Y007975D03*
D358*
X006522Y007975D03*
X006680Y006652D03*
D359*
X002152Y006652D03*
X002152Y007975D03*
D360*
X002152Y007912D03*
X003507Y007960D03*
X003507Y006668D03*
X002152Y006715D03*
X008357Y006668D03*
X008357Y007960D03*
D361*
X006530Y007960D03*
X006672Y006668D03*
X002152Y006889D03*
X002152Y007739D03*
D362*
X002152Y007960D03*
X002152Y006668D03*
D363*
X002152Y006731D03*
X003522Y006684D03*
X003522Y007944D03*
X002152Y007897D03*
X008373Y007944D03*
X008373Y006684D03*
D364*
X006664Y006684D03*
X006538Y007944D03*
D365*
X002152Y007944D03*
X002152Y006684D03*
D366*
X003530Y006700D03*
X003530Y007928D03*
X006412Y007141D03*
X006790Y007487D03*
X008381Y007928D03*
X008381Y006700D03*
D367*
X006656Y006700D03*
X006656Y006715D03*
X006546Y007912D03*
X006546Y007928D03*
D368*
X002152Y007928D03*
X002152Y006700D03*
D369*
X003546Y006731D03*
X003546Y007897D03*
X008396Y007897D03*
X008396Y006731D03*
D370*
X006648Y006731D03*
X006554Y007897D03*
D371*
X008404Y007881D03*
X008404Y006747D03*
X003554Y006747D03*
X003554Y007881D03*
D372*
X006562Y007881D03*
X006641Y006747D03*
D373*
X006444Y007156D03*
X006759Y007471D03*
X008412Y007865D03*
X008412Y006763D03*
X003562Y006763D03*
X003562Y007865D03*
D374*
X006570Y007865D03*
X006570Y007849D03*
X006633Y006778D03*
X006633Y006763D03*
D375*
X006475Y007172D03*
X006727Y007456D03*
X008428Y007834D03*
X008428Y006794D03*
X003578Y006794D03*
X003578Y007834D03*
D376*
X006578Y007834D03*
X006578Y007818D03*
X006625Y006810D03*
X006625Y006794D03*
D377*
X008436Y006810D03*
X008436Y007818D03*
X003585Y007818D03*
X003585Y006810D03*
X002152Y006794D03*
X002152Y007834D03*
D378*
X002152Y007818D03*
X002152Y006810D03*
X003601Y006841D03*
X003601Y007786D03*
X008452Y007786D03*
X008452Y006841D03*
D379*
X006617Y006841D03*
X006617Y006826D03*
X006617Y006857D03*
X006585Y007771D03*
X006585Y007786D03*
X006585Y007802D03*
D380*
X006672Y007393D03*
X006530Y007235D03*
X008467Y006889D03*
X008467Y007739D03*
X003617Y007739D03*
X003617Y006889D03*
X002152Y006826D03*
X002152Y007802D03*
D381*
X002152Y007771D03*
X002152Y007755D03*
X002152Y006873D03*
X002152Y006857D03*
D382*
X006609Y006873D03*
X006609Y006889D03*
X006593Y007739D03*
X006593Y007755D03*
D383*
X007097Y007723D03*
X007097Y007503D03*
X006105Y007125D03*
X006105Y006904D03*
X004089Y007030D03*
X004074Y007015D03*
X004089Y007597D03*
X004074Y007613D03*
X002672Y007597D03*
X002656Y007613D03*
X002672Y007030D03*
X002656Y007015D03*
X001648Y007015D03*
X001633Y007030D03*
X001633Y007597D03*
X001648Y007613D03*
X008924Y007613D03*
X008940Y007597D03*
X008940Y007030D03*
X008924Y007015D03*
D384*
X008822Y006920D03*
X008822Y007708D03*
X003971Y007708D03*
X003971Y006920D03*
X002554Y006920D03*
X002554Y007708D03*
D385*
X001743Y007708D03*
X001743Y006920D03*
D386*
X001719Y006936D03*
X002585Y006936D03*
X002585Y007692D03*
X001719Y007692D03*
X004003Y007692D03*
X004003Y006936D03*
X008853Y006936D03*
X008853Y007692D03*
D387*
X008869Y007676D03*
X008885Y007660D03*
X008885Y006967D03*
X008869Y006952D03*
X004034Y006967D03*
X004019Y006952D03*
X004034Y007660D03*
X004019Y007676D03*
X002617Y007660D03*
X002601Y007676D03*
X002617Y006967D03*
X002601Y006952D03*
X001704Y006952D03*
X001688Y006967D03*
X001688Y007660D03*
X001704Y007676D03*
D388*
X001593Y007519D03*
X001578Y007487D03*
X001578Y007471D03*
X001562Y007424D03*
X001562Y007408D03*
X001562Y007219D03*
X001562Y007204D03*
X001578Y007156D03*
X001578Y007141D03*
X001593Y007109D03*
X002711Y007109D03*
X002727Y007141D03*
X002727Y007156D03*
X002743Y007204D03*
X002743Y007219D03*
X002743Y007408D03*
X002743Y007424D03*
X002727Y007471D03*
X002727Y007487D03*
X002711Y007519D03*
X004129Y007519D03*
X004144Y007487D03*
X004144Y007471D03*
X004160Y007424D03*
X004160Y007408D03*
X004160Y007219D03*
X004160Y007204D03*
X004144Y007156D03*
X004144Y007141D03*
X004129Y007109D03*
X006066Y007078D03*
X006066Y007062D03*
X006066Y006967D03*
X006066Y006952D03*
X007137Y007550D03*
X007137Y007566D03*
X007137Y007660D03*
X007137Y007676D03*
X008979Y007519D03*
X008995Y007487D03*
X008995Y007471D03*
X009011Y007424D03*
X009011Y007408D03*
X009011Y007219D03*
X009011Y007204D03*
X008995Y007156D03*
X008995Y007141D03*
X008979Y007109D03*
D389*
X008916Y006999D03*
X008900Y006983D03*
X008916Y007629D03*
X008900Y007645D03*
X004066Y007629D03*
X004050Y007645D03*
X004066Y006999D03*
X004050Y006983D03*
X002648Y006999D03*
X002633Y006983D03*
X002648Y007629D03*
X002633Y007645D03*
X001672Y007645D03*
X001656Y007629D03*
X001656Y006999D03*
X001672Y006983D03*
D390*
X001570Y007172D03*
X001570Y007188D03*
X001554Y007235D03*
X001554Y007251D03*
X001554Y007267D03*
X001554Y007282D03*
X001554Y007298D03*
X001554Y007314D03*
X001554Y007330D03*
X001554Y007345D03*
X001554Y007361D03*
X001554Y007377D03*
X001554Y007393D03*
X001570Y007440D03*
X001570Y007456D03*
X002735Y007456D03*
X002735Y007440D03*
X002751Y007393D03*
X002751Y007377D03*
X002751Y007361D03*
X002751Y007345D03*
X002751Y007330D03*
X002751Y007314D03*
X002751Y007298D03*
X002751Y007282D03*
X002751Y007267D03*
X002751Y007251D03*
X002751Y007235D03*
X002735Y007188D03*
X002735Y007172D03*
X004152Y007172D03*
X004152Y007188D03*
X004168Y007235D03*
X004168Y007251D03*
X004168Y007267D03*
X004168Y007282D03*
X004168Y007298D03*
X004168Y007314D03*
X004168Y007330D03*
X004168Y007345D03*
X004168Y007361D03*
X004168Y007377D03*
X004168Y007393D03*
X004152Y007440D03*
X004152Y007456D03*
X006058Y007046D03*
X006058Y007030D03*
X006058Y007015D03*
X006058Y006999D03*
X006058Y006983D03*
X007144Y007582D03*
X007144Y007597D03*
X007144Y007613D03*
X007144Y007629D03*
X007144Y007645D03*
X009003Y007456D03*
X009003Y007440D03*
X009019Y007393D03*
X009019Y007377D03*
X009019Y007361D03*
X009019Y007345D03*
X009019Y007330D03*
X009019Y007314D03*
X009019Y007298D03*
X009019Y007282D03*
X009019Y007267D03*
X009019Y007251D03*
X009019Y007235D03*
X009003Y007188D03*
X009003Y007172D03*
D391*
X008963Y007078D03*
X008948Y007046D03*
X008963Y007550D03*
X008948Y007582D03*
X004113Y007550D03*
X004097Y007582D03*
X004113Y007078D03*
X004097Y007046D03*
X002696Y007078D03*
X002680Y007046D03*
X002696Y007550D03*
X002680Y007582D03*
X001625Y007582D03*
X001609Y007550D03*
X001609Y007078D03*
X001625Y007046D03*
D392*
X005601Y007314D03*
X007585Y007314D03*
D393*
X004932Y007912D03*
X004932Y006715D03*
D394*
X005042Y007314D03*
D395*
X025781Y016262D03*
X026133Y016086D03*
X026480Y016256D03*
X026493Y017194D03*
X025787Y017200D03*
D396*
X025881Y017251D03*
X026385Y016205D03*
X026133Y016092D03*
D397*
X026133Y016098D03*
X026020Y016659D03*
X026253Y016797D03*
D398*
X026033Y016678D03*
X026133Y016104D03*
X026133Y017352D03*
D399*
X026133Y016111D03*
D400*
X026133Y016117D03*
X026133Y017339D03*
D401*
X026133Y016123D03*
D402*
X026133Y016130D03*
X026133Y017326D03*
D403*
X026133Y016136D03*
D404*
X026133Y016142D03*
D405*
X026133Y016149D03*
D406*
X026133Y016155D03*
D407*
X026133Y016161D03*
X026133Y017295D03*
D408*
X026118Y016760D03*
X026124Y016747D03*
X026137Y016728D03*
X026143Y016715D03*
X026137Y016167D03*
D409*
X026133Y016174D03*
D410*
X026133Y016180D03*
X026133Y017276D03*
D411*
X026133Y016186D03*
D412*
X025938Y016193D03*
X026329Y016193D03*
X026247Y016791D03*
D413*
X026017Y016646D03*
X025904Y016199D03*
X026363Y016199D03*
X026370Y017257D03*
X025897Y017257D03*
D414*
X026389Y017251D03*
X026263Y016816D03*
X026017Y016640D03*
X025885Y016205D03*
D415*
X026401Y016211D03*
X025866Y017245D03*
D416*
X026404Y017245D03*
X025869Y016211D03*
D417*
X025853Y016218D03*
X026414Y016218D03*
X026420Y017238D03*
D418*
X026430Y017232D03*
X025837Y017232D03*
X026430Y016224D03*
D419*
X026439Y016230D03*
X026011Y016627D03*
X026263Y016829D03*
X025841Y016224D03*
D420*
X025831Y016230D03*
X025819Y016237D03*
X025894Y016778D03*
X025825Y017226D03*
X026442Y017226D03*
D421*
X026452Y017219D03*
X026464Y017213D03*
X025815Y017219D03*
X026382Y016678D03*
X026452Y016237D03*
D422*
X026461Y016243D03*
X026266Y016835D03*
X026474Y017207D03*
X026133Y017371D03*
X025806Y017213D03*
X025806Y016243D03*
D423*
X025796Y016249D03*
X025790Y016256D03*
X026011Y016621D03*
X025878Y016785D03*
X025796Y017207D03*
X026483Y017200D03*
X026389Y016671D03*
X026470Y016249D03*
D424*
X026489Y016262D03*
X026496Y016268D03*
X026395Y016665D03*
X025872Y016791D03*
X025771Y017188D03*
X025778Y017194D03*
X026502Y017188D03*
X026508Y017182D03*
X025765Y016274D03*
X025771Y016268D03*
D425*
X025756Y016281D03*
X025749Y016287D03*
X026007Y016615D03*
X026272Y016841D03*
X026524Y017169D03*
X026518Y017175D03*
X025762Y017182D03*
X025756Y017175D03*
X026511Y016281D03*
X026505Y016274D03*
D426*
X026521Y016287D03*
X026527Y016293D03*
X025740Y016293D03*
X025733Y016300D03*
X025872Y016797D03*
X025740Y017163D03*
X025746Y017169D03*
D427*
X025730Y017156D03*
X025724Y017150D03*
X025718Y017144D03*
X025711Y017137D03*
X026530Y017163D03*
X026537Y017156D03*
X026543Y017150D03*
X026392Y016659D03*
X026549Y016312D03*
X026543Y016306D03*
X026537Y016300D03*
X025730Y016306D03*
D428*
X025721Y016312D03*
X025715Y016319D03*
X025708Y016325D03*
X025702Y016331D03*
X026552Y016319D03*
X026565Y017131D03*
X026559Y017137D03*
X026552Y017144D03*
X025708Y017131D03*
D429*
X025699Y017125D03*
X025693Y017119D03*
X025686Y017112D03*
X025869Y016804D03*
X026007Y016608D03*
X026272Y016848D03*
X026568Y017125D03*
X026574Y017119D03*
X026581Y017112D03*
X026587Y017106D03*
X026581Y016344D03*
X026574Y016337D03*
X026568Y016331D03*
X026562Y016325D03*
X025699Y016337D03*
X025693Y016344D03*
X025686Y016350D03*
X025680Y016356D03*
D430*
X025677Y016363D03*
X025670Y016369D03*
X025664Y016375D03*
X026395Y016652D03*
X026596Y016363D03*
X026590Y016356D03*
X026584Y016350D03*
X026603Y017087D03*
X026596Y017093D03*
X026590Y017100D03*
X025683Y017106D03*
X025677Y017100D03*
X025670Y017093D03*
X025670Y017087D03*
X025664Y017081D03*
X025658Y017074D03*
D431*
X025655Y017068D03*
X025648Y017062D03*
X025642Y017049D03*
X025636Y017043D03*
X025636Y016419D03*
X025642Y016407D03*
X025648Y016400D03*
X025655Y016394D03*
X025655Y016388D03*
X025661Y016382D03*
X026600Y016369D03*
X026606Y016375D03*
X026612Y016382D03*
X026612Y016388D03*
X026619Y016394D03*
X026631Y016413D03*
X026625Y017056D03*
X026619Y017068D03*
X026612Y017074D03*
X026606Y017081D03*
D432*
X026622Y017062D03*
X026628Y017049D03*
X026634Y017043D03*
X026641Y017030D03*
X026647Y016438D03*
X026641Y016426D03*
X026634Y016419D03*
X026628Y016407D03*
X026622Y016400D03*
X025872Y016810D03*
X025607Y016993D03*
X025614Y017005D03*
X025620Y017011D03*
X025620Y017018D03*
X025626Y017024D03*
X025626Y017030D03*
X025633Y017037D03*
X025645Y017056D03*
X025614Y016457D03*
X025620Y016445D03*
X025626Y016432D03*
X025633Y016426D03*
X025639Y016413D03*
D433*
X025623Y016438D03*
X025617Y016451D03*
X025611Y016463D03*
X025604Y016470D03*
X025604Y016476D03*
X025598Y016489D03*
X025592Y016501D03*
X025585Y016942D03*
X025592Y016955D03*
X025592Y016961D03*
X025598Y016967D03*
X025598Y016974D03*
X025604Y016980D03*
X025604Y016986D03*
X025611Y016999D03*
X026392Y016646D03*
X026675Y016495D03*
X026669Y016482D03*
X026663Y016470D03*
X026663Y016463D03*
X026656Y016457D03*
X026656Y016451D03*
X026650Y016445D03*
X026644Y016432D03*
X026675Y016967D03*
X026669Y016980D03*
X026663Y016993D03*
X026656Y016999D03*
X026656Y017005D03*
X026650Y017011D03*
X026650Y017018D03*
X026644Y017024D03*
X026637Y017037D03*
D434*
X026666Y016986D03*
X026672Y016974D03*
X026678Y016961D03*
X026678Y016955D03*
X026685Y016949D03*
X026685Y016942D03*
X026691Y016930D03*
X026691Y016923D03*
X026697Y016911D03*
X026697Y016904D03*
X026704Y016886D03*
X026697Y016552D03*
X026691Y016533D03*
X026685Y016520D03*
X026685Y016514D03*
X026678Y016508D03*
X026678Y016501D03*
X026672Y016489D03*
X026666Y016476D03*
X026275Y016854D03*
X025872Y016816D03*
X025576Y016911D03*
X025576Y016917D03*
X025576Y016923D03*
X025582Y016930D03*
X025582Y016936D03*
X025589Y016949D03*
X025570Y016904D03*
X025570Y016898D03*
X025570Y016892D03*
X025563Y016879D03*
X025563Y016873D03*
X025557Y016848D03*
X025557Y016615D03*
X025563Y016589D03*
X025563Y016583D03*
X025570Y016564D03*
X025570Y016558D03*
X025576Y016552D03*
X025576Y016545D03*
X025576Y016539D03*
X025582Y016533D03*
X025582Y016526D03*
X025582Y016520D03*
X025589Y016514D03*
X025589Y016508D03*
X025595Y016495D03*
X025601Y016482D03*
D435*
X025567Y016571D03*
X025567Y016577D03*
X025560Y016596D03*
X025560Y016602D03*
X025560Y016608D03*
X025554Y016621D03*
X025554Y016627D03*
X025554Y016634D03*
X025554Y016640D03*
X025554Y016646D03*
X025548Y016659D03*
X025548Y016665D03*
X025548Y016671D03*
X025548Y016678D03*
X025548Y016684D03*
X025548Y016690D03*
X025548Y016697D03*
X025548Y016703D03*
X025548Y016709D03*
X025548Y016715D03*
X025548Y016747D03*
X025548Y016753D03*
X025548Y016760D03*
X025548Y016766D03*
X025548Y016772D03*
X025548Y016778D03*
X025548Y016785D03*
X025548Y016791D03*
X025548Y016797D03*
X025548Y016804D03*
X025554Y016816D03*
X025554Y016823D03*
X025554Y016829D03*
X025554Y016835D03*
X025554Y016841D03*
X025560Y016854D03*
X025560Y016860D03*
X025560Y016867D03*
X025567Y016886D03*
X026007Y016602D03*
X026392Y016640D03*
X026700Y016571D03*
X026700Y016564D03*
X026700Y016558D03*
X026694Y016545D03*
X026694Y016539D03*
X026688Y016526D03*
X026707Y016577D03*
X026707Y016583D03*
X026707Y016589D03*
X026707Y016596D03*
X026713Y016602D03*
X026713Y016608D03*
X026713Y016615D03*
X026713Y016621D03*
X026719Y016640D03*
X026719Y016646D03*
X026719Y016652D03*
X026719Y016804D03*
X026719Y016810D03*
X026719Y016816D03*
X026713Y016841D03*
X026713Y016848D03*
X026713Y016854D03*
X026707Y016867D03*
X026707Y016873D03*
X026707Y016879D03*
X026700Y016892D03*
X026700Y016898D03*
X026694Y016917D03*
X026688Y016936D03*
D436*
X026376Y016596D03*
X025891Y016867D03*
D437*
X026007Y016596D03*
X026272Y016860D03*
D438*
X026379Y016602D03*
D439*
X026379Y016608D03*
D440*
X026382Y016615D03*
D441*
X026385Y016621D03*
X025881Y016841D03*
D442*
X025551Y016810D03*
X025544Y016741D03*
X025544Y016734D03*
X025544Y016728D03*
X025544Y016722D03*
X025551Y016652D03*
X026716Y016634D03*
X026716Y016627D03*
X026722Y016659D03*
X026722Y016665D03*
X026722Y016671D03*
X026722Y016678D03*
X026722Y016684D03*
X026722Y016690D03*
X026722Y016697D03*
X026722Y016703D03*
X026722Y016709D03*
X026722Y016715D03*
X026722Y016722D03*
X026722Y016728D03*
X026722Y016734D03*
X026722Y016741D03*
X026722Y016747D03*
X026722Y016753D03*
X026722Y016760D03*
X026722Y016766D03*
X026722Y016772D03*
X026722Y016778D03*
X026722Y016785D03*
X026722Y016791D03*
X026722Y016797D03*
X026716Y016823D03*
X026716Y016829D03*
X026716Y016835D03*
X026710Y016860D03*
D443*
X026389Y016627D03*
D444*
X026389Y016634D03*
D445*
X026266Y016823D03*
X026014Y016634D03*
X025850Y017238D03*
D446*
X026256Y016804D03*
X026017Y016652D03*
D447*
X026026Y016665D03*
X026133Y017358D03*
D448*
X026030Y016671D03*
D449*
X026156Y016697D03*
X026162Y016684D03*
D450*
X026159Y016690D03*
X026152Y016703D03*
X026146Y016709D03*
X026140Y016722D03*
X026133Y016734D03*
X026127Y016741D03*
X026121Y016753D03*
X026115Y016766D03*
X026108Y016772D03*
D451*
X026231Y016778D03*
D452*
X026244Y016785D03*
D453*
X026259Y016810D03*
X026133Y017364D03*
D454*
X025875Y016823D03*
D455*
X025875Y016829D03*
D456*
X025878Y016835D03*
D457*
X025885Y016848D03*
D458*
X025885Y016854D03*
D459*
X025888Y016860D03*
D460*
X025929Y017263D03*
X026338Y017263D03*
D461*
X026133Y017270D03*
D462*
X026133Y017282D03*
D463*
X026133Y017289D03*
D464*
X026137Y017301D03*
D465*
X026133Y017308D03*
D466*
X026133Y017314D03*
D467*
X026137Y017320D03*
D468*
X026133Y017333D03*
D469*
X026137Y017345D03*
D470*
X026137Y017982D03*
D471*
X026137Y015481D03*
M02*
