%
M48
M72
T01C0.0236
T02C0.0400
T03C0.0630
%
T01
X1333Y3330
X2515Y3330
X2121Y6086
X2121Y9826
X2908Y14353
X6648Y18881
X7239Y19471
X4483Y22030
X5664Y22621
X23578Y21243
X27515Y22818
X31058Y21046
X31452Y20652
X31058Y20062
X30861Y19471
X29483Y18487
X29483Y17897
X28499Y17897
X30270Y16125
X31452Y21637
X15310Y4314
X16491Y3526
X18459Y2739
X20428Y2739
X22396Y2739
X24365Y2739
X26530Y3330
X16294Y574
X14326Y1164
X12357Y1755
X10192Y2345
X8223Y2936
X7436Y4314
X9404Y4314
X11373Y4314
X13341Y4314
T02
X29180Y3542
X30180Y3542
X30180Y2542
X29180Y2542
X29180Y1542
X30180Y1542
T03
X16294Y18881
M30
