G75*
G70*
%OFA0B0*%
%FSLAX24Y24*%
%IPPOS*%
%LPD*%
%AMOC8*
5,1,8,0,0,1.08239X$1,22.5*
%
%ADD10R,0.0820X0.0820*%
%ADD11OC8,0.0820*%
%ADD12R,0.0671X0.0592*%
%ADD13R,0.0552X0.0552*%
%ADD14R,0.0592X0.0671*%
%ADD15R,0.0671X0.0671*%
%ADD16R,0.0552X0.1340*%
%ADD17R,0.0580X0.0330*%
%ADD18R,0.0950X0.0320*%
%ADD19C,0.1080*%
%ADD20R,0.0880X0.0340*%
%ADD21R,0.0946X0.0434*%
%ADD22R,0.0789X0.0395*%
%ADD23OC8,0.1720*%
%ADD24C,0.1181*%
D10*
X030180Y001542D03*
D11*
X029180Y001542D03*
X029180Y002542D03*
X030180Y002542D03*
X030180Y003542D03*
X029180Y003542D03*
D12*
X027515Y002916D03*
X027515Y002168D03*
X001300Y006694D03*
X001300Y007442D03*
D13*
X007436Y003546D03*
X007436Y002719D03*
X007436Y001578D03*
X007436Y000751D03*
X009404Y000751D03*
X009404Y001578D03*
X009404Y002719D03*
X009404Y003546D03*
X011373Y003546D03*
X011373Y002719D03*
X011373Y001578D03*
X011373Y000751D03*
X013341Y000751D03*
X013341Y001578D03*
X013341Y002719D03*
X013341Y003546D03*
X015310Y003546D03*
X015310Y002719D03*
X015310Y001578D03*
X015310Y000751D03*
X017278Y000751D03*
X017278Y001578D03*
X017278Y002719D03*
X017278Y003546D03*
X019247Y003546D03*
X019247Y002719D03*
X019247Y001578D03*
X019247Y000751D03*
X021215Y000751D03*
X021215Y001578D03*
X021215Y002719D03*
X021215Y003546D03*
X023184Y003546D03*
X023184Y002719D03*
X023184Y001578D03*
X023184Y000751D03*
X025152Y000751D03*
X025152Y001578D03*
X025152Y002719D03*
X025152Y003546D03*
D14*
X004948Y022924D03*
X004200Y022924D03*
D15*
X030467Y011105D03*
X030467Y009727D03*
D16*
X029680Y013015D03*
X031255Y013015D03*
X031255Y015692D03*
X029680Y015692D03*
X002908Y015692D03*
X001333Y015692D03*
X001333Y013015D03*
X002908Y013015D03*
D17*
X001300Y005996D03*
X001300Y005596D03*
X030467Y008445D03*
X030467Y008845D03*
D18*
X029918Y019152D03*
X029918Y019652D03*
X029918Y020152D03*
X029918Y020652D03*
X029918Y021152D03*
X029918Y021652D03*
X029918Y022152D03*
X027868Y022152D03*
X027868Y021652D03*
X027868Y021152D03*
X027868Y020652D03*
X027868Y020152D03*
X027868Y019652D03*
X027868Y019152D03*
D19*
X025743Y019865D03*
D20*
X005693Y019956D03*
X005693Y020456D03*
X005693Y020956D03*
X005693Y021456D03*
X005693Y021956D03*
X003273Y021956D03*
X003273Y021456D03*
X003273Y020956D03*
X003273Y020456D03*
X003273Y019956D03*
X003273Y019456D03*
X003273Y018956D03*
X005693Y018956D03*
X005693Y019456D03*
D21*
X001410Y010773D03*
X001410Y010273D03*
X001410Y009773D03*
X001410Y009273D03*
D22*
X001353Y008773D03*
D23*
X016294Y018881D03*
D24*
X001727Y004629D03*
X006845Y022621D03*
X026333Y001361D03*
M02*
