G75*
G70*
%OFA0B0*%
%FSLAX24Y24*%
%IPPOS*%
%LPD*%
%AMOC8*
5,1,8,0,0,1.08239X$1,22.5*
%
%ADD10C,0.0000*%
%ADD11C,0.0059*%
D10*
X004017Y024569D02*
X004019Y024584D01*
X004024Y024597D01*
X004033Y024609D01*
X004044Y024619D01*
X004058Y024625D01*
X004072Y024628D01*
X004087Y024627D01*
X004101Y024622D01*
X004114Y024614D01*
X004124Y024604D01*
X004131Y024591D01*
X004135Y024576D01*
X004135Y024562D01*
X004131Y024547D01*
X004124Y024534D01*
X004114Y024524D01*
X004101Y024516D01*
X004087Y024511D01*
X004072Y024510D01*
X004058Y024513D01*
X004044Y024519D01*
X004033Y024529D01*
X004024Y024541D01*
X004019Y024554D01*
X004017Y024569D01*
X004254Y024569D02*
X004256Y024584D01*
X004261Y024597D01*
X004270Y024609D01*
X004281Y024619D01*
X004295Y024625D01*
X004309Y024628D01*
X004324Y024627D01*
X004338Y024622D01*
X004351Y024614D01*
X004361Y024604D01*
X004368Y024591D01*
X004372Y024576D01*
X004372Y024562D01*
X004368Y024547D01*
X004361Y024534D01*
X004351Y024524D01*
X004338Y024516D01*
X004324Y024511D01*
X004309Y024510D01*
X004295Y024513D01*
X004281Y024519D01*
X004270Y024529D01*
X004261Y024541D01*
X004256Y024554D01*
X004254Y024569D01*
X004490Y024569D02*
X004492Y024584D01*
X004497Y024597D01*
X004506Y024609D01*
X004517Y024619D01*
X004531Y024625D01*
X004545Y024628D01*
X004560Y024627D01*
X004574Y024622D01*
X004587Y024614D01*
X004597Y024604D01*
X004604Y024591D01*
X004608Y024576D01*
X004608Y024562D01*
X004604Y024547D01*
X004597Y024534D01*
X004587Y024524D01*
X004574Y024516D01*
X004560Y024511D01*
X004545Y024510D01*
X004531Y024513D01*
X004517Y024519D01*
X004506Y024529D01*
X004497Y024541D01*
X004492Y024554D01*
X004490Y024569D01*
X004726Y024569D02*
X004728Y024584D01*
X004733Y024597D01*
X004742Y024609D01*
X004753Y024619D01*
X004767Y024625D01*
X004781Y024628D01*
X004796Y024627D01*
X004810Y024622D01*
X004823Y024614D01*
X004833Y024604D01*
X004840Y024591D01*
X004844Y024576D01*
X004844Y024562D01*
X004840Y024547D01*
X004833Y024534D01*
X004823Y024524D01*
X004810Y024516D01*
X004796Y024511D01*
X004781Y024510D01*
X004767Y024513D01*
X004753Y024519D01*
X004742Y024529D01*
X004733Y024541D01*
X004728Y024554D01*
X004726Y024569D01*
X004726Y025238D02*
X004728Y025253D01*
X004733Y025266D01*
X004742Y025278D01*
X004753Y025288D01*
X004767Y025294D01*
X004781Y025297D01*
X004796Y025296D01*
X004810Y025291D01*
X004823Y025283D01*
X004833Y025273D01*
X004840Y025260D01*
X004844Y025245D01*
X004844Y025231D01*
X004840Y025216D01*
X004833Y025203D01*
X004823Y025193D01*
X004810Y025185D01*
X004796Y025180D01*
X004781Y025179D01*
X004767Y025182D01*
X004753Y025188D01*
X004742Y025198D01*
X004733Y025210D01*
X004728Y025223D01*
X004726Y025238D01*
X004490Y025238D02*
X004492Y025253D01*
X004497Y025266D01*
X004506Y025278D01*
X004517Y025288D01*
X004531Y025294D01*
X004545Y025297D01*
X004560Y025296D01*
X004574Y025291D01*
X004587Y025283D01*
X004597Y025273D01*
X004604Y025260D01*
X004608Y025245D01*
X004608Y025231D01*
X004604Y025216D01*
X004597Y025203D01*
X004587Y025193D01*
X004574Y025185D01*
X004560Y025180D01*
X004545Y025179D01*
X004531Y025182D01*
X004517Y025188D01*
X004506Y025198D01*
X004497Y025210D01*
X004492Y025223D01*
X004490Y025238D01*
X004254Y025238D02*
X004256Y025253D01*
X004261Y025266D01*
X004270Y025278D01*
X004281Y025288D01*
X004295Y025294D01*
X004309Y025297D01*
X004324Y025296D01*
X004338Y025291D01*
X004351Y025283D01*
X004361Y025273D01*
X004368Y025260D01*
X004372Y025245D01*
X004372Y025231D01*
X004368Y025216D01*
X004361Y025203D01*
X004351Y025193D01*
X004338Y025185D01*
X004324Y025180D01*
X004309Y025179D01*
X004295Y025182D01*
X004281Y025188D01*
X004270Y025198D01*
X004261Y025210D01*
X004256Y025223D01*
X004254Y025238D01*
X004017Y025238D02*
X004019Y025253D01*
X004024Y025266D01*
X004033Y025278D01*
X004044Y025288D01*
X004058Y025294D01*
X004072Y025297D01*
X004087Y025296D01*
X004101Y025291D01*
X004114Y025283D01*
X004124Y025273D01*
X004131Y025260D01*
X004135Y025245D01*
X004135Y025231D01*
X004131Y025216D01*
X004124Y025203D01*
X004114Y025193D01*
X004101Y025185D01*
X004087Y025180D01*
X004072Y025179D01*
X004058Y025182D01*
X004044Y025188D01*
X004033Y025198D01*
X004024Y025210D01*
X004019Y025223D01*
X004017Y025238D01*
X028427Y025238D02*
X028429Y025253D01*
X028434Y025266D01*
X028443Y025278D01*
X028454Y025288D01*
X028468Y025294D01*
X028482Y025297D01*
X028497Y025296D01*
X028511Y025291D01*
X028524Y025283D01*
X028534Y025273D01*
X028541Y025260D01*
X028545Y025245D01*
X028545Y025231D01*
X028541Y025216D01*
X028534Y025203D01*
X028524Y025193D01*
X028511Y025185D01*
X028497Y025180D01*
X028482Y025179D01*
X028468Y025182D01*
X028454Y025188D01*
X028443Y025198D01*
X028434Y025210D01*
X028429Y025223D01*
X028427Y025238D01*
X028663Y025238D02*
X028665Y025253D01*
X028670Y025266D01*
X028679Y025278D01*
X028690Y025288D01*
X028704Y025294D01*
X028718Y025297D01*
X028733Y025296D01*
X028747Y025291D01*
X028760Y025283D01*
X028770Y025273D01*
X028777Y025260D01*
X028781Y025245D01*
X028781Y025231D01*
X028777Y025216D01*
X028770Y025203D01*
X028760Y025193D01*
X028747Y025185D01*
X028733Y025180D01*
X028718Y025179D01*
X028704Y025182D01*
X028690Y025188D01*
X028679Y025198D01*
X028670Y025210D01*
X028665Y025223D01*
X028663Y025238D01*
X028899Y025238D02*
X028901Y025253D01*
X028906Y025266D01*
X028915Y025278D01*
X028926Y025288D01*
X028940Y025294D01*
X028954Y025297D01*
X028969Y025296D01*
X028983Y025291D01*
X028996Y025283D01*
X029006Y025273D01*
X029013Y025260D01*
X029017Y025245D01*
X029017Y025231D01*
X029013Y025216D01*
X029006Y025203D01*
X028996Y025193D01*
X028983Y025185D01*
X028969Y025180D01*
X028954Y025179D01*
X028940Y025182D01*
X028926Y025188D01*
X028915Y025198D01*
X028906Y025210D01*
X028901Y025223D01*
X028899Y025238D01*
X029135Y025238D02*
X029137Y025253D01*
X029142Y025266D01*
X029151Y025278D01*
X029162Y025288D01*
X029176Y025294D01*
X029190Y025297D01*
X029205Y025296D01*
X029219Y025291D01*
X029232Y025283D01*
X029242Y025273D01*
X029249Y025260D01*
X029253Y025245D01*
X029253Y025231D01*
X029249Y025216D01*
X029242Y025203D01*
X029232Y025193D01*
X029219Y025185D01*
X029205Y025180D01*
X029190Y025179D01*
X029176Y025182D01*
X029162Y025188D01*
X029151Y025198D01*
X029142Y025210D01*
X029137Y025223D01*
X029135Y025238D01*
X029135Y024569D02*
X029137Y024584D01*
X029142Y024597D01*
X029151Y024609D01*
X029162Y024619D01*
X029176Y024625D01*
X029190Y024628D01*
X029205Y024627D01*
X029219Y024622D01*
X029232Y024614D01*
X029242Y024604D01*
X029249Y024591D01*
X029253Y024576D01*
X029253Y024562D01*
X029249Y024547D01*
X029242Y024534D01*
X029232Y024524D01*
X029219Y024516D01*
X029205Y024511D01*
X029190Y024510D01*
X029176Y024513D01*
X029162Y024519D01*
X029151Y024529D01*
X029142Y024541D01*
X029137Y024554D01*
X029135Y024569D01*
X028899Y024569D02*
X028901Y024584D01*
X028906Y024597D01*
X028915Y024609D01*
X028926Y024619D01*
X028940Y024625D01*
X028954Y024628D01*
X028969Y024627D01*
X028983Y024622D01*
X028996Y024614D01*
X029006Y024604D01*
X029013Y024591D01*
X029017Y024576D01*
X029017Y024562D01*
X029013Y024547D01*
X029006Y024534D01*
X028996Y024524D01*
X028983Y024516D01*
X028969Y024511D01*
X028954Y024510D01*
X028940Y024513D01*
X028926Y024519D01*
X028915Y024529D01*
X028906Y024541D01*
X028901Y024554D01*
X028899Y024569D01*
X028663Y024569D02*
X028665Y024584D01*
X028670Y024597D01*
X028679Y024609D01*
X028690Y024619D01*
X028704Y024625D01*
X028718Y024628D01*
X028733Y024627D01*
X028747Y024622D01*
X028760Y024614D01*
X028770Y024604D01*
X028777Y024591D01*
X028781Y024576D01*
X028781Y024562D01*
X028777Y024547D01*
X028770Y024534D01*
X028760Y024524D01*
X028747Y024516D01*
X028733Y024511D01*
X028718Y024510D01*
X028704Y024513D01*
X028690Y024519D01*
X028679Y024529D01*
X028670Y024541D01*
X028665Y024554D01*
X028663Y024569D01*
X028427Y024569D02*
X028429Y024584D01*
X028434Y024597D01*
X028443Y024609D01*
X028454Y024619D01*
X028468Y024625D01*
X028482Y024628D01*
X028497Y024627D01*
X028511Y024622D01*
X028524Y024614D01*
X028534Y024604D01*
X028541Y024591D01*
X028545Y024576D01*
X028545Y024562D01*
X028541Y024547D01*
X028534Y024534D01*
X028524Y024524D01*
X028511Y024516D01*
X028497Y024511D01*
X028482Y024510D01*
X028468Y024513D01*
X028454Y024519D01*
X028443Y024529D01*
X028434Y024541D01*
X028429Y024554D01*
X028427Y024569D01*
X032384Y020927D02*
X032386Y020942D01*
X032391Y020955D01*
X032400Y020967D01*
X032411Y020977D01*
X032425Y020983D01*
X032439Y020986D01*
X032454Y020985D01*
X032468Y020980D01*
X032481Y020972D01*
X032491Y020962D01*
X032498Y020949D01*
X032502Y020934D01*
X032502Y020920D01*
X032498Y020905D01*
X032491Y020892D01*
X032481Y020882D01*
X032468Y020874D01*
X032454Y020869D01*
X032439Y020868D01*
X032425Y020871D01*
X032411Y020877D01*
X032400Y020887D01*
X032391Y020899D01*
X032386Y020912D01*
X032384Y020927D01*
X032384Y020691D02*
X032386Y020706D01*
X032391Y020719D01*
X032400Y020731D01*
X032411Y020741D01*
X032425Y020747D01*
X032439Y020750D01*
X032454Y020749D01*
X032468Y020744D01*
X032481Y020736D01*
X032491Y020726D01*
X032498Y020713D01*
X032502Y020698D01*
X032502Y020684D01*
X032498Y020669D01*
X032491Y020656D01*
X032481Y020646D01*
X032468Y020638D01*
X032454Y020633D01*
X032439Y020632D01*
X032425Y020635D01*
X032411Y020641D01*
X032400Y020651D01*
X032391Y020663D01*
X032386Y020676D01*
X032384Y020691D01*
X032384Y020454D02*
X032386Y020469D01*
X032391Y020482D01*
X032400Y020494D01*
X032411Y020504D01*
X032425Y020510D01*
X032439Y020513D01*
X032454Y020512D01*
X032468Y020507D01*
X032481Y020499D01*
X032491Y020489D01*
X032498Y020476D01*
X032502Y020461D01*
X032502Y020447D01*
X032498Y020432D01*
X032491Y020419D01*
X032481Y020409D01*
X032468Y020401D01*
X032454Y020396D01*
X032439Y020395D01*
X032425Y020398D01*
X032411Y020404D01*
X032400Y020414D01*
X032391Y020426D01*
X032386Y020439D01*
X032384Y020454D01*
X032384Y020218D02*
X032386Y020233D01*
X032391Y020246D01*
X032400Y020258D01*
X032411Y020268D01*
X032425Y020274D01*
X032439Y020277D01*
X032454Y020276D01*
X032468Y020271D01*
X032481Y020263D01*
X032491Y020253D01*
X032498Y020240D01*
X032502Y020225D01*
X032502Y020211D01*
X032498Y020196D01*
X032491Y020183D01*
X032481Y020173D01*
X032468Y020165D01*
X032454Y020160D01*
X032439Y020159D01*
X032425Y020162D01*
X032411Y020168D01*
X032400Y020178D01*
X032391Y020190D01*
X032386Y020203D01*
X032384Y020218D01*
X033053Y020218D02*
X033055Y020233D01*
X033060Y020246D01*
X033069Y020258D01*
X033080Y020268D01*
X033094Y020274D01*
X033108Y020277D01*
X033123Y020276D01*
X033137Y020271D01*
X033150Y020263D01*
X033160Y020253D01*
X033167Y020240D01*
X033171Y020225D01*
X033171Y020211D01*
X033167Y020196D01*
X033160Y020183D01*
X033150Y020173D01*
X033137Y020165D01*
X033123Y020160D01*
X033108Y020159D01*
X033094Y020162D01*
X033080Y020168D01*
X033069Y020178D01*
X033060Y020190D01*
X033055Y020203D01*
X033053Y020218D01*
X033053Y020454D02*
X033055Y020469D01*
X033060Y020482D01*
X033069Y020494D01*
X033080Y020504D01*
X033094Y020510D01*
X033108Y020513D01*
X033123Y020512D01*
X033137Y020507D01*
X033150Y020499D01*
X033160Y020489D01*
X033167Y020476D01*
X033171Y020461D01*
X033171Y020447D01*
X033167Y020432D01*
X033160Y020419D01*
X033150Y020409D01*
X033137Y020401D01*
X033123Y020396D01*
X033108Y020395D01*
X033094Y020398D01*
X033080Y020404D01*
X033069Y020414D01*
X033060Y020426D01*
X033055Y020439D01*
X033053Y020454D01*
X033053Y020691D02*
X033055Y020706D01*
X033060Y020719D01*
X033069Y020731D01*
X033080Y020741D01*
X033094Y020747D01*
X033108Y020750D01*
X033123Y020749D01*
X033137Y020744D01*
X033150Y020736D01*
X033160Y020726D01*
X033167Y020713D01*
X033171Y020698D01*
X033171Y020684D01*
X033167Y020669D01*
X033160Y020656D01*
X033150Y020646D01*
X033137Y020638D01*
X033123Y020633D01*
X033108Y020632D01*
X033094Y020635D01*
X033080Y020641D01*
X033069Y020651D01*
X033060Y020663D01*
X033055Y020676D01*
X033053Y020691D01*
X033053Y020927D02*
X033055Y020942D01*
X033060Y020955D01*
X033069Y020967D01*
X033080Y020977D01*
X033094Y020983D01*
X033108Y020986D01*
X033123Y020985D01*
X033137Y020980D01*
X033150Y020972D01*
X033160Y020962D01*
X033167Y020949D01*
X033171Y020934D01*
X033171Y020920D01*
X033167Y020905D01*
X033160Y020892D01*
X033150Y020882D01*
X033137Y020874D01*
X033123Y020869D01*
X033108Y020868D01*
X033094Y020871D01*
X033080Y020877D01*
X033069Y020887D01*
X033060Y020899D01*
X033055Y020912D01*
X033053Y020927D01*
X036301Y024569D02*
X036303Y024584D01*
X036308Y024597D01*
X036317Y024609D01*
X036328Y024619D01*
X036342Y024625D01*
X036356Y024628D01*
X036371Y024627D01*
X036385Y024622D01*
X036398Y024614D01*
X036408Y024604D01*
X036415Y024591D01*
X036419Y024576D01*
X036419Y024562D01*
X036415Y024547D01*
X036408Y024534D01*
X036398Y024524D01*
X036385Y024516D01*
X036371Y024511D01*
X036356Y024510D01*
X036342Y024513D01*
X036328Y024519D01*
X036317Y024529D01*
X036308Y024541D01*
X036303Y024554D01*
X036301Y024569D01*
X036537Y024569D02*
X036539Y024584D01*
X036544Y024597D01*
X036553Y024609D01*
X036564Y024619D01*
X036578Y024625D01*
X036592Y024628D01*
X036607Y024627D01*
X036621Y024622D01*
X036634Y024614D01*
X036644Y024604D01*
X036651Y024591D01*
X036655Y024576D01*
X036655Y024562D01*
X036651Y024547D01*
X036644Y024534D01*
X036634Y024524D01*
X036621Y024516D01*
X036607Y024511D01*
X036592Y024510D01*
X036578Y024513D01*
X036564Y024519D01*
X036553Y024529D01*
X036544Y024541D01*
X036539Y024554D01*
X036537Y024569D01*
X036773Y024569D02*
X036775Y024584D01*
X036780Y024597D01*
X036789Y024609D01*
X036800Y024619D01*
X036814Y024625D01*
X036828Y024628D01*
X036843Y024627D01*
X036857Y024622D01*
X036870Y024614D01*
X036880Y024604D01*
X036887Y024591D01*
X036891Y024576D01*
X036891Y024562D01*
X036887Y024547D01*
X036880Y024534D01*
X036870Y024524D01*
X036857Y024516D01*
X036843Y024511D01*
X036828Y024510D01*
X036814Y024513D01*
X036800Y024519D01*
X036789Y024529D01*
X036780Y024541D01*
X036775Y024554D01*
X036773Y024569D01*
X037010Y024569D02*
X037012Y024584D01*
X037017Y024597D01*
X037026Y024609D01*
X037037Y024619D01*
X037051Y024625D01*
X037065Y024628D01*
X037080Y024627D01*
X037094Y024622D01*
X037107Y024614D01*
X037117Y024604D01*
X037124Y024591D01*
X037128Y024576D01*
X037128Y024562D01*
X037124Y024547D01*
X037117Y024534D01*
X037107Y024524D01*
X037094Y024516D01*
X037080Y024511D01*
X037065Y024510D01*
X037051Y024513D01*
X037037Y024519D01*
X037026Y024529D01*
X037017Y024541D01*
X037012Y024554D01*
X037010Y024569D01*
X037010Y025238D02*
X037012Y025253D01*
X037017Y025266D01*
X037026Y025278D01*
X037037Y025288D01*
X037051Y025294D01*
X037065Y025297D01*
X037080Y025296D01*
X037094Y025291D01*
X037107Y025283D01*
X037117Y025273D01*
X037124Y025260D01*
X037128Y025245D01*
X037128Y025231D01*
X037124Y025216D01*
X037117Y025203D01*
X037107Y025193D01*
X037094Y025185D01*
X037080Y025180D01*
X037065Y025179D01*
X037051Y025182D01*
X037037Y025188D01*
X037026Y025198D01*
X037017Y025210D01*
X037012Y025223D01*
X037010Y025238D01*
X036773Y025238D02*
X036775Y025253D01*
X036780Y025266D01*
X036789Y025278D01*
X036800Y025288D01*
X036814Y025294D01*
X036828Y025297D01*
X036843Y025296D01*
X036857Y025291D01*
X036870Y025283D01*
X036880Y025273D01*
X036887Y025260D01*
X036891Y025245D01*
X036891Y025231D01*
X036887Y025216D01*
X036880Y025203D01*
X036870Y025193D01*
X036857Y025185D01*
X036843Y025180D01*
X036828Y025179D01*
X036814Y025182D01*
X036800Y025188D01*
X036789Y025198D01*
X036780Y025210D01*
X036775Y025223D01*
X036773Y025238D01*
X036537Y025238D02*
X036539Y025253D01*
X036544Y025266D01*
X036553Y025278D01*
X036564Y025288D01*
X036578Y025294D01*
X036592Y025297D01*
X036607Y025296D01*
X036621Y025291D01*
X036634Y025283D01*
X036644Y025273D01*
X036651Y025260D01*
X036655Y025245D01*
X036655Y025231D01*
X036651Y025216D01*
X036644Y025203D01*
X036634Y025193D01*
X036621Y025185D01*
X036607Y025180D01*
X036592Y025179D01*
X036578Y025182D01*
X036564Y025188D01*
X036553Y025198D01*
X036544Y025210D01*
X036539Y025223D01*
X036537Y025238D01*
X036301Y025238D02*
X036303Y025253D01*
X036308Y025266D01*
X036317Y025278D01*
X036328Y025288D01*
X036342Y025294D01*
X036356Y025297D01*
X036371Y025296D01*
X036385Y025291D01*
X036398Y025283D01*
X036408Y025273D01*
X036415Y025260D01*
X036419Y025245D01*
X036419Y025231D01*
X036415Y025216D01*
X036408Y025203D01*
X036398Y025193D01*
X036385Y025185D01*
X036371Y025180D01*
X036356Y025179D01*
X036342Y025182D01*
X036328Y025188D01*
X036317Y025198D01*
X036308Y025210D01*
X036303Y025223D01*
X036301Y025238D01*
X033053Y028880D02*
X033055Y028895D01*
X033060Y028908D01*
X033069Y028920D01*
X033080Y028930D01*
X033094Y028936D01*
X033108Y028939D01*
X033123Y028938D01*
X033137Y028933D01*
X033150Y028925D01*
X033160Y028915D01*
X033167Y028902D01*
X033171Y028887D01*
X033171Y028873D01*
X033167Y028858D01*
X033160Y028845D01*
X033150Y028835D01*
X033137Y028827D01*
X033123Y028822D01*
X033108Y028821D01*
X033094Y028824D01*
X033080Y028830D01*
X033069Y028840D01*
X033060Y028852D01*
X033055Y028865D01*
X033053Y028880D01*
X033053Y029116D02*
X033055Y029131D01*
X033060Y029144D01*
X033069Y029156D01*
X033080Y029166D01*
X033094Y029172D01*
X033108Y029175D01*
X033123Y029174D01*
X033137Y029169D01*
X033150Y029161D01*
X033160Y029151D01*
X033167Y029138D01*
X033171Y029123D01*
X033171Y029109D01*
X033167Y029094D01*
X033160Y029081D01*
X033150Y029071D01*
X033137Y029063D01*
X033123Y029058D01*
X033108Y029057D01*
X033094Y029060D01*
X033080Y029066D01*
X033069Y029076D01*
X033060Y029088D01*
X033055Y029101D01*
X033053Y029116D01*
X033053Y029352D02*
X033055Y029367D01*
X033060Y029380D01*
X033069Y029392D01*
X033080Y029402D01*
X033094Y029408D01*
X033108Y029411D01*
X033123Y029410D01*
X033137Y029405D01*
X033150Y029397D01*
X033160Y029387D01*
X033167Y029374D01*
X033171Y029359D01*
X033171Y029345D01*
X033167Y029330D01*
X033160Y029317D01*
X033150Y029307D01*
X033137Y029299D01*
X033123Y029294D01*
X033108Y029293D01*
X033094Y029296D01*
X033080Y029302D01*
X033069Y029312D01*
X033060Y029324D01*
X033055Y029337D01*
X033053Y029352D01*
X033053Y029588D02*
X033055Y029603D01*
X033060Y029616D01*
X033069Y029628D01*
X033080Y029638D01*
X033094Y029644D01*
X033108Y029647D01*
X033123Y029646D01*
X033137Y029641D01*
X033150Y029633D01*
X033160Y029623D01*
X033167Y029610D01*
X033171Y029595D01*
X033171Y029581D01*
X033167Y029566D01*
X033160Y029553D01*
X033150Y029543D01*
X033137Y029535D01*
X033123Y029530D01*
X033108Y029529D01*
X033094Y029532D01*
X033080Y029538D01*
X033069Y029548D01*
X033060Y029560D01*
X033055Y029573D01*
X033053Y029588D01*
X032384Y029588D02*
X032386Y029603D01*
X032391Y029616D01*
X032400Y029628D01*
X032411Y029638D01*
X032425Y029644D01*
X032439Y029647D01*
X032454Y029646D01*
X032468Y029641D01*
X032481Y029633D01*
X032491Y029623D01*
X032498Y029610D01*
X032502Y029595D01*
X032502Y029581D01*
X032498Y029566D01*
X032491Y029553D01*
X032481Y029543D01*
X032468Y029535D01*
X032454Y029530D01*
X032439Y029529D01*
X032425Y029532D01*
X032411Y029538D01*
X032400Y029548D01*
X032391Y029560D01*
X032386Y029573D01*
X032384Y029588D01*
X032384Y029352D02*
X032386Y029367D01*
X032391Y029380D01*
X032400Y029392D01*
X032411Y029402D01*
X032425Y029408D01*
X032439Y029411D01*
X032454Y029410D01*
X032468Y029405D01*
X032481Y029397D01*
X032491Y029387D01*
X032498Y029374D01*
X032502Y029359D01*
X032502Y029345D01*
X032498Y029330D01*
X032491Y029317D01*
X032481Y029307D01*
X032468Y029299D01*
X032454Y029294D01*
X032439Y029293D01*
X032425Y029296D01*
X032411Y029302D01*
X032400Y029312D01*
X032391Y029324D01*
X032386Y029337D01*
X032384Y029352D01*
X032384Y029116D02*
X032386Y029131D01*
X032391Y029144D01*
X032400Y029156D01*
X032411Y029166D01*
X032425Y029172D01*
X032439Y029175D01*
X032454Y029174D01*
X032468Y029169D01*
X032481Y029161D01*
X032491Y029151D01*
X032498Y029138D01*
X032502Y029123D01*
X032502Y029109D01*
X032498Y029094D01*
X032491Y029081D01*
X032481Y029071D01*
X032468Y029063D01*
X032454Y029058D01*
X032439Y029057D01*
X032425Y029060D01*
X032411Y029066D01*
X032400Y029076D01*
X032391Y029088D01*
X032386Y029101D01*
X032384Y029116D01*
X032384Y028880D02*
X032386Y028895D01*
X032391Y028908D01*
X032400Y028920D01*
X032411Y028930D01*
X032425Y028936D01*
X032439Y028939D01*
X032454Y028938D01*
X032468Y028933D01*
X032481Y028925D01*
X032491Y028915D01*
X032498Y028902D01*
X032502Y028887D01*
X032502Y028873D01*
X032498Y028858D01*
X032491Y028845D01*
X032481Y028835D01*
X032468Y028827D01*
X032454Y028822D01*
X032439Y028821D01*
X032425Y028824D01*
X032411Y028830D01*
X032400Y028840D01*
X032391Y028852D01*
X032386Y028865D01*
X032384Y028880D01*
X032384Y044628D02*
X032386Y044643D01*
X032391Y044656D01*
X032400Y044668D01*
X032411Y044678D01*
X032425Y044684D01*
X032439Y044687D01*
X032454Y044686D01*
X032468Y044681D01*
X032481Y044673D01*
X032491Y044663D01*
X032498Y044650D01*
X032502Y044635D01*
X032502Y044621D01*
X032498Y044606D01*
X032491Y044593D01*
X032481Y044583D01*
X032468Y044575D01*
X032454Y044570D01*
X032439Y044569D01*
X032425Y044572D01*
X032411Y044578D01*
X032400Y044588D01*
X032391Y044600D01*
X032386Y044613D01*
X032384Y044628D01*
X032384Y044864D02*
X032386Y044879D01*
X032391Y044892D01*
X032400Y044904D01*
X032411Y044914D01*
X032425Y044920D01*
X032439Y044923D01*
X032454Y044922D01*
X032468Y044917D01*
X032481Y044909D01*
X032491Y044899D01*
X032498Y044886D01*
X032502Y044871D01*
X032502Y044857D01*
X032498Y044842D01*
X032491Y044829D01*
X032481Y044819D01*
X032468Y044811D01*
X032454Y044806D01*
X032439Y044805D01*
X032425Y044808D01*
X032411Y044814D01*
X032400Y044824D01*
X032391Y044836D01*
X032386Y044849D01*
X032384Y044864D01*
X032384Y045100D02*
X032386Y045115D01*
X032391Y045128D01*
X032400Y045140D01*
X032411Y045150D01*
X032425Y045156D01*
X032439Y045159D01*
X032454Y045158D01*
X032468Y045153D01*
X032481Y045145D01*
X032491Y045135D01*
X032498Y045122D01*
X032502Y045107D01*
X032502Y045093D01*
X032498Y045078D01*
X032491Y045065D01*
X032481Y045055D01*
X032468Y045047D01*
X032454Y045042D01*
X032439Y045041D01*
X032425Y045044D01*
X032411Y045050D01*
X032400Y045060D01*
X032391Y045072D01*
X032386Y045085D01*
X032384Y045100D01*
X032384Y045336D02*
X032386Y045351D01*
X032391Y045364D01*
X032400Y045376D01*
X032411Y045386D01*
X032425Y045392D01*
X032439Y045395D01*
X032454Y045394D01*
X032468Y045389D01*
X032481Y045381D01*
X032491Y045371D01*
X032498Y045358D01*
X032502Y045343D01*
X032502Y045329D01*
X032498Y045314D01*
X032491Y045301D01*
X032481Y045291D01*
X032468Y045283D01*
X032454Y045278D01*
X032439Y045277D01*
X032425Y045280D01*
X032411Y045286D01*
X032400Y045296D01*
X032391Y045308D01*
X032386Y045321D01*
X032384Y045336D01*
X033053Y045336D02*
X033055Y045351D01*
X033060Y045364D01*
X033069Y045376D01*
X033080Y045386D01*
X033094Y045392D01*
X033108Y045395D01*
X033123Y045394D01*
X033137Y045389D01*
X033150Y045381D01*
X033160Y045371D01*
X033167Y045358D01*
X033171Y045343D01*
X033171Y045329D01*
X033167Y045314D01*
X033160Y045301D01*
X033150Y045291D01*
X033137Y045283D01*
X033123Y045278D01*
X033108Y045277D01*
X033094Y045280D01*
X033080Y045286D01*
X033069Y045296D01*
X033060Y045308D01*
X033055Y045321D01*
X033053Y045336D01*
X033053Y045100D02*
X033055Y045115D01*
X033060Y045128D01*
X033069Y045140D01*
X033080Y045150D01*
X033094Y045156D01*
X033108Y045159D01*
X033123Y045158D01*
X033137Y045153D01*
X033150Y045145D01*
X033160Y045135D01*
X033167Y045122D01*
X033171Y045107D01*
X033171Y045093D01*
X033167Y045078D01*
X033160Y045065D01*
X033150Y045055D01*
X033137Y045047D01*
X033123Y045042D01*
X033108Y045041D01*
X033094Y045044D01*
X033080Y045050D01*
X033069Y045060D01*
X033060Y045072D01*
X033055Y045085D01*
X033053Y045100D01*
X033053Y044864D02*
X033055Y044879D01*
X033060Y044892D01*
X033069Y044904D01*
X033080Y044914D01*
X033094Y044920D01*
X033108Y044923D01*
X033123Y044922D01*
X033137Y044917D01*
X033150Y044909D01*
X033160Y044899D01*
X033167Y044886D01*
X033171Y044871D01*
X033171Y044857D01*
X033167Y044842D01*
X033160Y044829D01*
X033150Y044819D01*
X033137Y044811D01*
X033123Y044806D01*
X033108Y044805D01*
X033094Y044808D01*
X033080Y044814D01*
X033069Y044824D01*
X033060Y044836D01*
X033055Y044849D01*
X033053Y044864D01*
X033053Y044628D02*
X033055Y044643D01*
X033060Y044656D01*
X033069Y044668D01*
X033080Y044678D01*
X033094Y044684D01*
X033108Y044687D01*
X033123Y044686D01*
X033137Y044681D01*
X033150Y044673D01*
X033160Y044663D01*
X033167Y044650D01*
X033171Y044635D01*
X033171Y044621D01*
X033167Y044606D01*
X033160Y044593D01*
X033150Y044583D01*
X033137Y044575D01*
X033123Y044570D01*
X033108Y044569D01*
X033094Y044572D01*
X033080Y044578D01*
X033069Y044588D01*
X033060Y044600D01*
X033055Y044613D01*
X033053Y044628D01*
X060710Y025238D02*
X060712Y025253D01*
X060717Y025266D01*
X060726Y025278D01*
X060737Y025288D01*
X060751Y025294D01*
X060765Y025297D01*
X060780Y025296D01*
X060794Y025291D01*
X060807Y025283D01*
X060817Y025273D01*
X060824Y025260D01*
X060828Y025245D01*
X060828Y025231D01*
X060824Y025216D01*
X060817Y025203D01*
X060807Y025193D01*
X060794Y025185D01*
X060780Y025180D01*
X060765Y025179D01*
X060751Y025182D01*
X060737Y025188D01*
X060726Y025198D01*
X060717Y025210D01*
X060712Y025223D01*
X060710Y025238D01*
X060947Y025238D02*
X060949Y025253D01*
X060954Y025266D01*
X060963Y025278D01*
X060974Y025288D01*
X060988Y025294D01*
X061002Y025297D01*
X061017Y025296D01*
X061031Y025291D01*
X061044Y025283D01*
X061054Y025273D01*
X061061Y025260D01*
X061065Y025245D01*
X061065Y025231D01*
X061061Y025216D01*
X061054Y025203D01*
X061044Y025193D01*
X061031Y025185D01*
X061017Y025180D01*
X061002Y025179D01*
X060988Y025182D01*
X060974Y025188D01*
X060963Y025198D01*
X060954Y025210D01*
X060949Y025223D01*
X060947Y025238D01*
X061183Y025238D02*
X061185Y025253D01*
X061190Y025266D01*
X061199Y025278D01*
X061210Y025288D01*
X061224Y025294D01*
X061238Y025297D01*
X061253Y025296D01*
X061267Y025291D01*
X061280Y025283D01*
X061290Y025273D01*
X061297Y025260D01*
X061301Y025245D01*
X061301Y025231D01*
X061297Y025216D01*
X061290Y025203D01*
X061280Y025193D01*
X061267Y025185D01*
X061253Y025180D01*
X061238Y025179D01*
X061224Y025182D01*
X061210Y025188D01*
X061199Y025198D01*
X061190Y025210D01*
X061185Y025223D01*
X061183Y025238D01*
X061419Y025238D02*
X061421Y025253D01*
X061426Y025266D01*
X061435Y025278D01*
X061446Y025288D01*
X061460Y025294D01*
X061474Y025297D01*
X061489Y025296D01*
X061503Y025291D01*
X061516Y025283D01*
X061526Y025273D01*
X061533Y025260D01*
X061537Y025245D01*
X061537Y025231D01*
X061533Y025216D01*
X061526Y025203D01*
X061516Y025193D01*
X061503Y025185D01*
X061489Y025180D01*
X061474Y025179D01*
X061460Y025182D01*
X061446Y025188D01*
X061435Y025198D01*
X061426Y025210D01*
X061421Y025223D01*
X061419Y025238D01*
X061419Y024569D02*
X061421Y024584D01*
X061426Y024597D01*
X061435Y024609D01*
X061446Y024619D01*
X061460Y024625D01*
X061474Y024628D01*
X061489Y024627D01*
X061503Y024622D01*
X061516Y024614D01*
X061526Y024604D01*
X061533Y024591D01*
X061537Y024576D01*
X061537Y024562D01*
X061533Y024547D01*
X061526Y024534D01*
X061516Y024524D01*
X061503Y024516D01*
X061489Y024511D01*
X061474Y024510D01*
X061460Y024513D01*
X061446Y024519D01*
X061435Y024529D01*
X061426Y024541D01*
X061421Y024554D01*
X061419Y024569D01*
X061183Y024569D02*
X061185Y024584D01*
X061190Y024597D01*
X061199Y024609D01*
X061210Y024619D01*
X061224Y024625D01*
X061238Y024628D01*
X061253Y024627D01*
X061267Y024622D01*
X061280Y024614D01*
X061290Y024604D01*
X061297Y024591D01*
X061301Y024576D01*
X061301Y024562D01*
X061297Y024547D01*
X061290Y024534D01*
X061280Y024524D01*
X061267Y024516D01*
X061253Y024511D01*
X061238Y024510D01*
X061224Y024513D01*
X061210Y024519D01*
X061199Y024529D01*
X061190Y024541D01*
X061185Y024554D01*
X061183Y024569D01*
X060947Y024569D02*
X060949Y024584D01*
X060954Y024597D01*
X060963Y024609D01*
X060974Y024619D01*
X060988Y024625D01*
X061002Y024628D01*
X061017Y024627D01*
X061031Y024622D01*
X061044Y024614D01*
X061054Y024604D01*
X061061Y024591D01*
X061065Y024576D01*
X061065Y024562D01*
X061061Y024547D01*
X061054Y024534D01*
X061044Y024524D01*
X061031Y024516D01*
X061017Y024511D01*
X061002Y024510D01*
X060988Y024513D01*
X060974Y024519D01*
X060963Y024529D01*
X060954Y024541D01*
X060949Y024554D01*
X060947Y024569D01*
X060710Y024569D02*
X060712Y024584D01*
X060717Y024597D01*
X060726Y024609D01*
X060737Y024619D01*
X060751Y024625D01*
X060765Y024628D01*
X060780Y024627D01*
X060794Y024622D01*
X060807Y024614D01*
X060817Y024604D01*
X060824Y024591D01*
X060828Y024576D01*
X060828Y024562D01*
X060824Y024547D01*
X060817Y024534D01*
X060807Y024524D01*
X060794Y024516D01*
X060780Y024511D01*
X060765Y024510D01*
X060751Y024513D01*
X060737Y024519D01*
X060726Y024529D01*
X060717Y024541D01*
X060712Y024554D01*
X060710Y024569D01*
X033053Y005179D02*
X033055Y005194D01*
X033060Y005207D01*
X033069Y005219D01*
X033080Y005229D01*
X033094Y005235D01*
X033108Y005238D01*
X033123Y005237D01*
X033137Y005232D01*
X033150Y005224D01*
X033160Y005214D01*
X033167Y005201D01*
X033171Y005186D01*
X033171Y005172D01*
X033167Y005157D01*
X033160Y005144D01*
X033150Y005134D01*
X033137Y005126D01*
X033123Y005121D01*
X033108Y005120D01*
X033094Y005123D01*
X033080Y005129D01*
X033069Y005139D01*
X033060Y005151D01*
X033055Y005164D01*
X033053Y005179D01*
X033053Y004943D02*
X033055Y004958D01*
X033060Y004971D01*
X033069Y004983D01*
X033080Y004993D01*
X033094Y004999D01*
X033108Y005002D01*
X033123Y005001D01*
X033137Y004996D01*
X033150Y004988D01*
X033160Y004978D01*
X033167Y004965D01*
X033171Y004950D01*
X033171Y004936D01*
X033167Y004921D01*
X033160Y004908D01*
X033150Y004898D01*
X033137Y004890D01*
X033123Y004885D01*
X033108Y004884D01*
X033094Y004887D01*
X033080Y004893D01*
X033069Y004903D01*
X033060Y004915D01*
X033055Y004928D01*
X033053Y004943D01*
X033053Y004706D02*
X033055Y004721D01*
X033060Y004734D01*
X033069Y004746D01*
X033080Y004756D01*
X033094Y004762D01*
X033108Y004765D01*
X033123Y004764D01*
X033137Y004759D01*
X033150Y004751D01*
X033160Y004741D01*
X033167Y004728D01*
X033171Y004713D01*
X033171Y004699D01*
X033167Y004684D01*
X033160Y004671D01*
X033150Y004661D01*
X033137Y004653D01*
X033123Y004648D01*
X033108Y004647D01*
X033094Y004650D01*
X033080Y004656D01*
X033069Y004666D01*
X033060Y004678D01*
X033055Y004691D01*
X033053Y004706D01*
X033053Y004470D02*
X033055Y004485D01*
X033060Y004498D01*
X033069Y004510D01*
X033080Y004520D01*
X033094Y004526D01*
X033108Y004529D01*
X033123Y004528D01*
X033137Y004523D01*
X033150Y004515D01*
X033160Y004505D01*
X033167Y004492D01*
X033171Y004477D01*
X033171Y004463D01*
X033167Y004448D01*
X033160Y004435D01*
X033150Y004425D01*
X033137Y004417D01*
X033123Y004412D01*
X033108Y004411D01*
X033094Y004414D01*
X033080Y004420D01*
X033069Y004430D01*
X033060Y004442D01*
X033055Y004455D01*
X033053Y004470D01*
X032384Y004470D02*
X032386Y004485D01*
X032391Y004498D01*
X032400Y004510D01*
X032411Y004520D01*
X032425Y004526D01*
X032439Y004529D01*
X032454Y004528D01*
X032468Y004523D01*
X032481Y004515D01*
X032491Y004505D01*
X032498Y004492D01*
X032502Y004477D01*
X032502Y004463D01*
X032498Y004448D01*
X032491Y004435D01*
X032481Y004425D01*
X032468Y004417D01*
X032454Y004412D01*
X032439Y004411D01*
X032425Y004414D01*
X032411Y004420D01*
X032400Y004430D01*
X032391Y004442D01*
X032386Y004455D01*
X032384Y004470D01*
X032384Y004706D02*
X032386Y004721D01*
X032391Y004734D01*
X032400Y004746D01*
X032411Y004756D01*
X032425Y004762D01*
X032439Y004765D01*
X032454Y004764D01*
X032468Y004759D01*
X032481Y004751D01*
X032491Y004741D01*
X032498Y004728D01*
X032502Y004713D01*
X032502Y004699D01*
X032498Y004684D01*
X032491Y004671D01*
X032481Y004661D01*
X032468Y004653D01*
X032454Y004648D01*
X032439Y004647D01*
X032425Y004650D01*
X032411Y004656D01*
X032400Y004666D01*
X032391Y004678D01*
X032386Y004691D01*
X032384Y004706D01*
X032384Y004943D02*
X032386Y004958D01*
X032391Y004971D01*
X032400Y004983D01*
X032411Y004993D01*
X032425Y004999D01*
X032439Y005002D01*
X032454Y005001D01*
X032468Y004996D01*
X032481Y004988D01*
X032491Y004978D01*
X032498Y004965D01*
X032502Y004950D01*
X032502Y004936D01*
X032498Y004921D01*
X032491Y004908D01*
X032481Y004898D01*
X032468Y004890D01*
X032454Y004885D01*
X032439Y004884D01*
X032425Y004887D01*
X032411Y004893D01*
X032400Y004903D01*
X032391Y004915D01*
X032386Y004928D01*
X032384Y004943D01*
X032384Y005179D02*
X032386Y005194D01*
X032391Y005207D01*
X032400Y005219D01*
X032411Y005229D01*
X032425Y005235D01*
X032439Y005238D01*
X032454Y005237D01*
X032468Y005232D01*
X032481Y005224D01*
X032491Y005214D01*
X032498Y005201D01*
X032502Y005186D01*
X032502Y005172D01*
X032498Y005157D01*
X032491Y005144D01*
X032481Y005134D01*
X032468Y005126D01*
X032454Y005121D01*
X032439Y005120D01*
X032425Y005123D01*
X032411Y005129D01*
X032400Y005139D01*
X032391Y005151D01*
X032386Y005164D01*
X032384Y005179D01*
D11*
X030415Y000887D02*
X002856Y000887D01*
X002762Y000889D01*
X002669Y000896D01*
X002576Y000907D01*
X002483Y000923D01*
X002392Y000943D01*
X002301Y000967D01*
X002212Y000995D01*
X002124Y001028D01*
X002038Y001065D01*
X001954Y001106D01*
X001871Y001151D01*
X001791Y001200D01*
X001714Y001252D01*
X001639Y001308D01*
X001567Y001368D01*
X001497Y001431D01*
X001431Y001497D01*
X001368Y001567D01*
X001308Y001639D01*
X001252Y001714D01*
X001200Y001791D01*
X001151Y001872D01*
X001106Y001954D01*
X001065Y002038D01*
X001028Y002124D01*
X000995Y002212D01*
X000967Y002301D01*
X000943Y002392D01*
X000923Y002483D01*
X000907Y002576D01*
X000896Y002669D01*
X000889Y002762D01*
X000887Y002856D01*
X000887Y022541D01*
X000889Y022635D01*
X000896Y022728D01*
X000907Y022821D01*
X000923Y022914D01*
X000943Y023005D01*
X000967Y023096D01*
X000995Y023185D01*
X001028Y023273D01*
X001065Y023359D01*
X001106Y023443D01*
X001151Y023526D01*
X001200Y023606D01*
X001252Y023683D01*
X001308Y023758D01*
X001368Y023830D01*
X001431Y023900D01*
X001497Y023966D01*
X001567Y024029D01*
X001639Y024089D01*
X001714Y024145D01*
X001791Y024197D01*
X001871Y024246D01*
X001954Y024291D01*
X002038Y024332D01*
X002124Y024369D01*
X002212Y024402D01*
X002301Y024430D01*
X002392Y024454D01*
X002483Y024474D01*
X002576Y024490D01*
X002669Y024501D01*
X002762Y024508D01*
X002856Y024510D01*
X002856Y024509D02*
X030415Y024509D01*
X030415Y025297D02*
X002856Y025297D01*
X002856Y025296D02*
X002762Y025298D01*
X002669Y025305D01*
X002576Y025316D01*
X002483Y025332D01*
X002392Y025352D01*
X002301Y025376D01*
X002212Y025404D01*
X002124Y025437D01*
X002038Y025474D01*
X001954Y025515D01*
X001871Y025560D01*
X001791Y025609D01*
X001714Y025661D01*
X001639Y025717D01*
X001567Y025777D01*
X001497Y025840D01*
X001431Y025906D01*
X001368Y025976D01*
X001308Y026048D01*
X001252Y026123D01*
X001200Y026200D01*
X001151Y026281D01*
X001106Y026363D01*
X001065Y026447D01*
X001028Y026533D01*
X000995Y026621D01*
X000967Y026710D01*
X000943Y026801D01*
X000923Y026892D01*
X000907Y026985D01*
X000896Y027078D01*
X000889Y027171D01*
X000887Y027265D01*
X000887Y046950D01*
X000889Y047044D01*
X000896Y047137D01*
X000907Y047230D01*
X000923Y047323D01*
X000943Y047414D01*
X000967Y047505D01*
X000995Y047594D01*
X001028Y047682D01*
X001065Y047768D01*
X001106Y047852D01*
X001151Y047935D01*
X001200Y048015D01*
X001252Y048092D01*
X001308Y048167D01*
X001368Y048239D01*
X001431Y048309D01*
X001497Y048375D01*
X001567Y048438D01*
X001639Y048498D01*
X001714Y048554D01*
X001791Y048606D01*
X001871Y048655D01*
X001954Y048700D01*
X002038Y048741D01*
X002124Y048778D01*
X002212Y048811D01*
X002301Y048839D01*
X002392Y048863D01*
X002483Y048883D01*
X002576Y048899D01*
X002669Y048910D01*
X002762Y048917D01*
X002856Y048919D01*
X030415Y048919D01*
X030509Y048917D01*
X030602Y048910D01*
X030695Y048899D01*
X030788Y048883D01*
X030879Y048863D01*
X030970Y048839D01*
X031059Y048811D01*
X031147Y048778D01*
X031233Y048741D01*
X031317Y048700D01*
X031399Y048655D01*
X031480Y048606D01*
X031557Y048554D01*
X031632Y048498D01*
X031704Y048438D01*
X031774Y048375D01*
X031840Y048309D01*
X031903Y048239D01*
X031963Y048167D01*
X032019Y048092D01*
X032071Y048015D01*
X032120Y047934D01*
X032165Y047852D01*
X032206Y047768D01*
X032243Y047682D01*
X032276Y047594D01*
X032304Y047505D01*
X032328Y047414D01*
X032348Y047323D01*
X032364Y047230D01*
X032375Y047137D01*
X032382Y047044D01*
X032384Y046950D01*
X032383Y046950D02*
X032383Y027265D01*
X033171Y027265D02*
X033171Y046950D01*
X033170Y046950D02*
X033172Y047044D01*
X033179Y047137D01*
X033190Y047230D01*
X033206Y047323D01*
X033226Y047414D01*
X033250Y047505D01*
X033278Y047594D01*
X033311Y047682D01*
X033348Y047768D01*
X033389Y047852D01*
X033434Y047935D01*
X033483Y048015D01*
X033535Y048092D01*
X033591Y048167D01*
X033651Y048239D01*
X033714Y048309D01*
X033780Y048375D01*
X033850Y048438D01*
X033922Y048498D01*
X033997Y048554D01*
X034074Y048606D01*
X034154Y048655D01*
X034237Y048700D01*
X034321Y048741D01*
X034407Y048778D01*
X034495Y048811D01*
X034584Y048839D01*
X034675Y048863D01*
X034766Y048883D01*
X034859Y048899D01*
X034952Y048910D01*
X035045Y048917D01*
X035139Y048919D01*
X062698Y048919D01*
X062792Y048917D01*
X062885Y048910D01*
X062978Y048899D01*
X063071Y048883D01*
X063162Y048863D01*
X063253Y048839D01*
X063342Y048811D01*
X063430Y048778D01*
X063516Y048741D01*
X063600Y048700D01*
X063682Y048655D01*
X063763Y048606D01*
X063840Y048554D01*
X063915Y048498D01*
X063987Y048438D01*
X064057Y048375D01*
X064123Y048309D01*
X064186Y048239D01*
X064246Y048167D01*
X064302Y048092D01*
X064354Y048015D01*
X064403Y047934D01*
X064448Y047852D01*
X064489Y047768D01*
X064526Y047682D01*
X064559Y047594D01*
X064587Y047505D01*
X064611Y047414D01*
X064631Y047323D01*
X064647Y047230D01*
X064658Y047137D01*
X064665Y047044D01*
X064667Y046950D01*
X064667Y027265D01*
X064665Y027171D01*
X064658Y027078D01*
X064647Y026985D01*
X064631Y026892D01*
X064611Y026801D01*
X064587Y026710D01*
X064559Y026621D01*
X064526Y026533D01*
X064489Y026447D01*
X064448Y026363D01*
X064403Y026281D01*
X064354Y026200D01*
X064302Y026123D01*
X064246Y026048D01*
X064186Y025976D01*
X064123Y025906D01*
X064057Y025840D01*
X063987Y025777D01*
X063915Y025717D01*
X063840Y025661D01*
X063763Y025609D01*
X063683Y025560D01*
X063600Y025515D01*
X063516Y025474D01*
X063430Y025437D01*
X063342Y025404D01*
X063253Y025376D01*
X063162Y025352D01*
X063071Y025332D01*
X062978Y025316D01*
X062885Y025305D01*
X062792Y025298D01*
X062698Y025296D01*
X062698Y025297D02*
X035139Y025297D01*
X035139Y024509D02*
X062698Y024509D01*
X062698Y024510D02*
X062792Y024508D01*
X062885Y024501D01*
X062978Y024490D01*
X063071Y024474D01*
X063162Y024454D01*
X063253Y024430D01*
X063342Y024402D01*
X063430Y024369D01*
X063516Y024332D01*
X063600Y024291D01*
X063682Y024246D01*
X063763Y024197D01*
X063840Y024145D01*
X063915Y024089D01*
X063987Y024029D01*
X064057Y023966D01*
X064123Y023900D01*
X064186Y023830D01*
X064246Y023758D01*
X064302Y023683D01*
X064354Y023606D01*
X064403Y023525D01*
X064448Y023443D01*
X064489Y023359D01*
X064526Y023273D01*
X064559Y023185D01*
X064587Y023096D01*
X064611Y023005D01*
X064631Y022914D01*
X064647Y022821D01*
X064658Y022728D01*
X064665Y022635D01*
X064667Y022541D01*
X064667Y002856D01*
X064665Y002762D01*
X064658Y002669D01*
X064647Y002576D01*
X064631Y002483D01*
X064611Y002392D01*
X064587Y002301D01*
X064559Y002212D01*
X064526Y002124D01*
X064489Y002038D01*
X064448Y001954D01*
X064403Y001872D01*
X064354Y001791D01*
X064302Y001714D01*
X064246Y001639D01*
X064186Y001567D01*
X064123Y001497D01*
X064057Y001431D01*
X063987Y001368D01*
X063915Y001308D01*
X063840Y001252D01*
X063763Y001200D01*
X063683Y001151D01*
X063600Y001106D01*
X063516Y001065D01*
X063430Y001028D01*
X063342Y000995D01*
X063253Y000967D01*
X063162Y000943D01*
X063071Y000923D01*
X062978Y000907D01*
X062885Y000896D01*
X062792Y000889D01*
X062698Y000887D01*
X035139Y000887D01*
X035045Y000889D01*
X034952Y000896D01*
X034859Y000907D01*
X034766Y000923D01*
X034675Y000943D01*
X034584Y000967D01*
X034495Y000995D01*
X034407Y001028D01*
X034321Y001065D01*
X034237Y001106D01*
X034154Y001151D01*
X034074Y001200D01*
X033997Y001252D01*
X033922Y001308D01*
X033850Y001368D01*
X033780Y001431D01*
X033714Y001497D01*
X033651Y001567D01*
X033591Y001639D01*
X033535Y001714D01*
X033483Y001791D01*
X033434Y001872D01*
X033389Y001954D01*
X033348Y002038D01*
X033311Y002124D01*
X033278Y002212D01*
X033250Y002301D01*
X033226Y002392D01*
X033206Y002483D01*
X033190Y002576D01*
X033179Y002669D01*
X033172Y002762D01*
X033170Y002856D01*
X033171Y002856D02*
X033171Y022541D01*
X032383Y022541D02*
X032383Y002856D01*
X032384Y002856D02*
X032382Y002762D01*
X032375Y002669D01*
X032364Y002576D01*
X032348Y002483D01*
X032328Y002392D01*
X032304Y002301D01*
X032276Y002212D01*
X032243Y002124D01*
X032206Y002038D01*
X032165Y001954D01*
X032120Y001872D01*
X032071Y001791D01*
X032019Y001714D01*
X031963Y001639D01*
X031903Y001567D01*
X031840Y001497D01*
X031774Y001431D01*
X031704Y001368D01*
X031632Y001308D01*
X031557Y001252D01*
X031480Y001200D01*
X031400Y001151D01*
X031317Y001106D01*
X031233Y001065D01*
X031147Y001028D01*
X031059Y000995D01*
X030970Y000967D01*
X030879Y000943D01*
X030788Y000923D01*
X030695Y000907D01*
X030602Y000896D01*
X030509Y000889D01*
X030415Y000887D01*
X032384Y022541D02*
X032382Y022635D01*
X032375Y022728D01*
X032364Y022821D01*
X032348Y022914D01*
X032328Y023005D01*
X032304Y023096D01*
X032276Y023185D01*
X032243Y023273D01*
X032206Y023359D01*
X032165Y023443D01*
X032120Y023525D01*
X032071Y023606D01*
X032019Y023683D01*
X031963Y023758D01*
X031903Y023830D01*
X031840Y023900D01*
X031774Y023966D01*
X031704Y024029D01*
X031632Y024089D01*
X031557Y024145D01*
X031480Y024197D01*
X031399Y024246D01*
X031317Y024291D01*
X031233Y024332D01*
X031147Y024369D01*
X031059Y024402D01*
X030970Y024430D01*
X030879Y024454D01*
X030788Y024474D01*
X030695Y024490D01*
X030602Y024501D01*
X030509Y024508D01*
X030415Y024510D01*
X030415Y025296D02*
X030509Y025298D01*
X030602Y025305D01*
X030695Y025316D01*
X030788Y025332D01*
X030879Y025352D01*
X030970Y025376D01*
X031059Y025404D01*
X031147Y025437D01*
X031233Y025474D01*
X031317Y025515D01*
X031400Y025560D01*
X031480Y025609D01*
X031557Y025661D01*
X031632Y025717D01*
X031704Y025777D01*
X031774Y025840D01*
X031840Y025906D01*
X031903Y025976D01*
X031963Y026048D01*
X032019Y026123D01*
X032071Y026200D01*
X032120Y026281D01*
X032165Y026363D01*
X032206Y026447D01*
X032243Y026533D01*
X032276Y026621D01*
X032304Y026710D01*
X032328Y026801D01*
X032348Y026892D01*
X032364Y026985D01*
X032375Y027078D01*
X032382Y027171D01*
X032384Y027265D01*
X033170Y027265D02*
X033172Y027171D01*
X033179Y027078D01*
X033190Y026985D01*
X033206Y026892D01*
X033226Y026801D01*
X033250Y026710D01*
X033278Y026621D01*
X033311Y026533D01*
X033348Y026447D01*
X033389Y026363D01*
X033434Y026281D01*
X033483Y026200D01*
X033535Y026123D01*
X033591Y026048D01*
X033651Y025976D01*
X033714Y025906D01*
X033780Y025840D01*
X033850Y025777D01*
X033922Y025717D01*
X033997Y025661D01*
X034074Y025609D01*
X034154Y025560D01*
X034237Y025515D01*
X034321Y025474D01*
X034407Y025437D01*
X034495Y025404D01*
X034584Y025376D01*
X034675Y025352D01*
X034766Y025332D01*
X034859Y025316D01*
X034952Y025305D01*
X035045Y025298D01*
X035139Y025296D01*
X035139Y024510D02*
X035045Y024508D01*
X034952Y024501D01*
X034859Y024490D01*
X034766Y024474D01*
X034675Y024454D01*
X034584Y024430D01*
X034495Y024402D01*
X034407Y024369D01*
X034321Y024332D01*
X034237Y024291D01*
X034154Y024246D01*
X034074Y024197D01*
X033997Y024145D01*
X033922Y024089D01*
X033850Y024029D01*
X033780Y023966D01*
X033714Y023900D01*
X033651Y023830D01*
X033591Y023758D01*
X033535Y023683D01*
X033483Y023606D01*
X033434Y023526D01*
X033389Y023443D01*
X033348Y023359D01*
X033311Y023273D01*
X033278Y023185D01*
X033250Y023096D01*
X033226Y023005D01*
X033206Y022914D01*
X033190Y022821D01*
X033179Y022728D01*
X033172Y022635D01*
X033170Y022541D01*
M02*
