%
M48
M72
T01C0.0118
T02C0.0236
T03C0.0400
T04C0.0630
%
T01
X4076Y24569
X4313Y24569
X4549Y24569
X4785Y24569
X4785Y25238
X4549Y25238
X4313Y25238
X4076Y25238
X28486Y25238
X28722Y25238
X28958Y25238
X29194Y25238
X29194Y24569
X28958Y24569
X28722Y24569
X28486Y24569
X32443Y20927
X32443Y20691
X32443Y20454
X32443Y20218
X33112Y20218
X33112Y20454
X33112Y20691
X33112Y20927
X36360Y24569
X36596Y24569
X36832Y24569
X37069Y24569
X37069Y25238
X36832Y25238
X36596Y25238
X36360Y25238
X33112Y28880
X33112Y29116
X33112Y29352
X33112Y29588
X32443Y29588
X32443Y29352
X32443Y29116
X32443Y28880
X32443Y44628
X32443Y44864
X32443Y45100
X32443Y45336
X33112Y45336
X33112Y45100
X33112Y44864
X33112Y44628
X60769Y25238
X61006Y25238
X61242Y25238
X61478Y25238
X61478Y24569
X61242Y24569
X61006Y24569
X60769Y24569
X33112Y5179
X33112Y4943
X33112Y4706
X33112Y4470
X32443Y4470
X32443Y4706
X32443Y4943
X32443Y5179
T02
X1675Y4037
X3643Y4037
X2462Y6793
X2462Y10533
X3250Y15061
X6990Y19588
X7580Y20179
X4824Y22738
X6006Y23328
X10533Y27462
X8565Y28053
X7777Y29431
X9746Y29431
X11714Y29431
X13683Y29431
X15651Y29431
X16832Y28643
X18801Y27856
X20769Y27856
X22738Y27856
X24706Y27856
X26872Y28446
X27856Y23525
X31399Y21754
X31793Y21360
X31399Y20769
X31202Y20179
X29824Y19194
X29824Y18604
X28840Y18604
X30612Y16832
X35533Y15061
X34746Y10533
X34746Y6793
X33958Y4037
X35927Y4037
X40061Y5021
X40848Y3643
X42029Y5021
X43998Y5021
X45966Y5021
X47935Y5021
X49116Y4234
X51084Y3446
X53053Y3446
X55021Y3446
X56990Y3446
X59155Y4037
X48919Y1281
X46950Y1872
X44982Y2462
X42817Y3053
X26872Y4037
X24706Y3446
X22738Y3446
X20769Y3446
X18801Y3446
X16832Y4234
X15651Y5021
X13683Y5021
X11714Y5021
X9746Y5021
X8565Y3643
X7777Y5021
X10533Y3053
X12698Y2462
X14667Y1872
X16635Y1281
X39273Y19588
X39864Y20179
X37108Y22738
X38289Y23328
X42817Y27462
X40848Y28053
X40061Y29431
X42029Y29431
X43998Y29431
X45966Y29431
X47935Y29431
X49116Y28643
X51084Y27856
X53053Y27856
X55021Y27856
X56990Y27856
X59155Y28446
X60139Y23525
X63683Y21754
X64076Y21360
X63683Y20769
X63486Y20179
X62108Y19194
X62108Y18604
X61124Y18604
X62895Y16832
X64076Y22344
X55809Y22344
X48919Y25691
X46950Y26281
X44982Y26872
X35927Y28446
X33958Y28446
X34746Y31202
X34746Y34943
X35533Y39470
X30612Y41242
X29824Y43013
X29824Y43604
X28840Y43013
X31202Y44588
X31399Y45179
X31793Y45769
X31399Y46163
X31793Y46754
X27856Y47935
X23525Y46754
X37108Y47147
X38289Y47738
X39864Y44588
X39273Y43998
X55809Y46754
X60139Y47935
X63683Y46163
X64076Y45769
X63683Y45179
X63486Y44588
X62108Y43604
X62108Y43013
X61124Y43013
X62895Y41242
X64076Y46754
X31793Y22344
X23525Y22344
X16635Y25691
X14667Y26281
X12698Y26872
X3643Y28446
X1675Y28446
X2462Y31202
X2462Y34943
X3250Y39470
X6990Y43998
X7580Y44588
X4824Y47147
X6006Y47738
T03
X29521Y28659
X30521Y28659
X30521Y27659
X29521Y27659
X29521Y26659
X30521Y26659
X30521Y4250
X29521Y4250
X29521Y3250
X30521Y3250
X30521Y2250
X29521Y2250
X61805Y2250
X62805Y2250
X62805Y3250
X61805Y3250
X61805Y4250
X62805Y4250
X62805Y26659
X61805Y26659
X61805Y27659
X62805Y27659
X62805Y28659
X61805Y28659
T04
X48919Y19588
X48919Y43998
X16635Y43998
X16635Y19588
M30
