G75*
G70*
%OFA0B0*%
%FSLAX24Y24*%
%IPPOS*%
%LPD*%
%AMOC8*
5,1,8,0,0,1.08239X$1,22.5*
%
%ADD10C,0.0198*%
%ADD11R,0.0820X0.0820*%
%ADD12OC8,0.0820*%
%ADD13R,0.0671X0.0592*%
%ADD14R,0.0552X0.0552*%
%ADD15R,0.0592X0.0671*%
%ADD16R,0.0671X0.0671*%
%ADD17R,0.0552X0.1340*%
%ADD18R,0.0580X0.0330*%
%ADD19R,0.0950X0.0320*%
%ADD20C,0.1080*%
%ADD21R,0.0880X0.0340*%
%ADD22R,0.0946X0.0434*%
%ADD23R,0.0789X0.0395*%
%ADD24OC8,0.1720*%
%ADD25C,0.1181*%
%ADD26R,0.0038X0.0006*%
%ADD27R,0.0164X0.0006*%
%ADD28R,0.0227X0.0006*%
%ADD29R,0.0271X0.0006*%
%ADD30R,0.0315X0.0006*%
%ADD31R,0.0353X0.0006*%
%ADD32R,0.0378X0.0006*%
%ADD33R,0.0409X0.0006*%
%ADD34R,0.0441X0.0006*%
%ADD35R,0.0466X0.0006*%
%ADD36R,0.0485X0.0006*%
%ADD37R,0.0510X0.0006*%
%ADD38R,0.0529X0.0006*%
%ADD39R,0.0548X0.0006*%
%ADD40R,0.0567X0.0006*%
%ADD41R,0.0586X0.0006*%
%ADD42R,0.0605X0.0006*%
%ADD43R,0.0624X0.0006*%
%ADD44R,0.0636X0.0006*%
%ADD45R,0.0655X0.0006*%
%ADD46R,0.0668X0.0006*%
%ADD47R,0.0687X0.0006*%
%ADD48R,0.0699X0.0006*%
%ADD49R,0.0712X0.0006*%
%ADD50R,0.0724X0.0006*%
%ADD51R,0.0737X0.0006*%
%ADD52R,0.0750X0.0006*%
%ADD53R,0.0762X0.0006*%
%ADD54R,0.0775X0.0006*%
%ADD55R,0.0787X0.0006*%
%ADD56R,0.0800X0.0006*%
%ADD57R,0.0806X0.0006*%
%ADD58R,0.0813X0.0006*%
%ADD59R,0.0825X0.0006*%
%ADD60R,0.0838X0.0006*%
%ADD61R,0.0844X0.0006*%
%ADD62R,0.0850X0.0006*%
%ADD63R,0.0863X0.0006*%
%ADD64R,0.0876X0.0006*%
%ADD65R,0.0882X0.0006*%
%ADD66R,0.0888X0.0006*%
%ADD67R,0.0901X0.0006*%
%ADD68R,0.0913X0.0006*%
%ADD69R,0.0920X0.0006*%
%ADD70R,0.0926X0.0006*%
%ADD71R,0.0932X0.0006*%
%ADD72R,0.0939X0.0006*%
%ADD73R,0.0945X0.0006*%
%ADD74R,0.0951X0.0006*%
%ADD75R,0.0957X0.0006*%
%ADD76R,0.0964X0.0006*%
%ADD77R,0.0970X0.0006*%
%ADD78R,0.0976X0.0006*%
%ADD79R,0.0989X0.0006*%
%ADD80R,0.1002X0.0006*%
%ADD81R,0.1008X0.0006*%
%ADD82R,0.1014X0.0006*%
%ADD83R,0.0258X0.0006*%
%ADD84R,0.0340X0.0006*%
%ADD85R,0.0252X0.0006*%
%ADD86R,0.0290X0.0006*%
%ADD87R,0.0321X0.0006*%
%ADD88R,0.0246X0.0006*%
%ADD89R,0.0265X0.0006*%
%ADD90R,0.0302X0.0006*%
%ADD91R,0.0233X0.0006*%
%ADD92R,0.0220X0.0006*%
%ADD93R,0.0214X0.0006*%
%ADD94R,0.0277X0.0006*%
%ADD95R,0.0195X0.0006*%
%ADD96R,0.0202X0.0006*%
%ADD97R,0.0176X0.0006*%
%ADD98R,0.0157X0.0006*%
%ADD99R,0.0183X0.0006*%
%ADD100R,0.0145X0.0006*%
%ADD101R,0.0120X0.0006*%
%ADD102R,0.0170X0.0006*%
%ADD103R,0.0101X0.0006*%
%ADD104R,0.0076X0.0006*%
%ADD105R,0.0239X0.0006*%
%ADD106R,0.0050X0.0006*%
%ADD107R,0.0107X0.0006*%
%ADD108R,0.0113X0.0006*%
%ADD109R,0.0063X0.0006*%
%ADD110R,0.0069X0.0006*%
%ADD111R,0.0031X0.0006*%
%ADD112R,0.0013X0.0006*%
%ADD113R,0.0025X0.0006*%
%ADD114R,0.0006X0.0006*%
D10*
X004076Y024569D03*
X004313Y024569D03*
X004549Y024569D03*
X004785Y024569D03*
X004785Y025238D03*
X004549Y025238D03*
X004313Y025238D03*
X004076Y025238D03*
X028486Y025238D03*
X028722Y025238D03*
X028958Y025238D03*
X029194Y025238D03*
X029194Y024569D03*
X028958Y024569D03*
X028722Y024569D03*
X028486Y024569D03*
X032443Y020927D03*
X032443Y020691D03*
X032443Y020454D03*
X032443Y020218D03*
X033112Y020218D03*
X033112Y020454D03*
X033112Y020691D03*
X033112Y020927D03*
X036360Y024569D03*
X036596Y024569D03*
X036832Y024569D03*
X037069Y024569D03*
X037069Y025238D03*
X036832Y025238D03*
X036596Y025238D03*
X036360Y025238D03*
X033112Y028880D03*
X033112Y029116D03*
X033112Y029352D03*
X033112Y029588D03*
X032443Y029588D03*
X032443Y029352D03*
X032443Y029116D03*
X032443Y028880D03*
X032443Y044628D03*
X032443Y044864D03*
X032443Y045100D03*
X032443Y045336D03*
X033112Y045336D03*
X033112Y045100D03*
X033112Y044864D03*
X033112Y044628D03*
X060769Y025238D03*
X061006Y025238D03*
X061242Y025238D03*
X061478Y025238D03*
X061478Y024569D03*
X061242Y024569D03*
X061006Y024569D03*
X060769Y024569D03*
X033112Y005179D03*
X033112Y004943D03*
X033112Y004706D03*
X033112Y004470D03*
X032443Y004470D03*
X032443Y004706D03*
X032443Y004943D03*
X032443Y005179D03*
D11*
X030521Y002250D03*
X030521Y026659D03*
X062805Y026659D03*
X062805Y002250D03*
D12*
X061805Y002250D03*
X061805Y003250D03*
X062805Y003250D03*
X062805Y004250D03*
X061805Y004250D03*
X061805Y026659D03*
X061805Y027659D03*
X062805Y027659D03*
X062805Y028659D03*
X061805Y028659D03*
X030521Y028659D03*
X029521Y028659D03*
X029521Y027659D03*
X030521Y027659D03*
X029521Y026659D03*
X029521Y004250D03*
X030521Y004250D03*
X030521Y003250D03*
X029521Y003250D03*
X029521Y002250D03*
D13*
X027856Y002876D03*
X027856Y003624D03*
X033925Y007401D03*
X033925Y008149D03*
X027856Y027285D03*
X027856Y028033D03*
X033925Y031811D03*
X033925Y032559D03*
X060139Y028033D03*
X060139Y027285D03*
X060139Y003624D03*
X060139Y002876D03*
X001641Y007401D03*
X001641Y008149D03*
X001641Y031811D03*
X001641Y032559D03*
D14*
X007777Y028663D03*
X007777Y027836D03*
X007777Y026694D03*
X007777Y025868D03*
X009746Y025868D03*
X009746Y026694D03*
X009746Y027836D03*
X009746Y028663D03*
X011714Y028663D03*
X011714Y027836D03*
X011714Y026694D03*
X011714Y025868D03*
X013683Y025868D03*
X013683Y026694D03*
X013683Y027836D03*
X013683Y028663D03*
X015651Y028663D03*
X015651Y027836D03*
X015651Y026694D03*
X015651Y025868D03*
X017620Y025868D03*
X017620Y026694D03*
X017620Y027836D03*
X017620Y028663D03*
X019588Y028663D03*
X019588Y027836D03*
X019588Y026694D03*
X019588Y025868D03*
X021557Y025868D03*
X021557Y026694D03*
X021557Y027836D03*
X021557Y028663D03*
X023525Y028663D03*
X023525Y027836D03*
X023525Y026694D03*
X023525Y025868D03*
X025494Y025868D03*
X025494Y026694D03*
X025494Y027836D03*
X025494Y028663D03*
X040061Y028663D03*
X040061Y027836D03*
X040061Y026694D03*
X040061Y025868D03*
X042029Y025868D03*
X042029Y026694D03*
X042029Y027836D03*
X042029Y028663D03*
X043998Y028663D03*
X043998Y027836D03*
X043998Y026694D03*
X043998Y025868D03*
X045966Y025868D03*
X045966Y026694D03*
X045966Y027836D03*
X045966Y028663D03*
X047935Y028663D03*
X047935Y027836D03*
X047935Y026694D03*
X047935Y025868D03*
X049903Y025868D03*
X049903Y026694D03*
X049903Y027836D03*
X049903Y028663D03*
X051872Y028663D03*
X051872Y027836D03*
X051872Y026694D03*
X051872Y025868D03*
X053840Y025868D03*
X053840Y026694D03*
X053840Y027836D03*
X053840Y028663D03*
X055809Y028663D03*
X055809Y027836D03*
X055809Y026694D03*
X055809Y025868D03*
X057777Y025868D03*
X057777Y026694D03*
X057777Y027836D03*
X057777Y028663D03*
X057777Y004254D03*
X057777Y003427D03*
X057777Y002285D03*
X057777Y001458D03*
X055809Y001458D03*
X055809Y002285D03*
X055809Y003427D03*
X055809Y004254D03*
X053840Y004254D03*
X053840Y003427D03*
X053840Y002285D03*
X053840Y001458D03*
X051872Y001458D03*
X051872Y002285D03*
X051872Y003427D03*
X051872Y004254D03*
X049903Y004254D03*
X049903Y003427D03*
X049903Y002285D03*
X049903Y001458D03*
X047935Y001458D03*
X047935Y002285D03*
X047935Y003427D03*
X047935Y004254D03*
X045966Y004254D03*
X045966Y003427D03*
X045966Y002285D03*
X045966Y001458D03*
X043998Y001458D03*
X043998Y002285D03*
X043998Y003427D03*
X043998Y004254D03*
X042029Y004254D03*
X042029Y003427D03*
X042029Y002285D03*
X042029Y001458D03*
X040061Y001458D03*
X040061Y002285D03*
X040061Y003427D03*
X040061Y004254D03*
X025494Y004254D03*
X025494Y003427D03*
X025494Y002285D03*
X025494Y001458D03*
X023525Y001458D03*
X023525Y002285D03*
X023525Y003427D03*
X023525Y004254D03*
X021557Y004254D03*
X021557Y003427D03*
X021557Y002285D03*
X021557Y001458D03*
X019588Y001458D03*
X019588Y002285D03*
X019588Y003427D03*
X019588Y004254D03*
X017620Y004254D03*
X017620Y003427D03*
X017620Y002285D03*
X017620Y001458D03*
X015651Y001458D03*
X015651Y002285D03*
X015651Y003427D03*
X015651Y004254D03*
X013683Y004254D03*
X013683Y003427D03*
X013683Y002285D03*
X013683Y001458D03*
X011714Y001458D03*
X011714Y002285D03*
X011714Y003427D03*
X011714Y004254D03*
X009746Y004254D03*
X009746Y003427D03*
X009746Y002285D03*
X009746Y001458D03*
X007777Y001458D03*
X007777Y002285D03*
X007777Y003427D03*
X007777Y004254D03*
D15*
X005289Y023631D03*
X004541Y023631D03*
X004541Y048041D03*
X005289Y048041D03*
X036824Y048041D03*
X037572Y048041D03*
X037572Y023631D03*
X036824Y023631D03*
D16*
X030809Y034844D03*
X030809Y036222D03*
X030809Y011813D03*
X030809Y010435D03*
X063092Y010435D03*
X063092Y011813D03*
X063092Y034844D03*
X063092Y036222D03*
D17*
X062305Y038131D03*
X063880Y038131D03*
X063880Y040809D03*
X062305Y040809D03*
X035533Y040809D03*
X033958Y040809D03*
X031596Y040809D03*
X030021Y040809D03*
X030021Y038131D03*
X031596Y038131D03*
X033958Y038131D03*
X035533Y038131D03*
X035533Y016399D03*
X033958Y016399D03*
X031596Y016399D03*
X030021Y016399D03*
X030021Y013722D03*
X031596Y013722D03*
X033958Y013722D03*
X035533Y013722D03*
X062305Y013722D03*
X063880Y013722D03*
X063880Y016399D03*
X062305Y016399D03*
X003250Y016399D03*
X001675Y016399D03*
X001675Y013722D03*
X003250Y013722D03*
X003250Y038131D03*
X001675Y038131D03*
X001675Y040809D03*
X003250Y040809D03*
D18*
X001641Y031113D03*
X001641Y030713D03*
X030809Y033561D03*
X030809Y033961D03*
X033925Y031113D03*
X033925Y030713D03*
X030809Y009552D03*
X030809Y009152D03*
X033925Y006704D03*
X033925Y006304D03*
X063092Y009152D03*
X063092Y009552D03*
X063092Y033561D03*
X063092Y033961D03*
X001641Y006704D03*
X001641Y006304D03*
D19*
X028209Y019860D03*
X028209Y020360D03*
X028209Y020860D03*
X028209Y021360D03*
X028209Y021860D03*
X028209Y022360D03*
X028209Y022860D03*
X030259Y022860D03*
X030259Y022360D03*
X030259Y021860D03*
X030259Y021360D03*
X030259Y020860D03*
X030259Y020360D03*
X030259Y019860D03*
X060492Y019860D03*
X060492Y020360D03*
X060492Y020860D03*
X060492Y021360D03*
X060492Y021860D03*
X060492Y022360D03*
X060492Y022860D03*
X062542Y022860D03*
X062542Y022360D03*
X062542Y021860D03*
X062542Y021360D03*
X062542Y020860D03*
X062542Y020360D03*
X062542Y019860D03*
X062542Y044269D03*
X062542Y044769D03*
X062542Y045269D03*
X062542Y045769D03*
X062542Y046269D03*
X062542Y046769D03*
X062542Y047269D03*
X060492Y047269D03*
X060492Y046769D03*
X060492Y046269D03*
X060492Y045769D03*
X060492Y045269D03*
X060492Y044769D03*
X060492Y044269D03*
X030259Y044269D03*
X030259Y044769D03*
X030259Y045269D03*
X030259Y045769D03*
X030259Y046269D03*
X030259Y046769D03*
X030259Y047269D03*
X028209Y047269D03*
X028209Y046769D03*
X028209Y046269D03*
X028209Y045769D03*
X028209Y045269D03*
X028209Y044769D03*
X028209Y044269D03*
D20*
X026084Y044982D03*
X026084Y020572D03*
X058368Y020572D03*
X058368Y044982D03*
D21*
X038318Y045072D03*
X038318Y044572D03*
X038318Y044072D03*
X038318Y045572D03*
X038318Y046072D03*
X038318Y046572D03*
X038318Y047072D03*
X035898Y047072D03*
X035898Y046572D03*
X035898Y046072D03*
X035898Y045572D03*
X035898Y045072D03*
X035898Y044572D03*
X035898Y044072D03*
X035898Y022663D03*
X035898Y022163D03*
X035898Y021663D03*
X035898Y021163D03*
X035898Y020663D03*
X035898Y020163D03*
X035898Y019663D03*
X038318Y019663D03*
X038318Y020163D03*
X038318Y020663D03*
X038318Y021163D03*
X038318Y021663D03*
X038318Y022163D03*
X038318Y022663D03*
X006034Y022663D03*
X006034Y022163D03*
X006034Y021663D03*
X006034Y021163D03*
X006034Y020663D03*
X006034Y020163D03*
X006034Y019663D03*
X003614Y019663D03*
X003614Y020163D03*
X003614Y020663D03*
X003614Y021163D03*
X003614Y021663D03*
X003614Y022163D03*
X003614Y022663D03*
X003614Y044072D03*
X003614Y044572D03*
X003614Y045072D03*
X003614Y045572D03*
X003614Y046072D03*
X003614Y046572D03*
X003614Y047072D03*
X006034Y047072D03*
X006034Y046572D03*
X006034Y046072D03*
X006034Y045572D03*
X006034Y045072D03*
X006034Y044572D03*
X006034Y044072D03*
D22*
X001752Y035889D03*
X001752Y035389D03*
X001752Y034889D03*
X001752Y034389D03*
X001752Y011480D03*
X001752Y010980D03*
X001752Y010480D03*
X001752Y009980D03*
X034035Y009980D03*
X034035Y010480D03*
X034035Y010980D03*
X034035Y011480D03*
X034035Y034389D03*
X034035Y034889D03*
X034035Y035389D03*
X034035Y035889D03*
D23*
X033978Y033889D03*
X033978Y009480D03*
X001694Y009480D03*
X001694Y033889D03*
D24*
X016635Y043998D03*
X016635Y019588D03*
X048919Y019588D03*
X048919Y043998D03*
D25*
X039470Y047738D03*
X034352Y029746D03*
X026675Y026478D03*
X039470Y023328D03*
X058958Y026478D03*
X034352Y005336D03*
X026675Y002069D03*
X002069Y005336D03*
X007187Y023328D03*
X002069Y029746D03*
X007187Y047738D03*
X058958Y002069D03*
D26*
X003056Y002530D03*
X003056Y026939D03*
X035339Y026939D03*
X035339Y002530D03*
D27*
X035339Y002536D03*
X035780Y003040D03*
X035339Y026946D03*
X035780Y027450D03*
X003497Y027450D03*
X003056Y026946D03*
X003497Y003040D03*
X003056Y002536D03*
D28*
X003056Y002543D03*
X002653Y002958D03*
X003465Y003021D03*
X003056Y026952D03*
X002653Y027368D03*
X003465Y027431D03*
X034936Y027368D03*
X035339Y026952D03*
X035749Y027431D03*
X035749Y003021D03*
X035339Y002543D03*
X034936Y002958D03*
D29*
X035336Y002549D03*
X035720Y002971D03*
X035336Y026958D03*
X035720Y027380D03*
X003437Y027380D03*
X003053Y026958D03*
X003437Y002971D03*
X003053Y002549D03*
D30*
X003056Y002555D03*
X002980Y002933D03*
X003056Y026965D03*
X002980Y027343D03*
X035264Y027343D03*
X035339Y026965D03*
X035264Y002933D03*
X035339Y002555D03*
D31*
X035339Y002561D03*
X035339Y026971D03*
X003056Y026971D03*
X003056Y002561D03*
D32*
X003056Y002568D03*
X003056Y026977D03*
X035339Y026977D03*
X035339Y002568D03*
D33*
X035336Y002574D03*
X035336Y026983D03*
X003053Y026983D03*
X003053Y002574D03*
D34*
X003056Y002580D03*
X003056Y026990D03*
X035339Y026990D03*
X035339Y002580D03*
D35*
X035339Y002587D03*
X035339Y026996D03*
X003056Y026996D03*
X003056Y002587D03*
D36*
X003053Y002593D03*
X003053Y027002D03*
X035336Y027002D03*
X035336Y002593D03*
D37*
X035336Y002599D03*
X035336Y027009D03*
X003053Y027009D03*
X003053Y002599D03*
D38*
X003056Y002606D03*
X003056Y027015D03*
X035339Y027015D03*
X035339Y002606D03*
D39*
X035336Y002612D03*
X035336Y027021D03*
X003053Y027021D03*
X003053Y002612D03*
D40*
X003056Y002618D03*
X003056Y027028D03*
X035339Y027028D03*
X035339Y002618D03*
D41*
X035336Y002624D03*
X035336Y027034D03*
X003053Y027034D03*
X003053Y002624D03*
D42*
X003056Y002631D03*
X003056Y027040D03*
X035339Y027040D03*
X035339Y002631D03*
D43*
X035336Y002637D03*
X035336Y027046D03*
X003053Y027046D03*
X003053Y002637D03*
D44*
X003053Y002643D03*
X003053Y027053D03*
X035336Y027053D03*
X035336Y002643D03*
D45*
X035339Y002650D03*
X035339Y027059D03*
X003056Y027059D03*
X003056Y002650D03*
D46*
X003056Y002656D03*
X003056Y027065D03*
X035339Y027065D03*
X035339Y002656D03*
D47*
X035336Y002662D03*
X035336Y027072D03*
X003053Y027072D03*
X003053Y002662D03*
D48*
X003053Y002669D03*
X003053Y027078D03*
X035336Y027078D03*
X035336Y002669D03*
D49*
X035336Y002675D03*
X035336Y027084D03*
X003053Y027084D03*
X003053Y002675D03*
D50*
X003053Y002681D03*
X003053Y027091D03*
X035336Y027091D03*
X035336Y002681D03*
D51*
X035336Y002687D03*
X035336Y027097D03*
X003053Y027097D03*
X003053Y002687D03*
D52*
X003053Y002694D03*
X003053Y027103D03*
X035336Y027103D03*
X035336Y002694D03*
D53*
X035336Y002700D03*
X035336Y027109D03*
X003053Y027109D03*
X003053Y002700D03*
D54*
X003053Y002706D03*
X003053Y027116D03*
X035336Y027116D03*
X035336Y002706D03*
D55*
X035336Y002713D03*
X035336Y027122D03*
X003053Y027122D03*
X003053Y002713D03*
D56*
X003053Y002719D03*
X003053Y027128D03*
X035336Y027128D03*
X035336Y002719D03*
D57*
X035339Y002725D03*
X035339Y027135D03*
X003056Y027135D03*
X003056Y002725D03*
D58*
X003053Y002731D03*
X003053Y027141D03*
X035336Y027141D03*
X035336Y002731D03*
D59*
X035336Y002738D03*
X035336Y027147D03*
X003053Y027147D03*
X003053Y002738D03*
D60*
X003053Y002744D03*
X003053Y027154D03*
X035336Y027154D03*
X035336Y002744D03*
D61*
X035339Y002750D03*
X035339Y027160D03*
X003056Y027160D03*
X003056Y002750D03*
D62*
X003053Y002757D03*
X003053Y027166D03*
X035336Y027166D03*
X035336Y002757D03*
D63*
X035336Y002763D03*
X035336Y027172D03*
X003053Y027172D03*
X003053Y002763D03*
D64*
X003053Y002769D03*
X003053Y027179D03*
X035336Y027179D03*
X035336Y002769D03*
D65*
X035339Y002776D03*
X035339Y027185D03*
X003056Y027185D03*
X003056Y002776D03*
D66*
X003053Y002782D03*
X003053Y027191D03*
X035336Y027191D03*
X035336Y002782D03*
D67*
X035336Y002788D03*
X035336Y002794D03*
X035336Y027198D03*
X035336Y027204D03*
X003053Y027204D03*
X003053Y027198D03*
X003053Y002794D03*
X003053Y002788D03*
D68*
X003053Y002801D03*
X003053Y027210D03*
X035336Y027210D03*
X035336Y002801D03*
D69*
X035339Y002807D03*
X035339Y027217D03*
X003056Y027217D03*
X003056Y002807D03*
D70*
X003053Y002813D03*
X003053Y027223D03*
X035336Y027223D03*
X035336Y002813D03*
D71*
X035339Y002820D03*
X035339Y027229D03*
X003056Y027229D03*
X003056Y002820D03*
D72*
X003053Y002826D03*
X003053Y027235D03*
X035336Y027235D03*
X035336Y002826D03*
D73*
X035339Y002832D03*
X035339Y027242D03*
X003056Y027242D03*
X003056Y002832D03*
D74*
X003053Y002839D03*
X003053Y027248D03*
X035336Y027248D03*
X035336Y002839D03*
D75*
X035339Y002845D03*
X035339Y027254D03*
X003056Y027254D03*
X003056Y002845D03*
D76*
X003053Y002851D03*
X003053Y027261D03*
X035336Y027261D03*
X035336Y002851D03*
D77*
X035339Y002857D03*
X035339Y027267D03*
X003056Y027267D03*
X003056Y002857D03*
D78*
X003053Y002864D03*
X003053Y002870D03*
X003053Y027273D03*
X003053Y027280D03*
X035336Y027280D03*
X035336Y027273D03*
X035336Y002870D03*
X035336Y002864D03*
D79*
X035336Y002876D03*
X035336Y002883D03*
X035336Y002889D03*
X035336Y027286D03*
X035336Y027292D03*
X035336Y027298D03*
X003053Y027298D03*
X003053Y027292D03*
X003053Y027286D03*
X003053Y002889D03*
X003053Y002883D03*
X003053Y002876D03*
D80*
X003053Y002895D03*
X003053Y002902D03*
X003053Y027305D03*
X003053Y027311D03*
X035336Y027311D03*
X035336Y027305D03*
X035336Y002902D03*
X035336Y002895D03*
D81*
X035339Y002908D03*
X035339Y027317D03*
X003056Y027317D03*
X003056Y002908D03*
D82*
X003053Y002914D03*
X003053Y002920D03*
X003053Y002927D03*
X003053Y027324D03*
X003053Y027330D03*
X003053Y027336D03*
X035336Y027336D03*
X035336Y027330D03*
X035336Y027324D03*
X035336Y002927D03*
X035336Y002920D03*
X035336Y002914D03*
D83*
X034958Y002933D03*
X034958Y027343D03*
X002675Y027343D03*
X002675Y002933D03*
D84*
X003396Y002933D03*
X003396Y027343D03*
X035680Y027343D03*
X035680Y002933D03*
D85*
X035730Y002983D03*
X035736Y002990D03*
X034949Y002939D03*
X003453Y002990D03*
X003446Y002983D03*
X002665Y002939D03*
X002665Y027349D03*
X003446Y027393D03*
X003453Y027399D03*
X034949Y027349D03*
X035730Y027393D03*
X035736Y027399D03*
D86*
X035711Y027368D03*
X035705Y027361D03*
X035257Y027349D03*
X003428Y027368D03*
X003421Y027361D03*
X002974Y027349D03*
X003428Y002958D03*
X003421Y002952D03*
X002974Y002939D03*
X035257Y002939D03*
X035705Y002952D03*
X035711Y002958D03*
D87*
X035689Y002939D03*
X035689Y027349D03*
X003406Y027349D03*
X003406Y002939D03*
D88*
X003456Y002996D03*
X003456Y003002D03*
X002965Y002952D03*
X002662Y002946D03*
X002662Y027355D03*
X002965Y027361D03*
X003456Y027406D03*
X003456Y027412D03*
X034946Y027355D03*
X035248Y027361D03*
X035739Y027406D03*
X035739Y027412D03*
X035739Y003002D03*
X035739Y002996D03*
X035248Y002952D03*
X034946Y002946D03*
D89*
X035251Y002946D03*
X035724Y002977D03*
X035251Y027355D03*
X035724Y027387D03*
X003440Y027387D03*
X002968Y027355D03*
X003440Y002977D03*
X002968Y002946D03*
D90*
X003415Y002946D03*
X003415Y027355D03*
X035698Y027355D03*
X035698Y002946D03*
D91*
X035746Y003015D03*
X035242Y002958D03*
X034939Y002952D03*
X003462Y003015D03*
X002958Y002958D03*
X002656Y002952D03*
X002656Y027361D03*
X002958Y027368D03*
X003462Y027424D03*
X034939Y027361D03*
X035242Y027368D03*
X035746Y027424D03*
D92*
X035752Y027437D03*
X035752Y027443D03*
X034927Y027374D03*
X035752Y003034D03*
X035752Y003028D03*
X034927Y002965D03*
X003469Y003028D03*
X003469Y003034D03*
X002643Y002965D03*
X002643Y027374D03*
X003469Y027437D03*
X003469Y027443D03*
D93*
X002955Y027374D03*
X002640Y027380D03*
X002640Y002971D03*
X002955Y002965D03*
X034924Y002971D03*
X035239Y002965D03*
X035239Y027374D03*
X034924Y027380D03*
D94*
X035717Y027374D03*
X035717Y002965D03*
X003434Y002965D03*
X003434Y027374D03*
D95*
X002952Y027380D03*
X002631Y027393D03*
X002631Y002983D03*
X002952Y002971D03*
X034914Y002983D03*
X035235Y002971D03*
X035235Y027380D03*
X034914Y027393D03*
D96*
X034917Y027387D03*
X034917Y002977D03*
X002634Y002977D03*
X002634Y027387D03*
D97*
X002615Y027431D03*
X002615Y027437D03*
X002949Y027387D03*
X002615Y003028D03*
X002615Y003021D03*
X002949Y002977D03*
X034898Y003021D03*
X034898Y003028D03*
X035232Y002977D03*
X035232Y027387D03*
X034898Y027431D03*
X034898Y027437D03*
D98*
X034889Y027450D03*
X035229Y027393D03*
X034889Y003040D03*
X035229Y002983D03*
X002946Y002983D03*
X002606Y003040D03*
X002946Y027393D03*
X002606Y027450D03*
D99*
X002618Y027443D03*
X002618Y027406D03*
X002624Y027399D03*
X002618Y003034D03*
X002618Y002996D03*
X002624Y002990D03*
X034902Y002996D03*
X034908Y002990D03*
X034902Y003034D03*
X034908Y027399D03*
X034902Y027406D03*
X034902Y027443D03*
D100*
X035229Y027399D03*
X035229Y002990D03*
X002946Y002990D03*
X002946Y027399D03*
D101*
X002946Y027406D03*
X002946Y002996D03*
X035229Y002996D03*
X035229Y027406D03*
D102*
X034895Y027412D03*
X034895Y027418D03*
X034895Y027424D03*
X034895Y003015D03*
X034895Y003009D03*
X034895Y003002D03*
X002612Y003009D03*
X002612Y003015D03*
X002612Y003002D03*
X002612Y027412D03*
X002612Y027418D03*
X002612Y027424D03*
D103*
X002943Y027412D03*
X002943Y003002D03*
X035226Y003002D03*
X035226Y027412D03*
D104*
X035226Y027418D03*
X035226Y003009D03*
X002943Y003009D03*
X002943Y027418D03*
D105*
X003459Y027418D03*
X003459Y003009D03*
X035743Y003009D03*
X035743Y027418D03*
D106*
X035843Y027469D03*
X035226Y027424D03*
X003560Y027469D03*
X002943Y027424D03*
X003560Y003059D03*
X002943Y003015D03*
X035226Y003015D03*
X035843Y003059D03*
D107*
X034864Y003046D03*
X034864Y027456D03*
X002580Y027456D03*
X002580Y003046D03*
D108*
X003522Y003046D03*
X003522Y027456D03*
X035806Y027456D03*
X035806Y003046D03*
D109*
X034842Y003053D03*
X034842Y027462D03*
X002558Y027462D03*
X002558Y003053D03*
D110*
X003544Y003053D03*
X003544Y027462D03*
X035828Y027462D03*
X035828Y003053D03*
D111*
X034826Y003059D03*
X034826Y027469D03*
X002543Y027469D03*
X002543Y003059D03*
D112*
X002533Y003065D03*
X002533Y027475D03*
X034817Y027475D03*
X034817Y003065D03*
D113*
X035856Y003065D03*
X035856Y027475D03*
X003572Y027475D03*
X003572Y003065D03*
D114*
X003582Y003072D03*
X003582Y027481D03*
X035865Y027481D03*
X035865Y003072D03*
M02*
